<?xml version="1.0" standalone="no"?>
<!DOCTYPE svg PUBLIC "-//W3C//DTD SVG 20010904//EN"
 "http://www.w3.org/TR/2001/REC-SVG-20010904/DTD/svg10.dtd">
<svg version="1.0" xmlns="http://www.w3.org/2000/svg"
 width="2049.000000pt" height="2049.000000pt" viewBox="0 0 2049.000000 2049.000000"
 preserveAspectRatio="xMidYMid meet">

<g transform="translate(0.000000,2049.000000) scale(0.100000,-0.100000)"
fill="#000000" stroke="none">
<path d="M9715 19380 c-1845 -92 -3572 -770 -4970 -1953 -1046 -885 -1857
-2016 -2360 -3287 -484 -1227 -668 -2566 -534 -3890 273 -2698 1854 -5090
4238 -6414 l155 -86 -470 -2 -469 -3 -3 -1222 -2 -1223 920 0 920 0 0 220 0
220 -675 0 -675 0 0 315 0 315 540 0 540 0 0 220 0 220 -540 0 -540 0 0 260 0
260 645 0 c633 0 645 0 645 19 0 19 3 19 38 7 l37 -13 3 -1017 2 -1016 568 0
c324 0 616 5 681 11 147 13 285 49 383 98 l78 38 0 -68 0 -69 240 0 240 0 0
760 c0 418 4 760 8 760 30 0 52 -69 242 -755 111 -401 203 -738 206 -747 5
-17 25 -18 247 -18 l242 0 195 708 c107 389 200 728 208 755 11 39 17 47 38
47 l24 0 0 -753 0 -754 171 -6 c95 -3 268 -3 385 0 l212 6 85 246 84 246 451
3 451 2 15 -52 c32 -111 134 -440 138 -443 4 -4 477 -8 756 -6 l212 1 0 1158
0 1158 55 27 c31 15 58 27 60 27 3 0 5 -533 5 -1185 l0 -1185 855 0 855 0 0
215 0 215 -610 0 -610 0 0 990 0 990 -207 0 -208 0 140 76 c1585 862 2857
2230 3600 3870 802 1771 954 3795 425 5672 -552 1962 -1814 3654 -3545 4754
-1049 667 -2252 1091 -3495 1232 -384 44 -958 64 -1325 46z m1025 -115 c850
-71 1635 -254 2390 -555 2227 -889 3973 -2730 4733 -4991 218 -647 343 -1257
409 -1999 18 -196 18 -1042 0 -1245 -114 -1322 -485 -2492 -1138 -3583 -790
-1318 -1981 -2431 -3321 -3101 l-123 -61 -235 0 -234 0 -3 -107 -3 -108 -115
-46 c-63 -25 -200 -76 -304 -113 -145 -51 -191 -64 -197 -54 -4 7 -41 106 -80
220 l-73 208 -142 0 -142 0 14 40 c39 112 -72 202 -172 141 -50 -30 -62 -83
-38 -163 4 -14 -4 -17 -52 -20 l-58 -3 -121 -339 c-95 -266 -126 -341 -141
-347 -20 -7 -328 -59 -352 -59 -9 0 -12 84 -12 375 l0 375 -176 0 c-162 0
-175 1 -170 18 16 52 17 74 6 107 -15 45 -61 75 -114 75 -33 0 -37 3 -31 17 5
10 24 65 42 123 49 147 82 218 114 238 15 9 43 38 63 63 19 26 58 60 85 76 79
45 215 167 287 256 99 124 197 297 248 439 73 202 168 359 290 476 l65 62 24
-24 c63 -63 194 -50 232 24 32 62 15 159 -35 197 -37 29 -51 23 -73 -30 -21
-50 -22 -51 -27 -23 -3 16 -11 31 -18 34 -18 6 -5 -60 14 -71 11 -6 12 -13 4
-28 -6 -10 -16 -19 -23 -19 -7 0 -29 -11 -50 -25 -20 -14 -42 -23 -47 -20 -6
3 -10 33 -10 66 0 53 3 63 33 96 29 31 41 37 89 41 53 4 56 6 63 36 4 17 9 42
10 56 5 47 12 63 30 76 10 8 15 17 12 21 -4 3 0 17 8 29 16 25 32 104 21 104
-20 0 -47 -23 -45 -38 4 -31 -14 -123 -22 -115 -11 12 -15 56 -6 70 4 7 3 22
-3 34 -9 17 -8 25 6 40 15 17 16 24 6 40 -7 11 -8 19 -2 19 5 0 25 13 43 30
77 67 63 213 -23 252 -27 11 -50 59 -27 55 16 -3 47 66 36 79 -7 8 -18 4 -39
-14 -22 -20 -27 -29 -18 -39 13 -16 -4 -17 -20 -1 -18 18 -15 49 3 42 23 -9
46 15 45 50 -1 17 2 43 6 58 6 24 3 27 -27 31 l-34 4 37 1 c33 2 40 6 53 39 9
21 23 46 33 56 9 11 16 21 15 23 -8 12 -1 24 13 24 21 0 144 126 144 147 0 10
-6 13 -16 9 -14 -5 -15 -4 -4 9 7 9 15 14 17 12 5 -6 78 65 78 76 0 6 8 11 17
13 29 4 218 138 218 155 0 9 8 23 18 31 30 26 188 108 195 101 4 -3 7 -2 7 4
0 6 7 13 14 16 10 4 13 1 10 -8 -5 -12 -1 -12 20 -2 14 7 27 22 30 33 3 12 20
28 38 35 37 15 132 18 163 5 11 -5 29 -8 40 -7 16 2 18 0 8 -10 -20 -20 -15
-29 15 -29 15 0 33 -5 40 -12 7 -7 12 -8 12 -2 0 7 21 9 54 6 44 -3 62 0 96
19 59 33 80 73 80 151 0 35 5 69 11 75 9 9 5 14 -14 19 -15 3 -24 10 -21 15 3
5 -2 9 -10 9 -17 0 -21 17 -8 36 4 6 23 14 44 18 20 4 39 13 42 22 3 8 10 13
15 10 5 -4 12 0 15 6 3 7 4 4 3 -7 -1 -14 4 -20 16 -19 9 1 17 -2 17 -7 0 -15
29 -10 48 9 18 17 27 20 68 29 26 6 96 -25 88 -38 -5 -9 21 -14 41 -9 6 2 37
8 69 14 33 7 61 16 63 22 2 5 -6 20 -17 32 -29 31 -25 47 17 60 46 14 52 9 30
-29 -20 -36 -22 -58 -4 -61 6 -1 92 -2 190 -3 134 0 176 3 173 12 -3 7 8 23
24 37 35 29 37 34 13 32 -13 -1 -19 8 -21 30 -3 26 6 40 50 85 29 30 68 61 85
68 l33 13 -25 20 c-56 44 -73 143 -35 205 30 50 72 67 152 60 60 -5 69 -4 78
13 5 10 10 27 10 37 0 10 11 34 24 54 14 20 29 51 33 70 6 24 19 39 43 51 18
9 42 31 53 48 10 16 23 30 28 30 6 0 21 24 34 53 21 43 22 53 10 55 -17 4 -21
42 -5 42 6 0 10 -4 10 -10 0 -5 7 -10 15 -10 9 0 20 20 30 54 26 88 53 134 94
160 27 17 43 38 56 72 16 43 17 57 5 160 -7 63 -9 129 -6 148 l6 34 37 -19
c72 -37 173 -15 208 44 27 45 27 136 -1 174 -12 15 -34 35 -50 43 -16 8 -31
16 -33 18 -3 1 6 13 19 27 19 20 21 28 12 52 -5 15 -10 38 -10 51 -1 12 -1 42
-2 67 -2 59 25 148 55 181 27 29 41 95 30 145 l-7 33 -13 -25 c-7 -13 -20 -59
-29 -102 -20 -88 -30 -97 -103 -97 -93 0 -143 55 -143 156 0 52 3 59 38 94 61
61 159 64 217 5 l24 -23 9 27 c30 83 38 128 29 152 -14 35 -37 185 -37 247 l0
53 -26 -20 c-39 -31 -95 -43 -145 -32 -117 26 -155 180 -65 259 59 51 131 54
200 7 l36 -24 0 27 c0 15 6 47 13 72 8 26 11 56 6 70 -8 28 -12 19 -10 -20 2
-24 2 -24 -14 5 -10 19 -12 31 -6 33 6 2 11 14 11 27 0 34 10 55 27 55 8 0 11
5 7 12 -4 7 -7 27 -6 45 2 30 0 33 -25 34 -17 1 -21 3 -10 6 9 2 17 13 17 24
0 10 11 26 25 35 20 13 23 19 14 30 -9 11 -6 19 15 35 27 22 35 54 14 62 -10
4 -10 7 0 18 6 7 12 23 12 35 0 31 17 39 30 14 6 -11 19 -20 29 -20 23 0 36
-52 20 -82 -32 -60 54 -10 122 71 31 36 80 102 109 146 59 90 149 274 157 320
3 17 12 38 21 48 12 13 13 20 4 29 -9 9 -12 7 -12 -8 -1 -24 -24 -56 -35 -46
-5 4 -5 -1 -1 -12 5 -16 3 -18 -21 -13 -86 17 -123 59 -123 140 0 91 46 137
137 137 62 0 107 -27 124 -74 7 -20 17 -36 21 -36 4 0 18 15 30 33 26 40 111
102 164 119 27 10 43 23 58 53 11 21 35 52 53 68 34 30 114 137 110 148 -1 3
4 13 11 22 8 9 11 22 7 29 -4 7 1 4 10 -7 13 -15 19 -16 22 -7 3 7 14 21 24
31 19 18 19 18 -10 19 -76 2 -127 62 -118 139 9 80 86 129 166 105 44 -14 59
-28 75 -76 l12 -35 21 42 c55 108 134 356 132 417 -1 25 0 47 0 50 1 3 4 39 6
80 5 78 -8 180 -24 190 -13 7 -30 85 -31 133 0 20 -4 45 -9 55 -17 34 -29 68
-51 152 -12 47 -27 103 -33 124 l-11 39 -17 -39 c-26 -61 -52 -79 -116 -79
-50 0 -57 3 -85 34 -28 31 -30 39 -26 89 4 45 10 60 32 79 15 13 34 23 42 23
8 0 14 4 14 9 0 15 -80 20 -190 12 -118 -8 -162 -2 -193 27 -13 12 -42 22 -72
25 -27 3 -51 6 -51 6 -1 1 -7 15 -14 32 -13 30 -82 75 -99 64 -12 -7 -68 41
-75 63 -3 9 -19 23 -34 30 -41 18 -169 146 -202 202 -9 16 -26 26 -44 28 -34
4 -118 64 -165 118 -39 44 -67 63 -96 64 -17 0 -16 -4 10 -25 17 -13 35 -24
41 -25 28 -1 54 -42 54 -87 0 -39 -5 -50 -38 -83 -48 -49 -96 -59 -148 -34
-54 27 -79 66 -79 123 0 59 25 99 75 119 l39 15 -35 23 c-19 13 -39 24 -44 24
-5 0 -30 13 -57 30 -74 46 -181 58 -315 36 -54 -9 -121 -16 -149 -16 -46 0
-49 -1 -35 -16 24 -24 19 -28 -10 -9 -15 9 -42 17 -61 17 -22 0 -51 11 -78 29
-62 42 -141 54 -87 13 14 -11 14 -13 2 -14 -37 -1 -189 33 -184 41 3 5 -3 9
-14 9 -10 0 -27 9 -37 20 -10 11 -23 20 -28 20 -6 0 -55 18 -110 41 -54 22
-111 39 -125 37 -24 -3 -27 -7 -24 -38 2 -33 2 -34 -13 -16 -8 11 -15 15 -15
8 0 -15 -62 -11 -67 5 -2 6 5 14 16 18 20 6 38 41 27 52 -11 11 -36 -7 -36
-25 0 -22 -23 -46 -33 -35 -4 3 -7 -2 -7 -11 0 -12 5 -16 15 -12 8 3 15 1 15
-3 0 -11 -25 -21 -50 -21 -11 0 -27 -11 -37 -25 -43 -60 -54 -70 -63 -56 -5 8
-16 11 -26 7 -13 -4 -11 0 6 14 56 45 70 64 70 94 l0 26 -42 -17 c-59 -23 -63
-29 -78 -105 -12 -59 -19 -73 -62 -115 -50 -49 -73 -55 -37 -10 12 16 15 27 9
27 -18 0 -3 86 26 142 13 26 24 54 24 62 0 9 6 13 13 11 24 -9 39 11 32 43
-10 49 -28 57 -63 27 -44 -37 -55 -30 -17 11 40 43 48 69 29 89 -8 8 -16 18
-17 22 -1 4 -4 7 -7 6 -3 -1 -5 18 -6 41 -1 52 -29 102 -66 119 -16 6 -28 18
-28 24 0 7 -9 13 -20 13 -11 0 -20 -7 -20 -15 0 -10 6 -12 18 -8 15 6 15 5 3
-11 -14 -16 -16 -16 -27 -2 -13 18 -46 21 -74 6 -13 -7 -21 -7 -25 1 -4 6 -18
-2 -36 -22 -20 -22 -29 -28 -29 -17 0 9 7 24 16 33 9 9 13 19 9 23 -3 4 -11
-1 -17 -11 -9 -18 -11 -17 -26 4 l-15 22 -10 -24 c-9 -22 -10 -22 -14 -4 -14
74 -13 72 -32 50 -31 -37 -46 -29 -42 25 0 8 -5 3 -12 -13 -16 -33 -29 -25
-21 12 l5 26 -25 -30 c-22 -26 -25 -27 -19 -7 5 22 -10 31 -22 12 -3 -5 -12
-10 -19 -10 -15 0 -10 46 7 68 7 8 5 12 -7 12 -10 0 -22 -13 -28 -31 -9 -25
-13 -28 -19 -16 -6 9 -17 13 -29 10 -15 -4 -20 0 -20 16 0 11 5 21 10 21 6 0
10 4 10 10 0 13 -32 1 -47 -18 -13 -16 -15 -13 -17 23 -1 12 -7 19 -16 16 -43
-10 -55 -6 -53 19 l3 25 -20 -25 c-19 -23 -21 -24 -31 -7 -8 14 -14 15 -24 7
-10 -9 -15 -6 -20 10 -6 20 -7 21 -21 3 -13 -16 -14 -17 -8 0 5 13 2 16 -10
11 -13 -5 -15 -2 -10 12 4 11 4 16 -1 12 -4 -4 -14 -3 -22 3 -9 9 -17 8 -27 0
-11 -10 -15 -8 -19 6 -4 17 -4 17 -12 -1 -5 -11 -3 -26 4 -37 9 -15 8 -19 -2
-19 -7 0 -18 14 -25 32 -11 31 -12 31 -27 13 -11 -15 -14 -16 -15 -5 0 8 -9
21 -20 28 -17 10 -20 10 -20 -5 0 -15 -2 -16 -10 -3 -8 13 -11 11 -16 -7 -7
-24 -19 -30 -29 -13 -13 21 -27 9 -21 -17 6 -25 5 -26 -7 -10 -20 24 -35 21
-49 -8 -6 -14 -17 -25 -24 -25 -24 0 -43 -50 -32 -83 8 -20 7 -32 -1 -40 -6
-6 -11 -20 -11 -30 0 -14 -5 -17 -16 -13 -14 5 -15 0 -9 -40 3 -26 9 -53 12
-60 3 -8 0 -14 -7 -14 -13 0 -140 -119 -140 -131 0 -4 29 22 64 57 35 35 71
64 79 64 9 0 18 6 20 13 3 7 6 5 6 -5 1 -15 10 -18 49 -18 26 0 104 -3 175 -7
l127 -6 0 33 c0 24 9 42 38 70 97 97 262 38 262 -93 0 -29 28 -37 123 -37 l60
0 -19 -22 c-15 -19 -16 -20 -1 -9 15 12 17 11 18 -5 1 -15 3 -13 10 6 7 21 8
19 4 -10 -3 -18 -9 -36 -14 -40 -4 -3 -11 -36 -14 -75 -15 -157 -57 -562 -62
-596 -5 -29 -12 -38 -39 -47 -17 -7 -41 -19 -51 -27 -12 -9 -1 -7 24 5 l44 22
438 -148 c242 -82 439 -151 439 -154 0 -4 -12 -11 -27 -18 -23 -9 -23 -10 -4
-5 18 4 23 2 19 -8 -3 -8 -76 -161 -162 -340 l-157 -326 -50 -12 c-28 -7 -48
-15 -46 -18 3 -2 30 3 61 12 l56 17 143 -78 c78 -42 152 -83 165 -91 22 -14
22 -13 16 26 -8 53 10 104 51 139 64 57 134 64 203 22 49 -30 72 -75 72 -141
0 -69 -27 -115 -86 -144 l-40 -21 117 -64 c65 -36 115 -68 113 -72 -3 -5 -17
-9 -32 -9 -24 -2 -24 -2 -4 -6 21 -4 19 -10 -41 -86 -35 -45 -137 -176 -226
-292 -132 -172 -165 -210 -184 -208 -21 3 -21 2 -2 -6 11 -5 74 -52 140 -105
66 -52 139 -104 162 -115 23 -11 45 -26 49 -32 5 -8 2 -10 -7 -5 -19 10 -4 -2
166 -134 l148 -115 -69 -6 -69 -5 60 -2 60 -2 -75 -73 c-68 -65 -356 -338
-470 -444 -24 -23 -42 -44 -40 -46 3 -3 61 49 129 114 116 112 125 119 144
106 48 -31 62 -65 62 -142 0 -79 -13 -108 -68 -149 -31 -23 -124 -33 -156 -17
-11 7 -21 10 -21 8 0 -2 115 -111 256 -243 l256 -239 -34 -6 c-27 -5 -28 -7
-8 -8 25 -1 25 -2 -11 -34 -320 -286 -547 -483 -563 -489 -16 -5 -17 -6 -4 -7
10 -1 23 -11 29 -23 l12 -22 8 21 c14 38 84 66 151 61 131 -10 196 -129 136
-248 -24 -47 -82 -94 -105 -85 -12 4 50 -90 199 -304 21 -30 35 -58 31 -62 -5
-4 -60 -29 -123 -57 -63 -27 -239 -104 -391 -170 -182 -80 -284 -120 -300
-117 -14 3 -11 0 8 -6 34 -12 12 39 249 -574 41 -104 74 -193 74 -198 0 -4
-22 4 -50 18 -27 14 -53 25 -57 25 -4 -1 12 -12 37 -25 44 -23 45 -23 20 -32
-14 -5 -110 -32 -213 -59 -153 -40 -182 -50 -155 -55 93 -16 152 -106 134
-204 -11 -59 -77 -121 -139 -130 -63 -10 -128 15 -164 62 -55 72 -37 209 32
239 51 22 16 16 -134 -25 l-143 -40 -187 121 c-102 67 -229 149 -281 183 -123
79 -120 78 -120 68 1 -4 20 -20 43 -34 131 -82 523 -333 531 -339 8 -8 30
-152 81 -525 14 -104 28 -205 31 -223 3 -17 2 -32 -1 -32 -4 0 -30 19 -58 43
-92 77 -147 120 -147 114 0 -3 41 -38 92 -78 l91 -74 -33 -6 c-19 -4 -86 -11
-149 -15 -84 -6 -105 -10 -76 -14 l40 -6 -33 -21 c-62 -39 -166 -37 -207 3
-13 14 -33 14 -202 -1 l-187 -16 -130 128 -131 128 133 -136 133 -135 -36
-173 c-19 -96 -35 -175 -35 -177 0 -2 6 -1 14 2 28 11 86 -88 86 -148 0 -11 5
-15 15 -12 11 4 13 2 9 -9 -8 -22 -44 -9 -45 17 0 11 -3 15 -6 8 -3 -9 -9 -10
-18 -2 -9 8 -14 6 -18 -9 -2 -10 -1 -25 4 -32 12 -21 -8 -36 -41 -31 -22 3
-30 10 -31 26 -1 19 -2 19 -9 -4 -13 -41 -11 -46 23 -48 17 -1 41 -5 51 -8 18
-6 18 -8 -5 -25 -13 -10 -39 -21 -56 -25 -37 -7 -39 -11 -69 -166 l-16 -87
-48 19 c-27 11 -120 48 -208 84 -87 35 -246 92 -353 126 -107 34 -242 77 -301
96 -59 19 -109 34 -112 34 -3 0 -6 -13 -6 -30 0 -28 -2 -30 -41 -30 -24 0 -52
-8 -67 -19 -15 -10 -38 -22 -52 -26 -14 -4 -33 -14 -42 -22 -16 -15 -16 -17 2
-41 26 -32 28 -127 4 -161 -15 -21 -15 -25 2 -57 10 -19 24 -34 31 -34 6 0 25
-12 43 -26 88 -74 83 -202 -11 -261 -18 -12 -46 -34 -61 -49 -28 -28 -28 -28
-8 -49 28 -30 28 -133 1 -166 -19 -23 -19 -24 0 -48 10 -13 19 -34 19 -46 0
-16 9 -26 30 -35 65 -27 94 -108 67 -187 -14 -42 -14 -42 12 -52 34 -13 55
-31 69 -58 15 -27 16 -187 2 -214 -13 -23 -87 -62 -190 -99 -41 -15 -76 -32
-77 -36 -2 -5 16 -8 39 -6 104 7 178 -106 131 -198 -23 -43 -76 -80 -117 -80
-54 1 -115 35 -131 75 l-15 35 -42 -30 c-71 -52 -155 -72 -293 -70 -66 1 -141
-1 -166 -5 -87 -14 -151 38 -155 125 -2 25 -10 62 -18 82 -9 21 -16 51 -16 68
0 16 -4 30 -9 30 -28 0 -178 67 -207 92 -34 30 -34 31 -34 117 0 49 6 97 13
111 17 33 74 70 108 70 26 0 28 2 19 26 -15 39 -12 96 8 135 17 34 17 36 0 65
-14 21 -18 44 -16 82 2 28 -1 52 -5 52 -5 0 -29 -20 -53 -45 -24 -25 -47 -44
-51 -43 -11 2 -73 -35 -73 -44 0 -4 9 -10 20 -13 21 -7 27 -30 11 -40 -5 -3
-12 -1 -16 5 -3 5 -17 10 -31 10 -18 0 -24 -5 -24 -22 0 -21 -2 -20 -20 9 -30
50 -65 68 -131 67 -97 -1 -144 -48 -144 -145 0 -69 21 -104 81 -134 48 -24 48
-48 -2 -71 -24 -12 -36 -26 -43 -51 -6 -19 -19 -45 -31 -56 -11 -12 -46 -52
-76 -89 -32 -40 -63 -68 -74 -68 -24 0 -50 -26 -50 -51 0 -24 -68 -109 -87
-109 -7 0 -13 -3 -13 -7 1 -23 22 -33 78 -38 l63 -6 15 36 c8 20 22 35 32 36
9 1 32 2 49 4 19 1 37 -3 44 -11 16 -20 26 -17 33 9 10 42 60 79 113 84 96 8
158 -55 150 -151 -4 -42 -10 -55 -41 -83 -19 -18 -43 -33 -52 -33 -15 0 -123
95 -152 133 -32 43 -45 -9 -16 -69 19 -39 83 -74 137 -74 20 0 37 -4 37 -8 0
-5 15 -26 34 -48 31 -36 33 -43 28 -92 -4 -44 -2 -52 12 -52 33 0 106 55 106
80 0 42 81 -20 112 -86 23 -49 80 -98 95 -83 7 7 21 0 41 -19 21 -20 47 -32
77 -36 25 -4 45 -10 45 -14 0 -4 -13 -20 -30 -35 -53 -50 -53 -142 1 -193 27
-25 38 -29 90 -29 55 0 63 3 89 31 15 17 29 37 32 44 5 15 37 1 69 -31 10 -10
22 -19 27 -19 8 0 37 -69 47 -111 8 -34 70 -94 115 -113 20 -8 43 -23 53 -34
18 -19 17 -21 -17 -54 -20 -19 -36 -42 -36 -52 0 -9 -3 -16 -7 -16 -5 0 -21
-11 -37 -23 -29 -23 -29 -24 -30 -141 -2 -96 1 -119 14 -126 8 -5 21 -13 28
-18 10 -7 -8 -91 -84 -395 l-96 -387 -234 0 c-212 0 -234 2 -242 17 -5 10 -54
197 -108 415 -95 382 -100 398 -122 398 -20 0 -22 3 -15 23 4 12 8 43 8 69 0
38 -5 53 -26 74 -30 30 -98 42 -141 25 -51 -19 -75 -91 -55 -163 l7 -28 -215
0 -216 0 8 23 c4 12 8 43 8 69 0 65 -33 99 -102 105 -61 5 -93 -11 -116 -60
-46 -92 19 -178 126 -168 14 2 17 -6 17 -55 l0 -56 -22 16 c-47 34 -166 86
-243 106 -49 13 -129 23 -206 27 l-126 6 10 33 c22 73 -33 154 -104 154 -42 0
-86 -20 -103 -45 -21 -32 -21 -103 1 -127 16 -17 1 -18 -450 -18 l-467 0 0
-145 c0 -80 -3 -145 -7 -145 -4 0 -22 5 -40 12 l-33 12 0 138 0 138 -311 0
-310 0 -172 91 c-2084 1105 -3586 3023 -4146 5294 -160 650 -233 1267 -233
1960 0 494 32 900 108 1350 350 2080 1470 3924 3159 5198 992 749 2136 1258
3355 1496 388 75 726 115 1225 145 143 9 812 -4 985 -19z m1705 -3455 c3 -5 1
-10 -4 -10 -6 0 -11 5 -11 10 0 6 2 10 4 10 3 0 8 -4 11 -10z m961 -282 c-21
-30 -20 -36 7 -34 16 1 23 -5 25 -21 2 -15 8 -20 20 -17 14 5 13 3 -2 -10 -19
-16 -19 -16 2 -16 11 0 25 8 31 18 7 13 9 8 7 -20 -4 -49 -30 -86 -71 -104
-126 -52 -246 56 -205 182 11 31 14 34 22 20 5 -10 7 -28 4 -41 -3 -13 -1 -27
4 -30 16 -10 40 14 37 37 -3 25 43 61 66 52 9 -3 17 -14 17 -23 1 -11 7 -8 22
12 24 33 37 29 14 -5z m16 -560 c18 -7 25 -15 21 -26 -4 -10 -3 -13 6 -8 18
12 50 -22 61 -65 23 -84 -33 -179 -115 -195 -117 -22 -208 64 -191 181 9 59
46 101 104 119 47 14 64 14 114 -6z m678 -14 c39 -24 62 -69 63 -123 1 -87
-46 -141 -130 -148 -60 -5 -108 18 -141 67 -43 64 -18 173 49 207 35 18 126
16 159 -3z m609 -2 c73 -37 99 -117 62 -190 -28 -56 -68 -76 -139 -70 -48 4
-60 10 -89 41 -29 32 -33 44 -33 89 0 116 100 181 199 130z m-605 -650 c63
-37 89 -146 50 -213 -22 -39 -93 -79 -139 -79 -16 0 -49 9 -73 20 -93 42 -109
184 -29 259 47 43 129 48 191 13z m586 8 c32 0 87 -56 98 -100 21 -82 -21
-159 -97 -180 -113 -30 -205 51 -187 164 11 68 41 100 111 117 17 4 36 5 43 3
8 -2 22 -4 32 -4z m680 -18 c36 -18 80 -82 80 -117 0 -11 -9 -39 -20 -62 -62
-138 -260 -94 -260 57 0 108 103 171 200 122z m681 -28 c44 -42 55 -94 30
-148 -31 -70 -99 -94 -176 -62 -67 28 -89 136 -38 196 34 41 58 51 111 46 31
-3 52 -12 73 -32z m-1350 -609 c15 -4 41 -22 60 -41 28 -29 33 -42 36 -91 5
-68 -16 -111 -69 -143 -67 -41 -174 -17 -211 47 -37 65 -18 172 38 209 29 19
83 33 105 28 8 -2 27 -6 41 -9z m687 -25 c36 -22 62 -72 62 -120 0 -44 -35
-107 -70 -125 -37 -19 -103 -19 -144 0 -88 42 -94 203 -8 249 40 22 120 20
160 -4z m649 -5 c35 -23 63 -74 63 -115 0 -41 -29 -92 -65 -116 -34 -22 -126
-15 -156 12 -51 45 -62 121 -26 175 43 65 122 84 184 44z m633 -14 c52 -37 65
-111 30 -169 -23 -37 -54 -52 -108 -52 -84 0 -138 77 -113 161 13 43 27 57 78
74 43 15 77 11 113 -14z m197 7 c-3 -8 -6 -5 -6 6 -1 11 2 17 5 13 3 -3 4 -12
1 -19z m-2132 -601 c82 -47 99 -175 31 -243 -67 -67 -160 -67 -234 0 -32 30
-36 39 -39 92 -5 71 16 118 66 151 46 31 121 31 176 0z m660 -13 c76 -50 76
-183 -1 -243 -36 -29 -126 -29 -172 -1 -62 38 -80 146 -35 209 45 60 144 77
208 35z m628 2 c50 -21 70 -50 75 -110 6 -72 -16 -112 -74 -138 -98 -43 -194
20 -194 127 0 51 24 91 68 114 44 24 81 26 125 7z m-1851 -53 c15 -35 19 -57
14 -91 -13 -96 -71 -147 -166 -146 -102 0 -102 3 13 152 56 72 106 132 110
132 4 0 17 -21 29 -47z m527 -573 c49 -14 89 -57 106 -112 12 -42 12 -54 -1
-90 -26 -75 -84 -118 -159 -118 -46 0 -84 20 -123 64 -38 43 -48 92 -31 143
19 58 39 84 84 104 46 21 75 23 124 9z m711 -45 c58 -56 62 -149 8 -211 -38
-43 -85 -56 -148 -43 -70 15 -103 53 -108 127 -8 110 46 166 155 160 53 -3 67
-8 93 -33z m-662 -602 c91 -67 86 -221 -8 -276 -72 -43 -133 -39 -199 10 -95
72 -76 228 34 279 43 20 138 13 173 -13z m643 -9 c61 -31 85 -121 51 -197 -43
-98 -179 -113 -254 -29 -28 33 -30 39 -26 104 3 60 7 72 35 99 47 48 126 57
194 23z m86 -106 c-3 -8 -6 -5 -6 6 -1 11 2 17 5 13 3 -3 4 -12 1 -19z m-63
-354 c3 -8 2 -12 -4 -9 -6 3 -10 10 -10 16 0 14 7 11 14 -7z m-685 -182 c149
-75 87 -313 -81 -312 -144 1 -220 169 -126 276 18 20 41 40 52 44 37 15 119
11 155 -8z m1 -657 c36 -19 65 -59 79 -111 21 -79 -34 -174 -112 -195 -84 -22
-166 14 -199 88 -35 80 -5 182 65 217 41 20 129 21 167 1z m-10 -630 c29 -15
62 -50 79 -83 29 -56 0 -163 -54 -198 -67 -44 -166 -34 -214 22 -64 72 -62
168 6 231 53 51 118 61 183 28z m620 -5 c0 -5 -8 -10 -18 -10 -35 0 -100 -96
-122 -179 -17 -63 -35 -38 -35 49 0 59 3 72 25 95 14 15 39 34 55 41 35 16 95
18 95 4z m-1150 -138 c0 -75 -44 -142 -108 -163 -46 -15 -104 -13 -139 4 -35
18 -72 59 -58 64 6 2 69 30 140 62 152 69 165 72 165 33z m-107 -506 c42 -17
83 -66 98 -116 25 -83 -42 -190 -127 -204 -112 -19 -204 54 -204 163 0 127
117 206 233 157z m637 -18 c55 -29 84 -75 84 -138 0 -93 -64 -154 -161 -154
-79 0 -139 52 -150 132 -7 54 1 83 34 123 52 61 120 74 193 37z m-615 -656
c71 -40 95 -162 46 -231 -44 -62 -138 -88 -200 -57 -39 21 -88 79 -96 114 -15
72 46 175 115 192 44 11 96 4 135 -18z m-679 -621 c23 -10 51 -32 62 -49 l22
-30 -45 -6 c-25 -4 -49 -5 -55 -1 -13 8 -61 -25 -54 -36 3 -5 -8 -14 -25 -20
-17 -6 -31 -15 -31 -20 0 -5 -7 -9 -15 -9 -8 0 -26 -5 -40 -12 -21 -9 -25 -17
-20 -36 11 -43 -12 -14 -25 32 -16 57 -6 98 33 143 56 63 119 78 193 44z
m-141 -270 c-5 -18 -10 -20 -21 -10 -15 12 -19 41 -7 53 13 13 35 -21 28 -43z
m-380 -21 c3 -5 1 -10 -4 -10 -6 0 -11 5 -11 10 0 6 2 10 4 10 3 0 8 -4 11
-10z m-1444 -991 c74 -25 116 -93 106 -174 -12 -112 -130 -170 -235 -116 -48
25 -71 54 -79 104 -21 129 88 226 208 186z m641 -45 c-4 -37 -1 -49 12 -56 9
-5 14 -14 10 -19 -3 -5 -2 -39 1 -75 6 -49 11 -64 21 -60 8 3 14 1 14 -4 0 -6
-7 -10 -15 -10 -8 0 -19 -9 -25 -20 -13 -25 -63 -27 -120 -4 -54 22 -84 72
-84 139 0 93 60 155 150 155 l42 0 -6 -46z m-612 -639 c60 -31 83 -133 46
-203 -19 -36 -81 -71 -126 -72 -41 0 -113 42 -129 75 -33 68 -9 169 47 199 35
20 125 20 162 1z m-1880 -128 c0 -41 -28 -95 -60 -119 -32 -23 -112 -38 -92
-17 6 7 12 23 12 36 0 13 6 23 13 23 16 0 87 76 87 94 0 15 20 26 33 19 4 -2
7 -19 7 -36z m1854 -531 c121 -50 104 -233 -24 -261 -20 -4 -30 -13 -30 -25 0
-28 -20 -67 -39 -75 -44 -17 -60 -31 -64 -60 -2 -16 -1 -32 4 -35 4 -3 4 -12
-1 -20 -8 -13 -10 -12 -10 2 0 12 -8 16 -30 16 -29 -1 -29 -2 -28 -52 2 -78
-44 -145 -82 -121 -6 3 -13 -2 -17 -12 -4 -10 -9 -20 -13 -23 -3 -3 -19 -22
-34 -42 -16 -22 -37 -38 -48 -38 -11 0 -28 -10 -37 -21 -17 -21 -18 -21 -44
-5 -33 22 -52 13 -35 -17 13 -23 12 -62 -3 -87 -7 -13 -9 -13 -10 0 -1 8 -1
19 0 23 1 5 -3 6 -8 2 -6 -3 -7 -13 -4 -23 6 -15 5 -15 -12 1 -10 10 -25 16
-34 13 -82 -27 -96 -28 -133 -13 -126 53 -85 247 52 247 61 0 136 -62 112 -93
-19 -25 -21 -60 -4 -73 16 -12 16 -13 0 -19 -10 -4 -18 -15 -18 -24 0 -12 5
-10 20 9 14 17 19 37 18 65 -3 33 2 44 24 63 22 19 26 29 22 52 -8 36 15 90
38 90 9 0 20 5 23 10 3 6 19 10 35 10 24 0 29 5 32 27 2 20 11 29 37 38 22 7
30 14 23 19 -20 12 -14 57 8 63 17 4 20 14 20 54 0 27 5 49 10 49 9 0 14 -17
13 -47 -1 -7 3 -13 8 -13 5 0 6 19 3 43 -8 53 17 120 42 115 9 -2 19 3 22 11
3 10 0 12 -12 8 -10 -4 -19 -1 -22 8 -4 8 -13 15 -22 15 -8 0 -12 3 -9 7 4 3
2 12 -3 18 -6 8 -7 27 -2 51 l8 39 7 -33 c7 -34 28 -62 46 -62 6 0 11 -7 11
-16 0 -27 30 -82 54 -97 11 -8 37 -18 55 -22 l34 -7 -6 46 c-7 51 -2 60 13 20
13 -33 27 -23 35 26 5 29 3 44 -8 55 -21 20 -39 19 -35 -2 2 -12 -8 -19 -41
-28 -25 -6 -47 -18 -50 -27 -4 -12 -11 -14 -20 -9 -7 5 -11 15 -9 22 3 8 -1
22 -9 31 -29 33 16 112 77 137 35 14 66 13 104 -3z m-1283 -641 c60 -31 94
-136 49 -148 -25 -6 -130 85 -130 113 0 11 -4 22 -10 25 -42 26 42 35 91 10z
m759 -25 c0 -5 -4 -10 -10 -10 -5 0 -10 5 -10 10 0 6 5 10 10 10 6 0 10 -4 10
-10z m-220 -653 c0 -2 -12 -14 -27 -28 -24 -22 -24 -13 0 19 8 11 27 17 27 9z
m-40 -174 c0 -2 -30 -3 -67 -3 l-68 1 55 50 54 49 13 -47 c6 -27 12 -49 13
-50z m2538 -1720 l-3 -466 -288 817 c-158 450 -287 822 -285 827 2 5 73 33
158 63 85 29 214 76 285 103 l130 50 3 -463 c1 -255 1 -674 0 -931z m-4843
1296 c142 -26 205 -101 205 -243 0 -118 -34 -184 -120 -231 l-55 -30 -382 -3
-383 -3 0 261 0 260 338 0 c202 0 362 -4 397 -11z m3924 -583 c78 -247 144
-460 147 -473 l6 -23 -311 0 c-171 0 -311 3 -311 6 0 5 293 920 306 954 5 13
6 13 14 0 4 -8 72 -217 149 -464z m-1543 207 c-10 -10 -19 5 -10 18 6 11 8 11
12 0 2 -7 1 -15 -2 -18z m812 -15 c-3 -7 -79 -220 -169 -473 l-164 -460 -3
444 c-1 244 -1 445 1 447 4 4 287 51 316 53 15 1 21 -4 19 -11z m-1310 -123
c4 -4 -202 -825 -208 -825 -5 0 -211 816 -210 831 0 5 412 0 418 -6z m-1388
-171 c0 -19 -4 -33 -9 -30 -4 3 -21 10 -36 16 l-29 11 30 19 c41 26 44 25 44
-16z m-404 -270 c77 -32 120 -69 151 -132 24 -50 28 -69 28 -148 0 -84 -3 -96
-35 -160 -25 -50 -49 -79 -85 -106 -95 -72 -97 -72 -512 -76 l-373 -3 0 326 0
326 388 -3 c366 -3 390 -4 438 -24z"/>
<path d="M10040 18621 c0 -17 52 -51 78 -51 30 0 94 38 86 51 -7 12 -164 12
-164 0z"/>
<path d="M10710 18600 c30 -24 90 -26 130 -5 17 9 30 18 30 20 0 3 -42 5 -92
5 l-93 0 25 -20z"/>
<path d="M8113 18165 c-17 -7 -37 -23 -43 -36 -18 -32 -15 -115 4 -144 23 -35
85 -51 136 -36 98 29 108 178 15 217 -42 17 -71 17 -112 -1z"/>
<path d="M8772 18165 c-59 -26 -78 -118 -37 -181 38 -59 157 -53 195 9 67 109
-39 224 -158 172z"/>
<path d="M9404 18171 c-49 -21 -74 -95 -54 -156 29 -88 161 -102 211 -23 28
46 22 120 -14 155 -28 28 -104 41 -143 24z"/>
<path d="M10065 18171 c-43 -19 -60 -50 -60 -112 0 -74 29 -108 97 -116 87
-10 145 48 135 135 -7 62 -40 94 -104 98 -26 2 -57 0 -68 -5z"/>
<path d="M10712 18160 c-18 -11 -37 -32 -43 -48 -17 -42 -5 -110 24 -139 29
-29 97 -41 139 -24 35 13 68 66 68 109 0 98 -103 154 -188 102z"/>
<path d="M11355 18171 c-43 -18 -60 -50 -60 -112 0 -74 29 -108 97 -116 108
-12 174 92 118 185 -29 47 -97 66 -155 43z"/>
<path d="M12013 18165 c-61 -26 -80 -117 -39 -180 36 -54 154 -55 189 -1 43
65 23 156 -39 182 -41 17 -70 17 -111 -1z"/>
<path d="M12693 18170 c-45 -10 -61 -26 -75 -71 -29 -98 53 -180 148 -149 48
16 74 53 74 106 0 24 -5 54 -11 67 -18 40 -78 61 -136 47z"/>
<path d="M7483 18149 c-70 -34 -79 -122 -18 -179 31 -29 108 -32 148 -5 54 35
59 135 10 181 -32 30 -82 31 -140 3z"/>
<path d="M8084 17859 c-5 -8 -27 -10 -69 -6 l-63 6 19 -39 c11 -21 19 -43 19
-49 0 -18 -49 -68 -79 -81 -17 -7 -34 -24 -39 -40 -12 -32 -52 -46 -103 -35
-26 6 -30 4 -27 -11 2 -15 -5 -20 -32 -24 -26 -4 -35 -11 -40 -30 -5 -20 -13
-26 -41 -28 l-36 -3 34 -34 c27 -27 33 -41 33 -74 0 -103 -80 -156 -175 -117
-48 20 -69 66 -61 131 l6 52 -40 13 c-38 13 -41 12 -64 -13 -16 -18 -35 -27
-54 -27 -24 0 -31 -5 -35 -27 -3 -15 -1 -38 5 -52 13 -36 3 -64 -29 -79 -26
-12 -30 -10 -90 53 -67 68 -97 90 -112 80 -5 -3 -13 5 -16 17 -11 37 -45 67
-83 74 -44 8 -109 -11 -122 -36 -10 -19 -12 -19 -35 -4 -20 13 -38 15 -89 9
-59 -6 -65 -5 -71 14 -3 12 -15 26 -26 31 -37 20 -55 -15 -19 -38 11 -7 20
-18 20 -26 0 -17 91 -112 116 -121 11 -3 29 -19 42 -35 18 -24 21 -33 12 -49
-18 -36 0 -129 38 -193 34 -58 39 -92 17 -140 -5 -14 -2 -18 13 -18 12 0 24
-4 27 -10 3 -5 0 -10 -9 -10 -8 0 -26 -14 -40 -31 -21 -24 -26 -41 -26 -82 1
-29 7 -63 15 -77 26 -46 19 -70 -37 -122 -29 -26 -54 -48 -56 -48 -2 0 -2 9 0
20 2 10 0 19 -4 20 -5 0 -12 0 -16 0 -4 0 -27 -18 -50 -40 -26 -25 -51 -40
-66 -40 -14 0 -41 -9 -61 -20 -20 -11 -42 -20 -50 -20 -8 0 -17 -12 -21 -27
-10 -49 -13 -53 -39 -53 -19 0 -29 -9 -42 -37 -19 -38 -47 -62 -59 -50 -4 4
-1 25 6 47 15 46 7 61 -32 64 -24 2 -92 -27 -103 -44 -3 -5 -20 -16 -38 -24
-27 -12 -46 -13 -99 -7 -4 1 -48 37 -97 80 -87 77 -92 79 -123 70 -18 -5 -34
-9 -34 -9 -1 0 -4 42 -6 93 -2 71 -8 99 -23 121 -14 21 -19 47 -20 92 0 55 -4
67 -26 90 -49 49 -159 40 -189 -15 -15 -28 -12 -114 4 -136 13 -18 16 -17 57
28 59 65 96 69 123 13 l19 -39 -28 -24 c-25 -22 -35 -24 -84 -19 -65 6 -74 7
-120 3 -30 -2 -37 2 -50 28 -9 16 -23 35 -31 42 -12 10 -17 7 -28 -19 -11 -26
-11 -33 5 -50 17 -19 15 -19 -212 -14 -127 3 -239 6 -250 6 -23 2 -63 -5 -85
-14 -12 -5 -15 -28 -15 -114 l0 -107 60 -3 c56 -2 121 -7 137 -11 15 -2 40
-64 35 -88 -2 -13 0 -26 4 -29 5 -3 9 -9 9 -14 0 -14 -65 -4 -94 15 -24 16
-28 16 -52 0 -14 -9 -28 -14 -31 -11 -3 3 -15 0 -27 -6 -11 -7 -41 -15 -66
-18 l-45 -5 -3 -131 -3 -132 53 -45 c29 -24 63 -50 76 -56 28 -15 43 -50 31
-73 -10 -19 15 -74 43 -95 18 -14 20 -23 19 -95 -1 -44 1 -47 33 -58 62 -20
93 -80 74 -146 -15 -57 -49 -84 -103 -84 -29 0 -45 4 -45 13 0 6 9 59 20 116
11 58 18 107 15 109 -11 12 -86 -21 -101 -43 -39 -59 -22 -159 31 -183 14 -7
25 -20 25 -29 0 -10 -17 -111 -38 -225 l-38 -207 33 29 c42 37 89 46 136 26
94 -39 103 -184 15 -232 -64 -36 -163 0 -184 66 -14 41 -15 37 -39 -102 -19
-107 -31 -127 -65 -106 -16 10 -22 10 -28 1 -11 -17 -47 8 -47 33 0 20 -31 27
-57 13 -13 -7 -18 -6 -18 3 0 9 -3 9 -10 -2 -7 -11 -12 -12 -17 -4 -5 7 -22 9
-40 7 -23 -4 -38 -15 -52 -39 -11 -19 -26 -34 -33 -35 -78 -5 -112 -10 -117
-17 -6 -9 -76 -22 -152 -27 -36 -3 -62 -14 -112 -49 -36 -25 -71 -46 -77 -46
-6 0 -26 -15 -45 -32 -56 -55 -69 -63 -110 -73 -24 -6 -44 -18 -49 -30 -9 -21
-9 -21 -47 -2 -60 30 -130 12 -157 -40 -15 -28 -15 -95 -1 -127 14 -29 65 -56
107 -56 l31 0 -24 -42 c-26 -45 -32 -83 -16 -93 6 -3 13 -26 17 -52 6 -41 4
-49 -16 -65 -12 -10 -31 -18 -41 -18 -18 0 -124 -74 -146 -102 -20 -25 -25
-87 -8 -110 24 -35 18 -46 -28 -53 -39 -6 -43 -9 -39 -30 2 -12 -1 -26 -8 -30
-13 -8 55 -85 76 -85 22 0 25 -30 3 -39 -20 -7 -20 -9 15 -46 20 -21 36 -45
36 -55 0 -30 28 -75 60 -93 19 -11 30 -26 30 -40 0 -29 10 -43 37 -51 40 -13
35 -33 -12 -45 -53 -13 -82 -42 -91 -88 -10 -54 4 -99 38 -128 29 -24 39 -27
90 -23 75 6 103 28 35 28 -26 0 -47 4 -47 8 0 4 18 27 40 50 48 50 52 84 13
124 -22 23 -24 28 -9 28 28 0 74 -53 82 -94 4 -25 1 -51 -9 -77 -15 -38 -15
-39 6 -39 25 0 144 -24 169 -35 10 -4 20 -23 24 -43 4 -21 15 -47 24 -60 10
-12 16 -31 13 -42 -5 -19 0 -20 154 -20 l159 0 32 30 c18 17 38 30 45 30 6 0
21 11 33 25 27 32 136 116 142 110 3 -2 -3 -16 -12 -30 -16 -24 -16 -29 -2
-50 14 -21 13 -24 -4 -40 -19 -17 -20 -33 -20 -222 0 -186 5 -225 25 -193 4 6
18 0 37 -15 37 -31 50 -31 116 0 79 36 92 34 92 -16 0 -89 52 -139 145 -139
80 0 127 38 143 117 7 35 10 37 50 38 38 1 41 -1 36 -22 -5 -19 -2 -23 17 -23
13 0 35 6 49 13 14 7 43 19 65 26 27 9 47 24 63 49 41 66 49 72 91 78 l42 6
-25 -37 c-33 -48 -42 -97 -26 -148 23 -79 105 -128 183 -111 87 18 127 67 127
152 0 102 -53 162 -144 162 -50 0 -59 12 -23 31 12 7 39 25 60 41 21 17 44 27
53 24 17 -7 78 30 114 69 14 15 42 38 62 51 72 46 317 86 367 59 23 -12 27
-10 53 19 26 30 28 30 45 13 12 -12 18 -37 21 -80 6 -108 5 -117 -12 -136 -10
-11 -20 -38 -23 -60 -5 -35 -8 -39 -24 -31 -28 16 -127 12 -165 -6 -51 -24
-79 -77 -79 -149 0 -42 6 -70 20 -93 23 -39 104 -82 154 -82 38 0 17 18 300
-250 84 -80 157 -146 162 -148 5 -2 9 -29 9 -61 0 -45 6 -66 27 -99 l27 -41
30 23 c16 12 34 29 39 37 10 16 -39 66 -368 375 -99 93 -182 172 -183 177 -2
4 -10 14 -18 21 -12 13 -7 20 36 53 31 24 53 48 56 66 4 15 10 30 14 32 11 7
0 48 -16 61 -10 8 -12 18 -6 35 l9 23 17 -26 c9 -14 20 -44 24 -68 l7 -42 145
114 c80 62 195 151 255 198 61 46 102 81 93 77 -16 -6 -70 61 -431 530 l-58
76 86 48 c48 27 131 72 184 101 93 49 97 52 80 69 -19 19 -39 79 -39 119 0 14
10 46 23 70 63 126 264 115 308 -17 l11 -34 56 31 c32 17 58 26 60 20 2 -5 8
-10 14 -10 7 0 7 4 0 13 -5 6 -64 127 -130 268 -66 141 -138 292 -161 337 -28
56 -37 82 -28 85 6 3 3 6 -7 6 -13 1 -16 4 -10 10 7 8 683 240 835 287 l47 15
123 -66 c67 -35 124 -63 126 -61 2 1 -48 31 -110 64 -62 34 -120 67 -130 74
-13 10 -25 75 -57 313 -54 401 -59 439 -56 442 1 2 22 -11 47 -28 24 -17 33
-21 19 -9 -66 57 -82 70 -85 70 -1 0 0 -22 3 -48 4 -44 2 -49 -22 -60 -15 -7
-48 -12 -74 -12 -112 0 -178 99 -138 205 21 54 53 81 105 90 94 16 170 -38
179 -126 l5 -51 101 6 c260 17 251 15 253 47 6 78 65 129 151 129 83 0 142
-42 157 -112 l7 -31 73 6 74 5 223 -215 c123 -119 257 -248 298 -287 76 -71
29 -25 -327 328 -106 104 -193 193 -193 197 0 12 140 710 151 751 l9 36 53
-15 c28 -8 83 -14 120 -14 64 1 138 -21 123 -36 -3 -4 78 -27 181 -53 l188
-46 20 50 c25 62 67 90 135 89 92 -1 150 -57 150 -146 0 -52 -19 -98 -49 -119
-18 -13 -13 -26 93 -262 l111 -249 3 538 2 538 72 101 c39 56 93 131 120 168
26 37 48 70 48 72 0 2 -9 2 -20 -1 -23 -6 -60 22 -60 45 0 12 -4 12 -24 -2
-14 -9 -31 -13 -39 -10 -8 3 -18 1 -22 -5 -3 -6 -14 -11 -24 -11 -9 0 -22 -5
-28 -11 -6 -6 -31 -12 -56 -14 -24 -1 -49 -5 -55 -9 -6 -4 -30 5 -52 19 -43
27 -60 26 -60 -6 0 -23 1 -23 -41 -2 -67 34 -152 11 -189 -50 -13 -21 -20 -50
-20 -83 0 -35 -5 -54 -14 -57 -17 -7 -77 13 -101 33 -13 11 -20 11 -36 1 -11
-6 -28 -9 -38 -6 -16 5 -61 -27 -61 -44 0 -4 -10 -17 -21 -30 -17 -18 -28 -21
-53 -17 -19 4 -42 0 -60 -9 -15 -8 -32 -13 -36 -10 -4 3 -11 -6 -14 -20 -5
-18 -13 -25 -31 -25 -13 0 -27 5 -30 10 -4 6 -11 8 -16 4 -5 -3 -16 -1 -24 6
-11 9 -17 6 -30 -14 -10 -14 -24 -26 -32 -26 -9 0 -13 -9 -11 -27 3 -26 0 -28
-34 -31 -20 -2 -42 -10 -48 -18 -17 -20 -47 -17 -60 5 -6 13 -29 24 -66 31
-42 9 -58 17 -66 36 -6 13 -18 26 -27 29 -9 3 -25 18 -36 35 -13 19 -28 30
-44 30 -18 0 -22 4 -18 19 3 12 -1 22 -10 25 -10 4 -11 10 -3 25 26 49 -3 146
-50 171 -11 6 -28 30 -39 54 -15 36 -18 56 -12 103 4 32 13 68 19 81 7 12 10
22 7 22 -3 0 2 15 12 33 18 35 22 63 11 88 -5 12 -19 14 -67 11 -59 -4 -62 -3
-97 32 -35 35 -36 38 -32 96 5 69 23 95 80 112 109 32 200 -71 150 -172 -20
-40 -14 -54 10 -25 7 9 18 21 24 28 6 7 15 23 18 35 4 12 11 22 16 22 5 0 -2
12 -15 26 -14 15 -25 31 -25 36 0 5 -7 16 -15 24 -11 11 -12 21 -4 41 6 18 6
30 -2 39 -13 16 -77 35 -120 36 -34 1 -36 11 -11 36 11 11 23 47 30 90 12 71
12 71 -15 99 -30 30 -77 41 -89 22z m-1264 -454 c55 13 119 13 131 -1 6 -8 20
-14 30 -14 23 0 23 -3 4 -45 -19 -39 -51 -55 -111 -55 -37 0 -51 6 -75 29 -25
26 -29 36 -28 83 1 50 2 51 12 25 10 -24 16 -27 37 -22z m797 -520 c14 -9 34
-37 45 -62 25 -57 15 -103 -32 -148 -28 -26 -38 -30 -91 -30 -57 0 -63 2 -95
37 -29 32 -34 45 -34 86 0 113 115 177 207 117z m602 16 c7 -5 11 -14 7 -19
-4 -6 7 -18 24 -27 30 -15 30 -17 30 -94 0 -87 -10 -104 -71 -121 -41 -12
-105 3 -137 33 -31 29 -45 87 -33 135 10 37 50 84 81 95 24 9 84 7 99 -2z
m-1216 -11 c23 0 27 -4 26 -27 0 -16 -4 -37 -8 -48 -7 -17 -10 -16 -24 15 -10
20 -29 44 -45 53 -27 18 -27 18 -2 13 14 -3 37 -6 53 -6z m2593 -86 l6 -39
-36 38 c-40 43 -44 54 -18 60 25 6 42 -14 48 -59z m-2586 -35 c0 -36 -31 -89
-61 -104 -53 -28 -159 -11 -159 26 0 21 41 49 73 49 20 0 47 10 67 25 43 32
80 33 80 4z m2518 -69 c48 -15 52 -23 18 -45 -39 -26 -91 -30 -140 -11 -37 14
-76 50 -76 70 0 10 155 -1 198 -14z m-1951 -459 c94 -43 104 -188 16 -247 -37
-24 -120 -25 -157 -1 -99 65 -80 224 30 257 44 13 65 11 111 -9z m674 -4 c39
-26 69 -79 69 -122 0 -43 -30 -96 -69 -122 -68 -46 -170 -22 -207 48 -22 43
-16 140 12 170 46 52 138 64 195 26z m-1955 -12 c38 -24 57 -63 57 -111 0
-139 -197 -183 -250 -56 -51 121 84 239 193 167z m661 5 c64 -39 83 -128 40
-191 -29 -43 -60 -59 -119 -59 -39 0 -54 6 -82 30 -70 61 -70 148 -1 209 29
25 44 31 83 31 29 0 59 -8 79 -20z m-1325 0 c54 -15 78 -51 78 -115 0 -65 -25
-100 -81 -115 -49 -14 -95 -1 -130 36 -35 37 -34 121 0 158 20 22 56 39 91 45
3 1 22 -4 42 -9z m-615 -33 c19 -18 27 -39 31 -76 4 -47 2 -53 -31 -86 -29
-29 -42 -35 -76 -35 -83 0 -121 39 -121 122 0 32 7 47 35 75 33 33 39 35 86
31 37 -4 58 -12 76 -31z m1283 -626 c112 -81 59 -251 -78 -251 -62 0 -100 23
-124 76 -47 107 29 214 142 198 19 -3 46 -13 60 -23z m680 -6 c88 -85 47 -232
-71 -250 -99 -14 -169 42 -169 137 0 99 55 152 153 145 46 -3 63 -9 87 -32z
m-1311 -2 c68 -50 75 -141 16 -200 -43 -43 -90 -51 -149 -24 -135 59 -78 263
68 247 22 -3 51 -13 65 -23z m1920 -592 c43 -23 64 -50 82 -109 23 -79 -33
-168 -122 -192 -53 -15 -93 -5 -135 32 -44 39 -64 77 -64 122 0 126 127 204
239 147z m-646 -5 c70 -30 103 -98 85 -179 -22 -103 -148 -145 -244 -82 -56
36 -71 154 -27 213 40 56 120 76 186 48z m-1273 -24 c58 -44 77 -119 46 -181
-34 -64 -116 -88 -192 -56 -73 30 -93 149 -37 215 43 51 129 62 183 22z m650
-7 c123 -118 -6 -306 -162 -237 -98 43 -107 195 -15 253 49 30 137 23 177 -16z
m-627 -663 c65 -61 52 -188 -23 -227 -35 -18 -116 -19 -150 -2 -65 33 -91 138
-50 204 45 75 156 88 223 25z m614 28 c94 -57 88 -215 -11 -264 -102 -50 -213
10 -223 121 -5 59 18 108 66 140 44 30 122 31 168 3z m597 -120 c37 -77 64
-144 61 -150 -3 -5 -23 -15 -44 -21 -68 -20 -155 20 -190 88 -16 32 -13 110 6
150 15 33 64 73 88 73 6 0 41 -63 79 -140z m-1933 120 c19 -5 48 -24 65 -41
25 -27 29 -38 29 -90 0 -57 -2 -63 -37 -94 -49 -45 -95 -53 -150 -26 -52 25
-78 65 -78 121 0 70 30 109 99 131 35 10 32 10 72 -1z m-611 -38 c30 -31 46
-86 36 -125 -23 -93 -149 -123 -217 -51 -20 21 -24 36 -24 86 0 55 3 62 33 89
27 25 41 29 88 29 48 0 60 -4 84 -28z m-603 -109 c-2 -24 -13 -53 -22 -63 -20
-22 -44 -28 -28 -7 6 6 13 38 16 69 3 32 9 63 13 69 13 21 27 -22 21 -68z
m2536 -467 c102 -43 124 -184 42 -262 -104 -98 -275 -24 -275 119 0 49 39 117
80 139 41 21 108 23 153 4z m-627 -15 c54 -25 78 -73 72 -149 -4 -48 -10 -60
-41 -88 -42 -39 -94 -51 -149 -35 -52 16 -84 48 -98 100 -12 47 1 113 28 145
41 46 120 58 188 27z m-672 -5 c52 -21 76 -60 76 -120 0 -63 -15 -93 -60 -124
-49 -34 -128 -28 -170 13 -118 113 3 294 154 231z m-643 -19 c66 -44 75 -137
19 -200 -27 -30 -33 -32 -95 -32 -62 0 -68 2 -95 32 -80 89 -22 223 95 223 27
0 54 -8 76 -23z m-651 -2 c42 -22 60 -53 60 -107 0 -39 -6 -54 -29 -80 -27
-30 -35 -33 -86 -33 -51 0 -59 3 -86 33 -24 26 -29 41 -29 81 0 96 86 149 170
106z m2617 -621 c58 -44 86 -120 69 -188 -10 -40 -63 -93 -112 -112 -38 -14
-51 -15 -87 -5 -90 27 -127 73 -127 161 0 73 25 118 81 148 54 29 134 27 176
-4z m-638 -12 c67 -49 86 -120 53 -195 -26 -60 -70 -87 -137 -87 -97 0 -155
58 -155 153 0 74 35 128 96 147 40 13 114 3 143 -18z m-664 -11 c40 -23 70
-95 61 -146 -4 -20 -22 -52 -40 -72 -27 -29 -41 -36 -82 -40 -91 -9 -150 33
-161 115 -17 130 106 209 222 143z m-657 -7 c13 -8 30 -31 38 -49 33 -79 4
-153 -72 -187 -44 -19 -48 -19 -89 -4 -63 24 -88 56 -92 118 -5 64 20 111 70
134 38 17 109 11 145 -12z m650 -644 c31 -19 72 -73 72 -96 0 -6 -19 -8 -57
-3 -32 4 -83 5 -115 2 -101 -10 -130 11 -92 66 36 50 134 66 192 31z m532 11
c0 -14 -18 -23 -30 -16 -6 4 -8 11 -5 16 8 12 35 12 35 0z"/>
<path d="M11110 17555 c0 -19 -4 -35 -10 -35 -5 0 -10 -11 -10 -25 0 -18 -9
-31 -30 -43 -16 -9 -30 -20 -30 -24 0 -3 -15 -24 -33 -46 -18 -21 -48 -69 -67
-107 -19 -37 -50 -82 -67 -99 -18 -17 -33 -38 -33 -48 0 -10 -15 -51 -34 -91
-19 -39 -37 -84 -40 -99 -6 -27 -5 -28 37 -28 74 0 127 -59 127 -140 0 -46
-21 -90 -52 -109 -25 -16 -31 -11 -114 100 l-66 89 26 27 c33 32 28 39 -13 18
-18 -9 -35 -14 -39 -11 -4 2 -83 103 -177 225 -155 200 -198 249 -181 205 3
-9 7 -453 8 -987 l3 -972 5 972 5 971 289 -371 289 -372 -7 -555 c-4 -305 -9
-564 -12 -575 -2 -11 3 -4 12 15 9 19 22 46 29 59 11 21 10 29 -2 48 -15 22
-14 23 10 23 18 0 28 8 37 30 7 16 12 33 13 37 0 4 5 13 10 18 4 6 50 102 100
215 92 204 92 205 130 214 33 8 37 13 37 40 0 46 32 97 73 119 36 18 105 25
126 13 15 -9 -7 -50 -54 -99 -22 -25 -29 -37 -18 -33 10 3 37 10 60 16 38 9
42 14 48 50 4 22 11 40 16 40 5 0 9 10 9 22 0 17 -3 19 -12 10 -15 -15 -28
-15 -28 -1 0 16 157 167 178 171 9 2 17 12 17 23 0 17 -6 20 -35 18 l-35 -2
34 9 c18 4 38 14 42 22 9 12 4 90 -7 130 -6 21 -74 48 -119 48 l-36 0 17 31
c46 90 -16 199 -112 199 -49 0 -50 -1 -29 -60 16 -44 12 -65 -10 -56 -9 3 -11
-2 -8 -15 5 -18 6 -18 18 -3 16 23 29 13 57 -42 12 -26 32 -50 43 -54 18 -7
17 -9 -15 -29 -43 -26 -82 -26 -137 -2 -50 23 -73 62 -73 124 0 51 31 105 72
125 24 11 26 15 17 47 -5 19 -21 60 -36 92 -33 73 -44 131 -50 261 -2 56 -8
102 -14 102 -5 0 -9 -10 -9 -22 0 -13 -4 -29 -8 -36 -5 -7 -6 14 -4 47 3 42
-1 69 -13 94 -17 37 -86 107 -105 107 -6 0 -10 -16 -10 -35z m401 -781 c16
-27 20 -41 12 -52 -24 -38 -52 -12 -58 54 -4 46 17 45 46 -2z m-582 -659 c0
-22 -4 -49 -9 -60 -6 -13 -9 7 -9 60 0 53 3 73 9 60 5 -11 9 -38 9 -60z"/>
<path d="M9423 17530 c-61 -14 -93 -60 -93 -135 0 -95 103 -153 194 -110 46
22 66 60 66 126 0 45 -4 55 -34 85 -19 19 -43 34 -54 34 -11 0 -26 2 -34 4 -7
2 -28 0 -45 -4z"/>
<path d="M10074 17529 c-50 -14 -77 -51 -82 -114 -5 -63 10 -94 61 -125 60
-37 153 -16 182 41 25 47 19 122 -10 158 -14 16 -34 32 -43 35 -43 12 -79 14
-108 5z"/>
<path d="M10724 17521 c-55 -25 -74 -54 -74 -114 0 -88 46 -137 130 -137 52 0
96 22 115 60 19 38 19 103 -1 141 -15 29 -80 69 -114 69 -8 0 -34 -9 -56 -19z"/>
<path d="M8763 17514 c-42 -21 -67 -74 -60 -131 10 -90 105 -139 192 -97 58
27 83 120 50 183 -28 55 -117 77 -182 45z"/>
<path d="M11334 17511 c-62 -38 -72 -145 -19 -201 77 -80 225 -23 225 87 0 45
-27 97 -60 117 -38 22 -108 20 -146 -3z"/>
<path d="M12006 17515 c-38 -20 -53 -42 -61 -87 -18 -100 64 -173 162 -146 92
25 120 151 48 218 -32 30 -108 38 -149 15z"/>
<path d="M12681 17517 c-50 -18 -75 -57 -74 -115 0 -27 6 -59 12 -70 17 -31
63 -52 117 -52 39 0 51 5 80 34 29 29 34 41 34 80 0 79 -31 119 -101 130 -19
3 -49 0 -68 -7z"/>
<path d="M6183 17509 c-48 -14 -73 -52 -73 -111 0 -41 5 -54 29 -79 24 -23 38
-29 75 -29 60 0 92 16 111 55 25 54 14 119 -27 152 -20 17 -79 23 -115 12z"/>
<path d="M7468 17504 c-16 -8 -28 -19 -28 -24 0 -13 27 -13 35 0 3 6 23 10 44
10 22 0 44 6 51 15 11 13 6 15 -31 15 -24 -1 -56 -8 -71 -16z"/>
<path d="M13289 17506 c-57 -32 -66 -149 -16 -192 62 -53 165 -35 193 32 21
50 11 114 -21 144 -31 29 -117 38 -156 16z"/>
<path d="M13970 17509 c-60 -25 -82 -79 -61 -150 14 -47 51 -69 115 -69 139 0
148 211 9 226 -21 2 -49 -1 -63 -7z"/>
<path d="M8787 16905 c-46 -16 -64 -30 -83 -66 -29 -57 -8 -151 41 -183 64
-42 163 -25 203 34 20 29 23 44 20 92 -4 61 -22 89 -68 113 -43 21 -74 24
-113 10z"/>
<path d="M11992 16890 c-72 -44 -82 -158 -20 -216 47 -42 96 -50 152 -25 51
22 76 54 83 108 11 85 -50 153 -137 153 -28 0 -58 -8 -78 -20z"/>
<path d="M12665 16895 c-60 -32 -87 -102 -66 -168 18 -53 53 -79 112 -85 62
-6 106 14 134 60 34 58 15 148 -40 184 -37 24 -104 28 -140 9z"/>
<path d="M13288 16884 c-61 -33 -79 -138 -32 -193 72 -86 208 -52 230 58 9 44
-19 113 -55 134 -35 21 -106 21 -143 1z"/>
<path d="M6153 16878 c-26 -12 -53 -65 -53 -102 0 -98 94 -154 185 -111 40 20
55 51 55 116 0 42 -5 55 -29 80 -25 25 -37 29 -83 28 -29 0 -63 -5 -75 -11z"/>
<path d="M13929 16861 c-24 -25 -29 -38 -29 -80 0 -65 15 -96 55 -116 117 -55
225 53 170 170 -20 40 -51 55 -116 55 -42 0 -55 -5 -80 -29z"/>
<path d="M14569 16862 c-54 -49 -48 -160 10 -192 34 -18 116 -12 144 10 59 47
56 153 -6 190 -48 30 -110 26 -148 -8z"/>
<path d="M15176 16761 c-3 -4 11 -27 30 -50 32 -37 40 -41 82 -41 l46 0 -49
50 c-35 36 -57 50 -77 50 -15 0 -29 -4 -32 -9z"/>
<path d="M11629 16400 c-13 -10 -19 -19 -14 -20 6 0 -6 -8 -25 -18 -46 -23
-53 -52 -12 -52 21 0 35 8 47 26 9 14 14 28 11 31 -3 4 3 12 14 20 21 15 27
33 11 33 -5 0 -19 -9 -32 -20z"/>
<path d="M12040 16279 c0 -6 -9 -25 -21 -42 l-20 -32 27 33 28 34 53 -264 c52
-261 67 -326 58 -257 -7 46 11 138 30 159 30 33 13 60 -38 60 -20 0 -19 3 10
29 94 86 43 261 -76 261 -12 0 -24 7 -27 15 -7 17 -24 20 -24 4z"/>
<path d="M11606 16272 c-4 -7 -18 -12 -31 -12 -28 0 -56 -48 -48 -80 6 -24 7
-24 34 -2 78 62 81 66 66 86 -10 13 -16 15 -21 8z"/>
<path d="M8647 16257 c30 -48 115 -167 119 -167 3 0 -23 41 -57 90 -33 50 -63
90 -66 90 -2 0 0 -6 4 -13z"/>
<path d="M12661 16242 c-54 -27 -74 -62 -74 -127 0 -65 20 -100 74 -127 66
-34 154 -13 190 46 27 45 25 124 -4 167 -37 55 -122 74 -186 41z"/>
<path d="M13279 16235 c-53 -29 -76 -133 -44 -195 21 -40 63 -60 129 -60 44 0
60 5 85 26 62 52 65 147 7 209 -31 32 -38 35 -92 35 -33 -1 -71 -7 -85 -15z"/>
<path d="M13949 16230 c-87 -46 -90 -179 -6 -230 64 -39 159 -17 192 44 23 42
17 126 -11 157 -43 49 -115 61 -175 29z"/>
<path d="M14583 16224 c-52 -26 -75 -119 -44 -177 17 -32 67 -57 113 -57 42 0
96 32 108 66 15 39 12 107 -6 133 -33 47 -113 63 -171 35z"/>
<path d="M15241 16216 c-70 -39 -67 -172 4 -204 14 -7 46 -12 71 -12 37 0 51
6 75 29 24 25 29 37 29 81 0 28 -5 60 -10 71 -24 44 -118 64 -169 35z"/>
<path d="M11940 16125 c-17 -25 -29 -45 -26 -45 3 0 19 20 36 45 17 25 29 45
26 45 -3 0 -19 -20 -36 -45z"/>
<path d="M15850 16116 c0 -39 17 -74 45 -92 23 -15 28 -15 36 -3 17 27 9 52
-27 85 -42 40 -54 42 -54 10z"/>
<path d="M8811 16020 c23 -33 44 -60 46 -60 5 0 -4 15 -45 73 -19 26 -36 47
-39 47 -2 0 15 -27 38 -60z"/>
<path d="M11885 16044 c-9 -15 -12 -23 -6 -20 11 7 35 46 28 46 -3 0 -12 -12
-22 -26z"/>
<path d="M11828 15963 c-41 -58 -50 -73 -45 -73 2 0 23 27 46 60 23 33 40 60
38 60 -3 0 -20 -21 -39 -47z"/>
<path d="M8905 15885 c26 -38 55 -77 63 -85 8 -8 -6 17 -33 55 -26 39 -55 77
-63 85 -8 8 6 -16 33 -55z"/>
<path d="M11740 15835 c-17 -25 -29 -45 -26 -45 3 0 19 20 36 45 17 25 29 45
26 45 -3 0 -19 -20 -36 -45z"/>
<path d="M8990 15761 c5 -11 15 -23 21 -27 6 -3 3 5 -6 20 -20 30 -30 35 -15
7z"/>
<path d="M11693 15768 c-15 -20 -25 -38 -20 -38 3 0 12 11 21 25 17 26 16 35
-1 13z"/>
<path d="M9085 15625 c37 -55 74 -107 83 -115 8 -8 -16 30 -53 85 -37 55 -74
107 -83 115 -8 8 16 -30 53 -85z"/>
<path d="M11640 15690 c-12 -16 -19 -30 -16 -30 2 0 14 14 26 30 12 17 19 30
16 30 -2 0 -14 -13 -26 -30z"/>
<path d="M12175 15681 c3 -18 5 -41 5 -50 0 -10 3 -12 8 -5 4 6 15 13 25 17
24 9 18 42 -8 42 -11 0 -23 7 -28 15 -4 8 -5 0 -2 -19z"/>
<path d="M11603 15638 c-15 -20 -25 -38 -20 -38 3 0 12 11 21 25 17 26 16 35
-1 13z"/>
<path d="M13955 15586 c-50 -22 -68 -51 -73 -115 -7 -103 38 -151 141 -151 63
0 101 24 123 76 19 46 17 80 -6 130 -32 64 -114 91 -185 60z"/>
<path d="M11563 15578 c-32 -41 -104 -150 -91 -138 20 19 111 150 105 150 -2
0 -9 -6 -14 -12z"/>
<path d="M14572 15570 c-91 -56 -73 -211 28 -241 79 -24 157 17 178 94 14 50
-3 100 -45 138 -42 36 -110 40 -161 9z"/>
<path d="M15246 15565 c-36 -19 -53 -41 -60 -81 -20 -103 59 -172 164 -144 67
18 99 98 70 174 -21 56 -113 83 -174 51z"/>
<path d="M15940 15573 c-61 -19 -90 -56 -90 -118 0 -47 22 -88 55 -103 56 -26
141 -6 165 37 5 11 10 41 10 66 0 25 -5 55 -10 66 -17 31 -96 63 -130 52z"/>
<path d="M4207 15559 c-41 -24 -60 -110 -36 -163 27 -59 137 -72 186 -23 49
49 39 153 -18 182 -32 17 -106 19 -132 4z"/>
<path d="M9265 15365 c26 -38 55 -77 63 -85 8 -8 -6 17 -33 55 -26 39 -55 77
-63 85 -8 8 6 -16 33 -55z"/>
<path d="M11435 15394 c-9 -15 -12 -23 -6 -20 11 7 35 46 28 46 -3 0 -12 -12
-22 -26z"/>
<path d="M12985 15364 l-30 -26 33 22 c17 12 32 23 32 26 0 7 -4 5 -35 -22z"/>
<path d="M10852 15355 c-17 -37 -14 -45 4 -12 9 16 14 31 11 33 -2 2 -9 -7
-15 -21z"/>
<path d="M11380 15315 c-17 -25 -29 -45 -26 -45 3 0 19 20 36 45 17 25 29 45
26 45 -3 0 -19 -20 -36 -45z"/>
<path d="M7720 15336 c0 -2 8 -10 18 -17 15 -13 16 -12 3 4 -13 16 -21 21 -21
13z"/>
<path d="M12720 15169 c-124 -94 -232 -177 -240 -186 -8 -9 94 66 228 166 204
153 257 195 240 190 -2 0 -104 -77 -228 -170z"/>
<path d="M7790 15283 c36 -32 190 -144 190 -139 0 5 -180 140 -205 155 -6 3 1
-4 15 -16z"/>
<path d="M11989 15293 c-13 -16 -12 -17 4 -4 9 7 17 15 17 17 0 8 -8 3 -21
-13z"/>
<path d="M10816 15273 c-6 -14 -5 -15 5 -6 7 7 10 15 7 18 -3 3 -9 -2 -12 -12z"/>
<path d="M11949 15253 c-13 -16 -12 -17 4 -4 16 13 21 21 13 21 -2 0 -10 -8
-17 -17z"/>
<path d="M13850 15230 c0 -5 5 -10 10 -10 6 0 10 5 10 10 0 6 -4 10 -10 10 -5
0 -10 -4 -10 -10z"/>
<path d="M9390 15185 c17 -25 33 -45 36 -45 3 0 -9 20 -26 45 -17 25 -33 45
-36 45 -3 0 9 -20 26 -45z"/>
<path d="M11285 15179 c-20 -28 -35 -52 -33 -54 2 -2 20 21 41 51 21 30 36 54
34 54 -3 0 -22 -23 -42 -51z"/>
<path d="M11909 15213 c-13 -16 -12 -17 4 -4 9 7 17 15 17 17 0 8 -8 3 -21
-13z"/>
<path d="M11869 15173 c-13 -16 -12 -17 4 -4 16 13 21 21 13 21 -2 0 -10 -8
-17 -17z"/>
<path d="M11829 15133 c-13 -16 -12 -17 4 -4 16 13 21 21 13 21 -2 0 -10 -8
-17 -17z"/>
<path d="M7992 15134 c4 -5 28 -25 54 -44 26 -18 45 -29 42 -24 -4 5 -28 25
-54 44 -26 18 -45 29 -42 24z"/>
<path d="M14320 15119 c0 -4 7 -10 16 -13 22 -8 26 -8 19 4 -3 6 -1 10 4 10 6
0 11 -4 11 -10 0 -5 5 -10 10 -10 6 0 10 7 10 15 0 11 -9 14 -35 12 -19 -1
-35 -5 -35 -8z"/>
<path d="M13524 15108 c-5 -7 -9 -32 -10 -56 -1 -37 1 -41 13 -29 18 18 30 97
15 97 -6 0 -14 -6 -18 -12z"/>
<path d="M11789 15093 c-13 -16 -12 -17 4 -4 9 7 17 15 17 17 0 8 -8 3 -21
-13z"/>
<path d="M11749 15053 c-13 -16 -12 -17 4 -4 9 7 17 15 17 17 0 8 -8 3 -21
-13z"/>
<path d="M8107 15049 c14 -17 103 -83 103 -76 0 3 -26 24 -57 48 -32 23 -53
36 -46 28z"/>
<path d="M8223 14962 c4 -5 38 -32 78 -61 39 -29 68 -48 65 -42 -4 5 -38 33
-77 61 -39 29 -69 48 -66 42z"/>
<path d="M12439 14953 c-13 -16 -12 -17 4 -4 9 7 17 15 17 17 0 8 -8 3 -21
-13z"/>
<path d="M4235 14942 c-56 -19 -75 -49 -75 -121 0 -68 28 -101 93 -108 88 -10
140 35 139 120 -1 81 -78 134 -157 109z"/>
<path d="M11629 14929 l-24 -20 28 17 c15 9 27 18 27 20 0 8 -8 4 -31 -17z"/>
<path d="M15906 14935 c-53 -28 -73 -82 -55 -149 14 -51 51 -76 111 -76 79 0
113 26 123 96 10 58 -15 111 -59 129 -45 19 -83 19 -120 0z"/>
<path d="M12363 14899 c-29 -22 -53 -42 -53 -45 0 -2 25 14 55 37 48 36 62 49
53 49 -2 0 -27 -18 -55 -41z"/>
<path d="M16529 14925 c-54 -29 -64 -132 -18 -181 46 -49 155 -40 184 16 17
33 20 102 5 131 -24 45 -117 63 -171 34z"/>
<path d="M3635 14904 c-14 -15 -35 -58 -47 -96 -22 -69 -22 -70 -3 -85 14 -10
35 -13 68 -10 66 6 98 38 104 104 8 98 -64 149 -122 87z"/>
<path d="M8382 14844 c4 -5 28 -25 54 -44 26 -18 45 -29 42 -24 -4 5 -28 25
-54 44 -26 18 -45 29 -42 24z"/>
<path d="M12279 14833 c-13 -16 -12 -17 4 -4 9 7 17 15 17 17 0 8 -8 3 -21
-13z"/>
<path d="M12203 14779 c-29 -22 -53 -42 -53 -45 0 -2 25 14 55 37 48 36 62 49
53 49 -2 0 -27 -18 -55 -41z"/>
<path d="M8490 14766 c0 -2 8 -10 18 -17 15 -13 16 -12 3 4 -13 16 -21 21 -21
13z"/>
<path d="M8530 14736 c0 -2 8 -10 18 -17 15 -13 16 -12 3 4 -13 16 -21 21 -21
13z"/>
<path d="M12119 14713 c-13 -16 -12 -17 4 -4 16 13 21 21 13 21 -2 0 -10 -8
-17 -17z"/>
<path d="M12079 14683 c-13 -16 -12 -17 4 -4 9 7 17 15 17 17 0 8 -8 3 -21
-13z"/>
<path d="M8600 14685 c0 -7 110 -88 114 -84 2 2 -23 23 -55 46 -33 24 -59 41
-59 38z"/>
<path d="M12020 14639 l-35 -30 38 26 c33 24 43 35 34 35 -1 0 -18 -14 -37
-31z"/>
<path d="M12778 14544 c-27 -13 -48 -27 -48 -29 0 -3 23 6 50 20 28 14 50 28
50 30 0 7 1 7 -52 -21z"/>
<path d="M7990 14495 c0 -2 18 -14 40 -25 22 -11 40 -18 40 -15 0 2 -18 14
-40 25 -22 11 -40 18 -40 15z"/>
<path d="M12618 14459 c-32 -16 -58 -32 -58 -34 0 -3 27 8 60 25 33 17 60 32
60 35 0 7 2 8 -62 -26z"/>
<path d="M8127 14419 c7 -7 15 -10 18 -7 3 3 -2 9 -12 12 -14 6 -15 5 -6 -5z"/>
<path d="M8160 14406 c0 -3 14 -12 30 -21 17 -9 30 -13 30 -11 0 3 -13 12 -30
21 -16 9 -30 13 -30 11z"/>
<path d="M12458 14374 c-27 -13 -48 -27 -48 -29 0 -3 23 6 50 20 28 14 50 28
50 30 0 7 1 7 -52 -21z"/>
<path d="M8277 14339 c7 -7 15 -10 18 -7 3 3 -2 9 -12 12 -14 6 -15 5 -6 -5z"/>
<path d="M8310 14326 c0 -3 14 -12 30 -21 17 -9 30 -13 30 -11 0 3 -13 12 -30
21 -16 9 -30 13 -30 11z"/>
<path d="M12318 14299 c-21 -11 -38 -22 -38 -24 0 -3 18 4 40 15 22 11 40 23
40 25 0 7 0 7 -42 -16z"/>
<path d="M6890 14300 c8 -5 20 -10 25 -10 6 0 3 5 -5 10 -8 5 -19 10 -25 10
-5 0 -3 -5 5 -10z"/>
<path d="M13750 14290 c-8 -5 -10 -10 -5 -10 6 0 17 5 25 10 8 5 11 10 5 10
-5 0 -17 -5 -25 -10z"/>
<path d="M8380 14286 c0 -2 7 -7 16 -10 8 -3 12 -2 9 4 -6 10 -25 14 -25 6z"/>
<path d="M6970 14272 c8 -5 26 -13 40 -16 17 -5 20 -4 10 2 -8 5 -26 13 -40
16 -17 5 -20 4 -10 -2z"/>
<path d="M16674 14249 c14 -17 26 -35 26 -41 0 -6 3 -9 6 -6 9 9 -23 65 -42
72 -10 4 -7 -4 10 -25z"/>
<path d="M13670 14260 c-8 -5 -10 -10 -5 -10 6 0 17 5 25 10 8 5 11 10 5 10
-5 0 -17 -5 -25 -10z"/>
<path d="M7080 14230 c8 -5 20 -10 25 -10 6 0 3 5 -5 10 -8 5 -19 10 -25 10
-5 0 -3 -5 5 -10z"/>
<path d="M13560 14220 c-8 -5 -10 -10 -5 -10 6 0 17 5 25 10 8 5 11 10 5 10
-5 0 -17 -5 -25 -10z"/>
<path d="M7130 14210 c8 -5 20 -10 25 -10 6 0 3 5 -5 10 -8 5 -19 10 -25 10
-5 0 -3 -5 5 -10z"/>
<path d="M13480 14190 c-8 -5 -10 -10 -5 -10 6 0 17 5 25 10 8 5 11 10 5 10
-5 0 -17 -5 -25 -10z"/>
<path d="M7210 14182 c8 -5 26 -13 40 -16 17 -5 20 -4 10 2 -8 5 -26 13 -40
16 -17 5 -20 4 -10 -2z"/>
<path d="M13430 14170 c-8 -5 -10 -10 -5 -10 6 0 17 5 25 10 8 5 11 10 5 10
-5 0 -17 -5 -25 -10z"/>
<path d="M13370 14150 c-8 -5 -10 -10 -5 -10 6 0 17 5 25 10 8 5 11 10 5 10
-5 0 -17 -5 -25 -10z"/>
<path d="M7320 14140 c8 -5 20 -10 25 -10 6 0 3 5 -5 10 -8 5 -19 10 -25 10
-5 0 -3 -5 5 -10z"/>
<path d="M13320 14130 c-8 -5 -10 -10 -5 -10 6 0 17 5 25 10 8 5 11 10 5 10
-5 0 -17 -5 -25 -10z"/>
<path d="M7400 14110 c8 -5 20 -10 25 -10 6 0 3 5 -5 10 -8 5 -19 10 -25 10
-5 0 -3 -5 5 -10z"/>
<path d="M13240 14100 c-8 -5 -10 -10 -5 -10 6 0 17 5 25 10 8 5 11 10 5 10
-5 0 -17 -5 -25 -10z"/>
<path d="M7450 14090 c8 -5 20 -10 25 -10 6 0 3 5 -5 10 -8 5 -19 10 -25 10
-5 0 -3 -5 5 -10z"/>
<path d="M7530 14062 c8 -5 26 -13 40 -16 17 -5 20 -4 10 2 -8 5 -26 13 -40
16 -17 5 -20 4 -10 -2z"/>
<path d="M13130 14060 c-8 -5 -10 -10 -5 -10 6 0 17 5 25 10 8 5 11 10 5 10
-5 0 -17 -5 -25 -10z"/>
<path d="M13050 14030 c-8 -5 -10 -10 -5 -10 6 0 17 5 25 10 8 5 11 10 5 10
-5 0 -17 -5 -25 -10z"/>
<path d="M7640 14020 c8 -5 20 -10 25 -10 6 0 3 5 -5 10 -8 5 -19 10 -25 10
-5 0 -3 -5 5 -10z"/>
<path d="M7720 13990 c8 -5 20 -10 25 -10 6 0 3 5 -5 10 -8 5 -19 10 -25 10
-5 0 -3 -5 5 -10z"/>
<path d="M12940 13990 c-8 -5 -10 -10 -5 -10 6 0 17 5 25 10 8 5 11 10 5 10
-5 0 -17 -5 -25 -10z"/>
<path d="M7770 13970 c8 -5 20 -10 25 -10 6 0 3 5 -5 10 -8 5 -19 10 -25 10
-5 0 -3 -5 5 -10z"/>
<path d="M12890 13970 c-8 -5 -10 -10 -5 -10 6 0 17 5 25 10 8 5 11 10 5 10
-5 0 -17 -5 -25 -10z"/>
<path d="M7850 13942 c8 -5 26 -13 40 -16 17 -5 20 -4 10 2 -8 5 -26 13 -40
16 -17 5 -20 4 -10 -2z"/>
<path d="M12810 13940 c-8 -5 -10 -10 -5 -10 6 0 17 5 25 10 8 5 11 10 5 10
-5 0 -17 -5 -25 -10z"/>
<path d="M7960 13900 c8 -5 20 -10 25 -10 6 0 3 5 -5 10 -8 5 -19 10 -25 10
-5 0 -3 -5 5 -10z"/>
<path d="M12700 13900 c-8 -5 -10 -10 -5 -10 6 0 17 5 25 10 8 5 11 10 5 10
-5 0 -17 -5 -25 -10z"/>
<path d="M8010 13880 c8 -5 20 -10 25 -10 6 0 3 5 -5 10 -8 5 -19 10 -25 10
-5 0 -3 -5 5 -10z"/>
<path d="M12650 13880 c-8 -5 -10 -10 -5 -10 6 0 17 5 25 10 8 5 11 10 5 10
-5 0 -17 -5 -25 -10z"/>
<path d="M8090 13850 c8 -5 20 -10 25 -10 6 0 3 5 -5 10 -8 5 -19 10 -25 10
-5 0 -3 -5 5 -10z"/>
<path d="M12575 13850 c-3 -6 1 -7 9 -4 18 7 21 14 7 14 -6 0 -13 -4 -16 -10z"/>
<path d="M10265 13784 c-211 -50 -321 -107 -469 -245 -538 -503 -815 -1630
-660 -2688 143 -975 604 -1676 1144 -1739 296 -35 591 133 837 476 64 90 74
106 154 257 243 460 375 1157 340 1808 -28 529 -130 959 -321 1352 -98 200
-198 352 -314 472 -144 152 -277 238 -436 285 -62 18 -233 32 -275 22z m71
-613 c64 -136 40 -120 219 -141 49 -6 92 -13 94 -16 3 -2 -39 -46 -92 -97
l-96 -92 24 -115 c14 -63 24 -120 22 -127 -1 -8 -44 11 -111 47 -60 33 -114
60 -120 60 -6 0 -60 -27 -120 -61 -59 -33 -110 -58 -112 -57 -1 2 8 62 22 133
l26 130 -24 18 c-44 36 -170 159 -166 163 2 2 47 8 99 14 173 19 154 6 217
141 30 66 57 119 58 119 2 0 29 -54 60 -119z m771 -1061 c31 -66 61 -120 67
-120 28 0 238 -29 242 -33 5 -4 -48 -57 -146 -147 l-38 -35 24 -125 c13 -69
24 -129 24 -133 0 -5 -19 2 -42 16 -24 13 -77 43 -118 65 l-76 41 -114 -63
c-63 -35 -116 -63 -117 -62 -2 1 8 60 22 131 l24 128 -96 91 -96 91 29 7 c16
4 75 12 131 19 116 13 94 -8 173 163 21 47 42 86 45 86 3 0 31 -54 62 -120z
m-1542 -180 c27 -58 49 -106 50 -107 0 -1 56 -9 124 -17 68 -8 126 -18 130
-21 3 -4 -37 -46 -89 -94 l-95 -88 23 -115 c31 -161 32 -155 -30 -120 -29 16
-75 42 -103 57 -27 15 -55 31 -61 36 -7 6 -50 -12 -119 -51 -59 -33 -113 -60
-120 -60 -9 0 -5 33 13 126 l25 127 -99 93 c-54 51 -95 93 -91 94 22 1 262 31
262 33 67 151 112 234 121 224 5 -7 32 -59 59 -117z m1264 -877 l39 -80 63 -7
c35 -4 77 -10 92 -13 l29 -6 -68 -68 -67 -68 16 -83 c10 -46 17 -86 17 -90 0
-4 -38 13 -84 37 l-84 45 -59 -31 c-32 -17 -68 -38 -80 -45 -21 -13 -23 -13
-23 5 0 11 7 53 15 93 l16 73 -67 64 c-76 74 -76 74 43 86 l71 7 41 85 c23 47
44 84 47 81 2 -3 22 -41 43 -85z m-413 -920 c20 -43 44 -97 54 -119 20 -46 17
-45 180 -65 52 -6 97 -14 100 -16 2 -2 -39 -46 -93 -96 l-97 -92 14 -60 c24
-108 37 -187 32 -192 -2 -2 -15 2 -28 10 -24 15 -123 70 -172 95 -31 16 -42
12 -209 -82 -27 -15 -51 -26 -53 -23 -3 2 0 26 6 53 6 27 17 83 25 124 l14 75
-97 95 -97 95 122 16 c67 9 128 19 135 22 8 2 38 57 67 121 30 64 56 116 58
116 2 0 19 -35 39 -77z"/>
<path d="M3022 13562 c-34 -70 -41 -112 -19 -130 17 -14 53 6 78 44 26 40 25
96 -3 128 l-23 25 -33 -67z"/>
<path d="M17214 13624 c-59 -13 -92 -109 -60 -171 34 -67 148 -76 195 -16 32
40 29 114 -6 153 -28 30 -81 44 -129 34z"/>
<path d="M7208 13603 c7 -3 16 -2 19 1 4 3 -2 6 -13 5 -11 0 -14 -3 -6 -6z"/>
<path d="M7248 13593 c7 -3 16 -2 19 1 4 3 -2 6 -13 5 -11 0 -14 -3 -6 -6z"/>
<path d="M13340 13585 c-19 -7 -28 -13 -20 -13 8 0 31 6 50 13 19 7 28 13 20
13 -8 0 -31 -6 -50 -13z"/>
<path d="M7295 13580 c11 -5 27 -9 35 -9 9 0 8 4 -5 9 -11 5 -27 9 -35 9 -9 0
-8 -4 5 -9z"/>
<path d="M7358 13563 c7 -3 16 -2 19 1 4 3 -2 6 -13 5 -11 0 -14 -3 -6 -6z"/>
<path d="M7398 13553 c7 -3 16 -2 19 1 4 3 -2 6 -13 5 -11 0 -14 -3 -6 -6z"/>
<path d="M7445 13540 c11 -5 27 -9 35 -9 9 0 8 4 -5 9 -11 5 -27 9 -35 9 -9 0
-8 -4 5 -9z"/>
<path d="M7508 13523 c7 -3 16 -2 19 1 4 3 -2 6 -13 5 -11 0 -14 -3 -6 -6z"/>
<path d="M7588 13503 c7 -3 16 -2 19 1 4 3 -2 6 -13 5 -11 0 -14 -3 -6 -6z"/>
<path d="M7635 13490 c11 -5 27 -9 35 -9 9 0 8 4 -5 9 -11 5 -27 9 -35 9 -9 0
-8 -4 5 -9z"/>
<path d="M7738 13463 c7 -3 16 -2 19 1 4 3 -2 6 -13 5 -11 0 -14 -3 -6 -6z"/>
<path d="M12910 13455 c-19 -7 -28 -13 -20 -13 8 0 31 6 50 13 19 7 28 13 20
13 -8 0 -31 -6 -50 -13z"/>
<path d="M7778 13453 c7 -3 16 -2 19 1 4 3 -2 6 -13 5 -11 0 -14 -3 -6 -6z"/>
<path d="M7858 13433 c7 -3 16 -2 19 1 4 3 -2 6 -13 5 -11 0 -14 -3 -6 -6z"/>
<path d="M12795 13420 c-13 -5 -14 -9 -5 -9 8 0 24 4 35 9 13 5 14 9 5 9 -8 0
-24 -4 -35 -9z"/>
<path d="M6428 13193 c6 -2 18 -2 25 0 6 3 1 5 -13 5 -14 0 -19 -2 -12 -5z"/>
<path d="M6478 13183 c7 -3 16 -2 19 1 4 3 -2 6 -13 5 -11 0 -14 -3 -6 -6z"/>
<path d="M14188 13183 c6 -2 18 -2 25 0 6 3 1 5 -13 5 -14 0 -19 -2 -12 -5z"/>
<path d="M6538 13173 c7 -3 16 -2 19 1 4 3 -2 6 -13 5 -11 0 -14 -3 -6 -6z"/>
<path d="M14138 13173 c7 -3 16 -2 19 1 4 3 -2 6 -13 5 -11 0 -14 -3 -6 -6z"/>
<path d="M6588 13163 c7 -3 16 -2 19 1 4 3 -2 6 -13 5 -11 0 -14 -3 -6 -6z"/>
<path d="M14088 13163 c6 -2 18 -2 25 0 6 3 1 5 -13 5 -14 0 -19 -2 -12 -5z"/>
<path d="M6628 13153 c6 -2 18 -2 25 0 6 3 1 5 -13 5 -14 0 -19 -2 -12 -5z"/>
<path d="M14038 13153 c6 -2 18 -2 25 0 6 3 1 5 -13 5 -14 0 -19 -2 -12 -5z"/>
<path d="M6678 13143 c6 -2 18 -2 25 0 6 3 1 5 -13 5 -14 0 -19 -2 -12 -5z"/>
<path d="M13988 13143 c6 -2 18 -2 25 0 6 3 1 5 -13 5 -14 0 -19 -2 -12 -5z"/>
<path d="M6738 13133 c6 -2 18 -2 25 0 6 3 1 5 -13 5 -14 0 -19 -2 -12 -5z"/>
<path d="M13900 13130 c-20 -6 -21 -8 -5 -8 11 0 31 4 45 8 20 6 21 8 5 8 -11
0 -31 -4 -45 -8z"/>
<path d="M6788 13123 c6 -2 18 -2 25 0 6 3 1 5 -13 5 -14 0 -19 -2 -12 -5z"/>
<path d="M6838 13113 c6 -2 18 -2 25 0 6 3 1 5 -13 5 -14 0 -19 -2 -12 -5z"/>
<path d="M13838 13113 c6 -2 18 -2 25 0 6 3 1 5 -13 5 -14 0 -19 -2 -12 -5z"/>
<path d="M6888 13103 c7 -3 16 -2 19 1 4 3 -2 6 -13 5 -11 0 -14 -3 -6 -6z"/>
<path d="M13788 13103 c6 -2 18 -2 25 0 6 3 1 5 -13 5 -14 0 -19 -2 -12 -5z"/>
<path d="M6948 13093 c7 -3 16 -2 19 1 4 3 -2 6 -13 5 -11 0 -14 -3 -6 -6z"/>
<path d="M13728 13093 c6 -2 18 -2 25 0 6 3 1 5 -13 5 -14 0 -19 -2 -12 -5z"/>
<path d="M6988 13083 c6 -2 18 -2 25 0 6 3 1 5 -13 5 -14 0 -19 -2 -12 -5z"/>
<path d="M13688 13083 c7 -3 16 -2 19 1 4 3 -2 6 -13 5 -11 0 -14 -3 -6 -6z"/>
<path d="M7038 13073 c6 -2 18 -2 25 0 6 3 1 5 -13 5 -14 0 -19 -2 -12 -5z"/>
<path d="M13638 13073 c6 -2 18 -2 25 0 6 3 1 5 -13 5 -14 0 -19 -2 -12 -5z"/>
<path d="M7088 13063 c6 -2 18 -2 25 0 6 3 1 5 -13 5 -14 0 -19 -2 -12 -5z"/>
<path d="M13588 13063 c6 -2 18 -2 25 0 6 3 1 5 -13 5 -14 0 -19 -2 -12 -5z"/>
<path d="M7148 13053 c6 -2 18 -2 25 0 6 3 1 5 -13 5 -14 0 -19 -2 -12 -5z"/>
<path d="M13528 13053 c6 -2 18 -2 25 0 6 3 1 5 -13 5 -14 0 -19 -2 -12 -5z"/>
<path d="M7198 13043 c6 -2 18 -2 25 0 6 3 1 5 -13 5 -14 0 -19 -2 -12 -5z"/>
<path d="M13488 13043 c7 -3 16 -2 19 1 4 3 -2 6 -13 5 -11 0 -14 -3 -6 -6z"/>
<path d="M7248 13033 c7 -3 16 -2 19 1 4 3 -2 6 -13 5 -11 0 -14 -3 -6 -6z"/>
<path d="M13438 13033 c6 -2 18 -2 25 0 6 3 1 5 -13 5 -14 0 -19 -2 -12 -5z"/>
<path d="M7298 13023 c7 -3 16 -2 19 1 4 3 -2 6 -13 5 -11 0 -14 -3 -6 -6z"/>
<path d="M13388 13023 c6 -2 18 -2 25 0 6 3 1 5 -13 5 -14 0 -19 -2 -12 -5z"/>
<path d="M7358 13013 c7 -3 16 -2 19 1 4 3 -2 6 -13 5 -11 0 -14 -3 -6 -6z"/>
<path d="M13328 13013 c6 -2 18 -2 25 0 6 3 1 5 -13 5 -14 0 -19 -2 -12 -5z"/>
<path d="M7398 13003 c6 -2 18 -2 25 0 6 3 1 5 -13 5 -14 0 -19 -2 -12 -5z"/>
<path d="M13278 13003 c6 -2 18 -2 25 0 6 3 1 5 -13 5 -14 0 -19 -2 -12 -5z"/>
<path d="M2934 12986 c-17 -8 -39 -24 -48 -37 -32 -46 -12 -144 33 -169 11 -5
42 -10 70 -10 71 0 102 28 109 98 6 62 -13 97 -63 118 -42 17 -61 17 -101 0z"/>
<path d="M7448 12993 c6 -2 18 -2 25 0 6 3 1 5 -13 5 -14 0 -19 -2 -12 -5z"/>
<path d="M13238 12993 c7 -3 16 -2 19 1 4 3 -2 6 -13 5 -11 0 -14 -3 -6 -6z"/>
<path d="M17193 12984 c-40 -20 -57 -61 -50 -121 6 -57 36 -87 96 -97 47 -7
90 10 115 46 20 28 21 100 1 137 -24 48 -102 65 -162 35z"/>
<path d="M7498 12983 c6 -2 18 -2 25 0 6 3 1 5 -13 5 -14 0 -19 -2 -12 -5z"/>
<path d="M13188 12983 c6 -2 18 -2 25 0 6 3 1 5 -13 5 -14 0 -19 -2 -12 -5z"/>
<path d="M7558 12973 c6 -2 18 -2 25 0 6 3 1 5 -13 5 -14 0 -19 -2 -12 -5z"/>
<path d="M13128 12973 c6 -2 18 -2 25 0 6 3 1 5 -13 5 -14 0 -19 -2 -12 -5z"/>
<path d="M7608 12963 c7 -3 16 -2 19 1 4 3 -2 6 -13 5 -11 0 -14 -3 -6 -6z"/>
<path d="M13078 12963 c6 -2 18 -2 25 0 6 3 1 5 -13 5 -14 0 -19 -2 -12 -5z"/>
<path d="M7658 12953 c7 -3 16 -2 19 1 4 3 -2 6 -13 5 -11 0 -14 -3 -6 -6z"/>
<path d="M13038 12953 c7 -3 16 -2 19 1 4 3 -2 6 -13 5 -11 0 -14 -3 -6 -6z"/>
<path d="M7708 12943 c7 -3 16 -2 19 1 4 3 -2 6 -13 5 -11 0 -14 -3 -6 -6z"/>
<path d="M12988 12943 c6 -2 18 -2 25 0 6 3 1 5 -13 5 -14 0 -19 -2 -12 -5z"/>
<path d="M16672 12823 c-43 -47 -51 -63 -31 -63 19 0 79 67 79 89 0 12 -1 21
-3 21 -2 0 -22 -21 -45 -47z"/>
<path d="M6933 12593 c9 -2 25 -2 35 0 9 3 1 5 -18 5 -19 0 -27 -2 -17 -5z"/>
<path d="M13723 12593 c9 -2 25 -2 35 0 9 3 1 5 -18 5 -19 0 -27 -2 -17 -5z"/>
<path d="M7013 12583 c9 -2 23 -2 30 0 6 3 -1 5 -18 5 -16 0 -22 -2 -12 -5z"/>
<path d="M13643 12583 c9 -2 25 -2 35 0 9 3 1 5 -18 5 -19 0 -27 -2 -17 -5z"/>
<path d="M7103 12573 c9 -2 23 -2 30 0 6 3 -1 5 -18 5 -16 0 -22 -2 -12 -5z"/>
<path d="M13553 12573 c9 -2 25 -2 35 0 9 3 1 5 -18 5 -19 0 -27 -2 -17 -5z"/>
<path d="M7183 12563 c9 -2 23 -2 30 0 6 3 -1 5 -18 5 -16 0 -22 -2 -12 -5z"/>
<path d="M13473 12563 c9 -2 25 -2 35 0 9 3 1 5 -18 5 -19 0 -27 -2 -17 -5z"/>
<path d="M7253 12553 c9 -2 25 -2 35 0 9 3 1 5 -18 5 -19 0 -27 -2 -17 -5z"/>
<path d="M13403 12553 c9 -2 25 -2 35 0 9 3 1 5 -18 5 -19 0 -27 -2 -17 -5z"/>
<path d="M7333 12543 c9 -2 25 -2 35 0 9 3 1 5 -18 5 -19 0 -27 -2 -17 -5z"/>
<path d="M13323 12543 c9 -2 25 -2 35 0 9 3 1 5 -18 5 -19 0 -27 -2 -17 -5z"/>
<path d="M7423 12533 c9 -2 25 -2 35 0 9 3 1 5 -18 5 -19 0 -27 -2 -17 -5z"/>
<path d="M13233 12533 c9 -2 23 -2 30 0 6 3 -1 5 -18 5 -16 0 -22 -2 -12 -5z"/>
<path d="M7503 12523 c9 -2 25 -2 35 0 9 3 1 5 -18 5 -19 0 -27 -2 -17 -5z"/>
<path d="M13153 12523 c9 -2 25 -2 35 0 9 3 1 5 -18 5 -19 0 -27 -2 -17 -5z"/>
<path d="M7583 12513 c9 -2 23 -2 30 0 6 3 -1 5 -18 5 -16 0 -22 -2 -12 -5z"/>
<path d="M13083 12513 c9 -2 23 -2 30 0 6 3 -1 5 -18 5 -16 0 -22 -2 -12 -5z"/>
<path d="M4198 12344 c-37 -20 -58 -63 -58 -119 0 -88 47 -135 135 -135 77 0
113 30 139 116 9 31 -21 99 -56 129 -23 20 -40 25 -81 25 -29 -1 -64 -7 -79
-16z"/>
<path d="M3572 12330 c-38 -23 -52 -54 -52 -117 0 -38 5 -50 34 -79 31 -31 40
-34 90 -34 47 0 61 4 87 28 60 54 48 171 -21 207 -40 21 -99 19 -138 -5z"/>
<path d="M16504 12316 c-30 -30 -34 -40 -34 -89 0 -45 5 -61 26 -86 36 -44 94
-58 150 -36 53 20 77 56 78 116 2 87 -42 129 -135 129 -45 0 -55 -4 -85 -34z"/>
<path d="M2921 12326 c-46 -25 -65 -99 -41 -160 26 -69 174 -74 210 -7 14 26
13 94 -2 126 -23 50 -112 72 -167 41z"/>
<path d="M17169 12311 c-25 -26 -29 -37 -29 -86 0 -49 4 -60 29 -86 25 -25 37
-29 84 -29 91 0 140 64 117 152 -15 54 -51 78 -117 78 -47 0 -59 -4 -84 -29z"/>
<path d="M16048 12211 c27 -23 28 -39 3 -60 -10 -9 -22 -27 -26 -41 -7 -24 -7
-24 16 -9 34 23 58 59 65 99 6 32 5 33 -8 16 -13 -17 -16 -17 -30 -2 -9 9 -23
16 -30 16 -8 -1 -4 -8 10 -19z"/>
<path d="M6393 12073 c20 -2 54 -2 75 0 20 2 3 4 -38 4 -41 0 -58 -2 -37 -4z"/>
<path d="M13307 12073 c94 -2 252 -2 350 0 98 1 21 2 -172 2 -192 1 -273 -1
-178 -2z"/>
<path d="M6573 12063 c20 -2 54 -2 75 0 20 2 3 4 -38 4 -41 0 -58 -2 -37 -4z"/>
<path d="M6763 12053 c20 -2 54 -2 75 0 20 2 3 4 -38 4 -41 0 -58 -2 -37 -4z"/>
<path d="M6947 12043 c18 -2 50 -2 70 0 21 2 7 4 -32 4 -38 0 -55 -2 -38 -4z"/>
<path d="M7173 12033 c20 -2 54 -2 75 0 20 2 3 4 -38 4 -41 0 -58 -2 -37 -4z"/>
<path d="M7363 12023 c20 -2 54 -2 75 0 20 2 3 4 -38 4 -41 0 -58 -2 -37 -4z"/>
<path d="M7523 12013 c9 -2 25 -2 35 0 9 3 1 5 -18 5 -19 0 -27 -2 -17 -5z"/>
<path d="M6140 11747 c-118 -62 -118 -245 0 -304 50 -26 77 -28 135 -12 160
45 160 288 0 328 -63 16 -87 14 -135 -12z"/>
<path d="M5525 11744 c-91 -47 -120 -136 -74 -230 38 -79 157 -108 233 -58 69
45 92 154 48 226 -41 66 -141 96 -207 62z"/>
<path d="M4837 11710 c-40 -35 -59 -90 -48 -145 16 -82 60 -115 154 -115 87 0
137 53 137 147 0 93 -53 143 -151 143 -50 0 -63 -4 -92 -30z"/>
<path d="M15913 11729 c-95 -28 -121 -177 -43 -243 37 -30 109 -43 149 -26 77
32 108 111 76 195 -25 66 -104 98 -182 74z"/>
<path d="M4193 11710 c-42 -25 -55 -51 -55 -116 -1 -88 44 -135 130 -136 91 0
145 51 145 138 0 49 -31 105 -68 122 -40 18 -116 15 -152 -8z"/>
<path d="M16533 11714 c-46 -23 -67 -60 -67 -119 0 -60 21 -97 69 -119 92 -44
195 19 195 119 0 102 -104 164 -197 119z"/>
<path d="M3584 11710 c-68 -27 -88 -142 -36 -201 54 -60 171 -48 207 21 32 62
11 146 -45 175 -31 16 -92 19 -126 5z"/>
<path d="M2921 11696 c-54 -30 -70 -133 -28 -181 24 -29 92 -43 142 -31 52 13
82 108 53 171 -23 50 -112 72 -167 41z"/>
<path d="M17188 11694 c-37 -20 -48 -43 -48 -104 0 -44 5 -56 29 -81 26 -25
37 -29 86 -29 49 0 60 4 86 29 25 26 29 37 29 86 0 49 -4 60 -29 86 -25 24
-37 29 -78 29 -26 -1 -60 -7 -75 -16z"/>
<path d="M15550 11559 c0 -7 -10 -23 -22 -36 -12 -13 -19 -26 -15 -29 9 -10
66 39 64 55 -3 18 -27 27 -27 10z"/>
<path d="M7198 11523 c56 -2 148 -2 205 0 56 1 10 3 -103 3 -113 0 -159 -2
-102 -3z"/>
<path d="M13193 11513 c15 -2 37 -2 50 0 12 2 0 4 -28 4 -27 0 -38 -2 -22 -4z"/>
<path d="M6499 11213 l-24 -28 28 24 c15 14 27 26 27 28 0 8 -8 1 -31 -24z"/>
<path d="M6140 11088 c-67 -35 -85 -66 -85 -148 0 -54 4 -74 21 -97 67 -90
199 -106 272 -33 l30 29 203 -180 c112 -100 210 -187 217 -194 11 -10 7 -16
-22 -35 -52 -31 -78 -87 -74 -157 l3 -56 69 99 c38 54 72 101 76 104 4 3 -107
106 -247 230 -139 124 -277 246 -306 272 l-52 47 54 49 54 49 -45 21 c-57 28
-112 28 -168 0z"/>
<path d="M5509 11077 c-77 -52 -100 -137 -59 -222 55 -113 229 -110 288 5 29
56 25 114 -11 169 -47 71 -150 94 -218 48z"/>
<path d="M4900 11080 c-78 -14 -111 -57 -111 -145 0 -97 48 -145 148 -145 96
0 148 60 141 162 -4 49 -9 64 -35 90 -34 33 -87 48 -143 38z"/>
<path d="M4223 11069 c-39 -11 -82 -62 -85 -97 -6 -118 38 -172 139 -172 71 0
114 33 134 104 14 49 -9 116 -50 146 -34 24 -95 32 -138 19z"/>
<path d="M15894 11061 c-89 -41 -95 -191 -8 -247 36 -24 128 -23 162 3 61 44
78 127 40 194 -37 66 -114 86 -194 50z"/>
<path d="M3603 11063 c-33 -6 -79 -57 -87 -94 -9 -47 10 -104 45 -133 43 -37
124 -37 167 -1 55 46 60 145 10 193 -39 36 -78 46 -135 35z"/>
<path d="M16519 11047 c-68 -46 -75 -152 -13 -206 47 -41 90 -48 148 -22 51
22 76 63 76 123 -1 103 -123 164 -211 105z"/>
<path d="M17220 11049 c-52 -11 -80 -49 -80 -110 0 -61 11 -84 50 -104 56 -29
145 -11 170 34 5 11 10 42 10 70 0 83 -61 129 -150 110z"/>
<path d="M2905 11027 c-20 -17 -28 -35 -32 -70 -10 -86 32 -137 112 -137 76 0
115 42 115 126 0 37 -6 51 -29 75 -25 25 -37 29 -85 29 -43 0 -61 -5 -81 -23z"/>
<path d="M7483 11043 c15 -2 37 -2 50 0 12 2 0 4 -28 4 -27 0 -38 -2 -22 -4z"/>
<path d="M7353 11033 c15 -2 37 -2 50 0 12 2 0 4 -28 4 -27 0 -38 -2 -22 -4z"/>
<path d="M17790 10995 c-25 -53 -22 -101 10 -130 20 -18 20 -17 20 78 0 54 -2
97 -4 97 -2 0 -14 -20 -26 -45z"/>
<path d="M7178 11023 c18 -2 45 -2 60 0 15 2 0 4 -33 4 -33 0 -45 -2 -27 -4z"/>
<path d="M13268 11023 c18 -2 45 -2 60 0 15 2 0 4 -33 4 -33 0 -45 -2 -27 -4z"/>
<path d="M7038 11013 c18 -2 45 -2 60 0 15 2 0 4 -33 4 -33 0 -45 -2 -27 -4z"/>
<path d="M13403 11013 c15 -2 39 -2 55 0 15 2 2 4 -28 4 -30 0 -43 -2 -27 -4z"/>
<path d="M15426 10989 c-8 -42 -7 -99 4 -124 7 -18 9 -18 20 10 13 33 9 120
-7 136 -7 7 -12 0 -17 -22z"/>
<path d="M6898 11003 c18 -2 45 -2 60 0 15 2 0 4 -33 4 -33 0 -45 -2 -27 -4z"/>
<path d="M13543 11003 c15 -2 39 -2 55 0 15 2 2 4 -28 4 -30 0 -43 -2 -27 -4z"/>
<path d="M6758 10993 c18 -2 45 -2 60 0 15 2 0 4 -33 4 -33 0 -45 -2 -27 -4z"/>
<path d="M13683 10993 c15 -2 39 -2 55 0 15 2 2 4 -28 4 -30 0 -43 -2 -27 -4z"/>
<path d="M6623 10983 c15 -2 37 -2 50 0 12 2 0 4 -28 4 -27 0 -38 -2 -22 -4z"/>
<path d="M13823 10983 c15 -2 37 -2 50 0 12 2 0 4 -28 4 -27 0 -38 -2 -22 -4z"/>
<path d="M6448 10973 c18 -2 45 -2 60 0 15 2 0 4 -33 4 -33 0 -45 -2 -27 -4z"/>
<path d="M13993 10973 c15 -2 39 -2 55 0 15 2 2 4 -28 4 -30 0 -43 -2 -27 -4z"/>
<path d="M6308 10963 c18 -2 45 -2 60 0 15 2 0 4 -33 4 -33 0 -45 -2 -27 -4z"/>
<path d="M14128 10963 c18 -2 45 -2 60 0 15 2 0 4 -33 4 -33 0 -45 -2 -27 -4z"/>
<path d="M14268 10953 c18 -2 45 -2 60 0 15 2 0 4 -33 4 -33 0 -45 -2 -27 -4z"/>
<path d="M7583 10533 c9 -2 23 -2 30 0 6 3 -1 5 -18 5 -16 0 -22 -2 -12 -5z"/>
<path d="M7513 10523 c9 -2 23 -2 30 0 6 3 -1 5 -18 5 -16 0 -22 -2 -12 -5z"/>
<path d="M7453 10513 c9 -2 23 -2 30 0 6 3 -1 5 -18 5 -16 0 -22 -2 -12 -5z"/>
<path d="M13123 10513 c9 -2 23 -2 30 0 6 3 -1 5 -18 5 -16 0 -22 -2 -12 -5z"/>
<path d="M7373 10503 c9 -2 23 -2 30 0 6 3 -1 5 -18 5 -16 0 -22 -2 -12 -5z"/>
<path d="M13208 10503 c6 -2 18 -2 25 0 6 3 1 5 -13 5 -14 0 -19 -2 -12 -5z"/>
<path d="M7303 10493 c9 -2 23 -2 30 0 6 3 -1 5 -18 5 -16 0 -22 -2 -12 -5z"/>
<path d="M13273 10493 c9 -2 23 -2 30 0 6 3 -1 5 -18 5 -16 0 -22 -2 -12 -5z"/>
<path d="M7233 10483 c9 -2 23 -2 30 0 6 3 -1 5 -18 5 -16 0 -22 -2 -12 -5z"/>
<path d="M13343 10483 c9 -2 23 -2 30 0 6 3 -1 5 -18 5 -16 0 -22 -2 -12 -5z"/>
<path d="M7173 10473 c9 -2 23 -2 30 0 6 3 -1 5 -18 5 -16 0 -22 -2 -12 -5z"/>
<path d="M13403 10473 c9 -2 23 -2 30 0 6 3 -1 5 -18 5 -16 0 -22 -2 -12 -5z"/>
<path d="M7088 10463 c6 -2 18 -2 25 0 6 3 1 5 -13 5 -14 0 -19 -2 -12 -5z"/>
<path d="M13488 10463 c6 -2 18 -2 25 0 6 3 1 5 -13 5 -14 0 -19 -2 -12 -5z"/>
<path d="M7023 10453 c9 -2 23 -2 30 0 6 3 -1 5 -18 5 -16 0 -22 -2 -12 -5z"/>
<path d="M13553 10453 c9 -2 23 -2 30 0 6 3 -1 5 -18 5 -16 0 -22 -2 -12 -5z"/>
<path d="M6145 10434 c-47 -24 -74 -54 -85 -93 -37 -133 36 -231 171 -231 64
0 118 31 146 83 25 47 22 135 -6 180 -41 67 -156 98 -226 61z"/>
<path d="M6953 10443 c9 -2 23 -2 30 0 6 3 -1 5 -18 5 -16 0 -22 -2 -12 -5z"/>
<path d="M13623 10443 c9 -2 23 -2 30 0 6 3 -1 5 -18 5 -16 0 -22 -2 -12 -5z"/>
<path d="M5512 10423 c-97 -47 -111 -210 -23 -272 70 -50 155 -45 217 12 79
73 59 213 -38 263 -36 19 -115 17 -156 -3z"/>
<path d="M6883 10433 c9 -2 23 -2 30 0 6 3 -1 5 -18 5 -16 0 -22 -2 -12 -5z"/>
<path d="M13693 10433 c9 -2 23 -2 30 0 6 3 -1 5 -18 5 -16 0 -22 -2 -12 -5z"/>
<path d="M4870 10417 c-53 -19 -80 -67 -80 -143 0 -52 4 -67 25 -93 46 -54
148 -66 211 -24 74 48 70 209 -5 247 -40 21 -112 27 -151 13z"/>
<path d="M13753 10423 c9 -2 23 -2 30 0 6 3 -1 5 -18 5 -16 0 -22 -2 -12 -5z"/>
<path d="M4214 10406 c-51 -22 -74 -61 -74 -123 0 -30 7 -67 15 -82 20 -40 77
-64 137 -59 57 6 84 27 110 85 21 47 15 95 -18 142 -33 46 -110 63 -170 37z"/>
<path d="M15892 10403 c-43 -21 -66 -66 -65 -129 1 -87 49 -134 140 -134 60 0
104 26 126 73 22 45 21 82 -2 133 -31 68 -123 95 -199 57z"/>
<path d="M16534 10400 c-32 -13 -62 -56 -69 -100 -8 -48 16 -103 57 -134 35
-25 104 -26 146 -1 80 48 82 181 3 228 -31 18 -101 22 -137 7z"/>
<path d="M2943 10389 c-46 -13 -73 -53 -73 -106 0 -63 22 -100 69 -114 87 -26
150 14 159 101 6 60 -13 95 -63 116 -39 16 -47 16 -92 3z"/>
<path d="M3571 10386 c-33 -18 -50 -53 -51 -104 0 -79 50 -132 126 -132 119 0
170 166 72 234 -27 20 -114 21 -147 2z"/>
<path d="M17194 10384 c-39 -19 -54 -51 -54 -112 1 -71 42 -112 115 -112 71 0
116 42 118 112 3 100 -88 157 -179 112z"/>
<path d="M7688 10013 c6 -2 18 -2 25 0 6 3 1 5 -13 5 -14 0 -19 -2 -12 -5z"/>
<path d="M7628 10003 c6 -2 18 -2 25 0 6 3 1 5 -13 5 -14 0 -19 -2 -12 -5z"/>
<path d="M12978 10003 c7 -3 16 -2 19 1 4 3 -2 6 -13 5 -11 0 -14 -3 -6 -6z"/>
<path d="M7588 9993 c7 -3 16 -2 19 1 4 3 -2 6 -13 5 -11 0 -14 -3 -6 -6z"/>
<path d="M13028 9993 c7 -3 16 -2 19 1 4 3 -2 6 -13 5 -11 0 -14 -3 -6 -6z"/>
<path d="M7538 9983 c7 -3 16 -2 19 1 4 3 -2 6 -13 5 -11 0 -14 -3 -6 -6z"/>
<path d="M13068 9983 c6 -2 18 -2 25 0 6 3 1 5 -13 5 -14 0 -19 -2 -12 -5z"/>
<path d="M7488 9973 c7 -3 16 -2 19 1 4 3 -2 6 -13 5 -11 0 -14 -3 -6 -6z"/>
<path d="M13118 9973 c6 -2 18 -2 25 0 6 3 1 5 -13 5 -14 0 -19 -2 -12 -5z"/>
<path d="M7428 9963 c6 -2 18 -2 25 0 6 3 1 5 -13 5 -14 0 -19 -2 -12 -5z"/>
<path d="M13178 9963 c6 -2 18 -2 25 0 6 3 1 5 -13 5 -14 0 -19 -2 -12 -5z"/>
<path d="M7378 9953 c6 -2 18 -2 25 0 6 3 1 5 -13 5 -14 0 -19 -2 -12 -5z"/>
<path d="M13228 9953 c6 -2 18 -2 25 0 6 3 1 5 -13 5 -14 0 -19 -2 -12 -5z"/>
<path d="M7328 9943 c6 -2 18 -2 25 0 6 3 1 5 -13 5 -14 0 -19 -2 -12 -5z"/>
<path d="M13278 9943 c6 -2 18 -2 25 0 6 3 1 5 -13 5 -14 0 -19 -2 -12 -5z"/>
<path d="M7278 9933 c6 -2 18 -2 25 0 6 3 1 5 -13 5 -14 0 -19 -2 -12 -5z"/>
<path d="M13328 9933 c7 -3 16 -2 19 1 4 3 -2 6 -13 5 -11 0 -14 -3 -6 -6z"/>
<path d="M7218 9923 c6 -2 18 -2 25 0 6 3 1 5 -13 5 -14 0 -19 -2 -12 -5z"/>
<path d="M13388 9923 c7 -3 16 -2 19 1 4 3 -2 6 -13 5 -11 0 -14 -3 -6 -6z"/>
<path d="M7168 9913 c6 -2 18 -2 25 0 6 3 1 5 -13 5 -14 0 -19 -2 -12 -5z"/>
<path d="M13438 9913 c7 -3 16 -2 19 1 4 3 -2 6 -13 5 -11 0 -14 -3 -6 -6z"/>
<path d="M7128 9903 c7 -3 16 -2 19 1 4 3 -2 6 -13 5 -11 0 -14 -3 -6 -6z"/>
<path d="M13478 9903 c6 -2 18 -2 25 0 6 3 1 5 -13 5 -14 0 -19 -2 -12 -5z"/>
<path d="M7078 9893 c7 -3 16 -2 19 1 4 3 -2 6 -13 5 -11 0 -14 -3 -6 -6z"/>
<path d="M13528 9893 c6 -2 18 -2 25 0 6 3 1 5 -13 5 -14 0 -19 -2 -12 -5z"/>
<path d="M7018 9883 c6 -2 18 -2 25 0 6 3 1 5 -13 5 -14 0 -19 -2 -12 -5z"/>
<path d="M13588 9883 c6 -2 18 -2 25 0 6 3 1 5 -13 5 -14 0 -19 -2 -12 -5z"/>
<path d="M6968 9873 c6 -2 18 -2 25 0 6 3 1 5 -13 5 -14 0 -19 -2 -12 -5z"/>
<path d="M13638 9873 c6 -2 18 -2 25 0 6 3 1 5 -13 5 -14 0 -19 -2 -12 -5z"/>
<path d="M6918 9863 c6 -2 18 -2 25 0 6 3 1 5 -13 5 -14 0 -19 -2 -12 -5z"/>
<path d="M13688 9863 c6 -2 18 -2 25 0 6 3 1 5 -13 5 -14 0 -19 -2 -12 -5z"/>
<path d="M6868 9853 c6 -2 18 -2 25 0 6 3 1 5 -13 5 -14 0 -19 -2 -12 -5z"/>
<path d="M13738 9853 c7 -3 16 -2 19 1 4 3 -2 6 -13 5 -11 0 -14 -3 -6 -6z"/>
<path d="M6828 9843 c7 -3 16 -2 19 1 4 3 -2 6 -13 5 -11 0 -14 -3 -6 -6z"/>
<path d="M13788 9843 c7 -3 16 -2 19 1 4 3 -2 6 -13 5 -11 0 -14 -3 -6 -6z"/>
<path d="M6758 9833 c6 -2 18 -2 25 0 6 3 1 5 -13 5 -14 0 -19 -2 -12 -5z"/>
<path d="M13838 9833 c6 -2 18 -2 25 0 6 3 1 5 -13 5 -14 0 -19 -2 -12 -5z"/>
<path d="M6718 9823 c7 -3 16 -2 19 1 4 3 -2 6 -13 5 -11 0 -14 -3 -6 -6z"/>
<path d="M13888 9823 c6 -2 18 -2 25 0 6 3 1 5 -13 5 -14 0 -19 -2 -12 -5z"/>
<path d="M6153 9809 c-65 -19 -111 -111 -98 -196 8 -54 52 -107 102 -124 48
-15 133 -7 166 17 41 30 71 92 70 144 -2 125 -110 197 -240 159z"/>
<path d="M6668 9813 c6 -2 18 -2 25 0 6 3 1 5 -13 5 -14 0 -19 -2 -12 -5z"/>
<path d="M13938 9813 c6 -2 18 -2 25 0 6 3 1 5 -13 5 -14 0 -19 -2 -12 -5z"/>
<path d="M5514 9791 c-47 -22 -84 -84 -84 -142 0 -51 39 -119 80 -141 46 -25
138 -21 178 8 60 44 81 136 47 207 -37 78 -136 108 -221 68z"/>
<path d="M6618 9803 c7 -3 16 -2 19 1 4 3 -2 6 -13 5 -11 0 -14 -3 -6 -6z"/>
<path d="M13988 9803 c6 -2 18 -2 25 0 6 3 1 5 -13 5 -14 0 -19 -2 -12 -5z"/>
<path d="M4889 9791 c-47 -15 -66 -30 -84 -67 -21 -45 -21 -113 0 -155 33 -63
153 -87 219 -44 75 49 73 203 -2 247 -34 20 -99 29 -133 19z"/>
<path d="M6558 9793 c6 -2 18 -2 25 0 6 3 1 5 -13 5 -14 0 -19 -2 -12 -5z"/>
<path d="M14048 9793 c6 -2 18 -2 25 0 6 3 1 5 -13 5 -14 0 -19 -2 -12 -5z"/>
<path d="M4224 9780 c-53 -17 -78 -53 -82 -123 -3 -51 0 -66 17 -88 25 -32 79
-59 116 -59 41 0 95 30 116 64 37 60 15 166 -39 195 -30 16 -93 21 -128 11z"/>
<path d="M6508 9783 c6 -2 18 -2 25 0 6 3 1 5 -13 5 -14 0 -19 -2 -12 -5z"/>
<path d="M14098 9783 c6 -2 18 -2 25 0 6 3 1 5 -13 5 -14 0 -19 -2 -12 -5z"/>
<path d="M15904 9780 c-11 -4 -33 -22 -47 -40 -22 -26 -27 -42 -27 -86 0 -30
7 -68 15 -83 28 -56 135 -80 196 -44 63 37 85 137 44 200 -35 53 -120 78 -181
53z"/>
<path d="M6458 9773 c6 -2 18 -2 25 0 6 3 1 5 -13 5 -14 0 -19 -2 -12 -5z"/>
<path d="M14148 9773 c7 -3 16 -2 19 1 4 3 -2 6 -13 5 -11 0 -14 -3 -6 -6z"/>
<path d="M16533 9765 c-41 -17 -63 -61 -63 -123 0 -83 56 -130 146 -119 55 6
90 36 104 88 31 115 -75 203 -187 154z"/>
<path d="M2930 9753 c-42 -22 -60 -54 -60 -110 0 -86 90 -138 172 -99 42 20
58 51 58 111 0 88 -90 139 -170 98z"/>
<path d="M3571 9756 c-65 -36 -70 -168 -7 -210 55 -36 132 -28 175 18 46 48
37 144 -17 186 -29 24 -113 27 -151 6z"/>
<path d="M6390 9760 c0 -3 69 -35 152 -71 84 -36 155 -72 158 -80 38 -83 47
-95 90 -116 49 -25 98 -29 162 -12 41 10 48 9 141 -35 53 -25 97 -42 97 -37 0
5 -80 43 -177 86 -501 217 -593 259 -581 267 8 5 3 7 -14 6 -16 -1 -28 -5 -28
-8z"/>
<path d="M14198 9763 c7 -3 16 -2 19 1 4 3 -2 6 -13 5 -11 0 -14 -3 -6 -6z"/>
<path d="M17194 9754 c-37 -18 -54 -51 -54 -105 0 -77 41 -119 116 -119 70 0
115 43 117 112 3 100 -88 157 -179 112z"/>
<path d="M14248 9753 c6 -2 18 -2 25 0 6 3 1 5 -13 5 -14 0 -19 -2 -12 -5z"/>
<path d="M7810 9595 c-19 -7 -28 -13 -20 -13 8 0 31 6 50 13 19 7 28 13 20 13
-8 0 -31 -6 -50 -13z"/>
<path d="M12836 9591 c9 -9 83 -27 74 -18 -3 3 -23 10 -44 16 -22 5 -35 6 -30
2z"/>
<path d="M7725 9570 c-13 -5 -14 -9 -5 -9 8 0 24 4 35 9 13 5 14 9 5 9 -8 0
-24 -4 -35 -9z"/>
<path d="M7640 9545 c-19 -7 -28 -13 -20 -13 8 0 31 6 50 13 19 7 28 13 20 13
-8 0 -31 -6 -50 -13z"/>
<path d="M12980 9545 c19 -7 42 -13 50 -13 8 0 -1 6 -20 13 -19 7 -42 13 -50
13 -8 0 1 -6 20 -13z"/>
<path d="M7555 9520 c-13 -5 -14 -9 -5 -9 8 0 24 4 35 9 13 5 14 9 5 9 -8 0
-24 -4 -35 -9z"/>
<path d="M13065 9520 c11 -5 27 -9 35 -9 9 0 8 4 -5 9 -11 5 -27 9 -35 9 -9 0
-8 -4 5 -9z"/>
<path d="M7478 9493 c7 -3 16 -2 19 1 4 3 -2 6 -13 5 -11 0 -14 -3 -6 -6z"/>
<path d="M13158 9493 c7 -3 16 -2 19 1 4 3 -2 6 -13 5 -11 0 -14 -3 -6 -6z"/>
<path d="M7370 9465 c-19 -7 -28 -13 -20 -13 8 0 31 6 50 13 19 7 28 13 20 13
-8 0 -31 -6 -50 -13z"/>
<path d="M13250 9465 c19 -7 42 -13 50 -13 8 0 -1 6 -20 13 -19 7 -42 13 -50
13 -8 0 1 -6 20 -13z"/>
<path d="M7308 9443 c7 -3 16 -2 19 1 4 3 -2 6 -13 5 -11 0 -14 -3 -6 -6z"/>
<path d="M7215 9420 c-13 -5 -14 -9 -5 -9 8 0 24 4 35 9 13 5 14 9 5 9 -8 0
-24 -4 -35 -9z"/>
<path d="M13405 9420 c11 -5 27 -9 35 -9 9 0 8 4 -5 9 -11 5 -27 9 -35 9 -9 0
-8 -4 5 -9z"/>
<path d="M8030 9175 c-14 -8 -20 -14 -15 -14 6 0 21 6 35 14 14 8 21 14 15 14
-5 0 -21 -6 -35 -14z"/>
<path d="M6834 9161 c-77 -19 -124 -83 -124 -168 1 -114 67 -177 183 -172 l62
3 22 55 c11 31 33 86 47 123 l25 67 -25 31 c-45 53 -122 77 -190 61z"/>
<path d="M12650 9160 c8 -5 20 -10 25 -10 6 0 3 5 -5 10 -8 5 -19 10 -25 10
-5 0 -3 -5 5 -10z"/>
<path d="M6155 9141 c-67 -31 -88 -62 -93 -135 -5 -70 8 -104 53 -146 22 -21
38 -25 98 -28 62 -3 77 -1 107 20 51 34 72 81 68 149 -5 68 -35 114 -92 140
-52 23 -90 23 -141 0z"/>
<path d="M7955 9140 c-3 -6 1 -7 9 -4 18 7 21 14 7 14 -6 0 -13 -4 -16 -10z"/>
<path d="M5502 9120 c-58 -36 -80 -134 -46 -206 32 -66 139 -94 213 -56 54 27
74 62 75 129 1 103 -50 153 -156 153 -36 0 -64 -7 -86 -20z"/>
<path d="M15259 9131 c-47 -15 -66 -30 -83 -65 -31 -66 -14 -153 39 -194 21
-17 41 -22 87 -22 100 0 148 47 148 145 0 54 -19 95 -54 119 -31 20 -101 29
-137 17z"/>
<path d="M4220 9117 c-96 -34 -110 -196 -20 -242 43 -22 122 -20 154 6 72 57
73 176 1 223 -33 22 -94 28 -135 13z"/>
<path d="M4848 9112 c-82 -50 -74 -205 12 -249 38 -19 120 -16 156 6 39 24 69
95 61 146 -7 44 -42 93 -74 106 -39 15 -125 10 -155 -9z"/>
<path d="M7870 9100 c-30 -16 -50 -29 -45 -29 6 0 35 13 65 29 30 16 51 29 45
29 -5 0 -35 -13 -65 -29z"/>
<path d="M15905 9120 c-44 -18 -69 -58 -73 -118 -5 -73 23 -120 83 -140 78
-26 145 2 177 74 30 69 9 135 -55 174 -33 21 -96 25 -132 10z"/>
<path d="M16531 9103 c-69 -34 -82 -151 -22 -205 27 -24 40 -28 89 -28 31 0
64 6 72 13 50 39 65 119 34 178 -28 54 -108 74 -173 42z"/>
<path d="M2950 9103 c-69 -22 -88 -58 -70 -132 18 -77 45 -98 120 -92 83 6
125 93 84 172 -22 43 -86 68 -134 52z"/>
<path d="M3561 9085 c-59 -50 -48 -165 18 -199 37 -20 93 -20 129 -2 69 36 78
157 15 205 -39 32 -122 29 -162 -4z"/>
<path d="M12800 9090 c19 -11 40 -19 45 -19 6 0 -6 8 -25 19 -19 11 -39 19
-45 19 -5 0 6 -8 25 -19z"/>
<path d="M17204 9100 c-62 -25 -86 -129 -44 -183 43 -54 142 -56 185 -5 28 33
34 98 14 142 -21 45 -100 68 -155 46z"/>
<path d="M7785 9060 c-3 -6 1 -7 9 -4 18 7 21 14 7 14 -6 0 -13 -4 -16 -10z"/>
<path d="M7745 9040 c-3 -6 1 -7 9 -4 18 7 21 14 7 14 -6 0 -13 -4 -16 -10z"/>
<path d="M7680 9010 c-19 -11 -30 -19 -25 -19 6 0 26 8 45 19 19 11 31 19 25
19 -5 0 -26 -8 -45 -19z"/>
<path d="M12980 9005 c25 -13 50 -24 55 -24 6 0 -10 11 -35 24 -25 13 -49 24
-55 24 -5 0 10 -11 35 -24z"/>
<path d="M13057 8969 c7 -7 15 -10 18 -7 3 3 -2 9 -12 12 -14 6 -15 5 -6 -5z"/>
<path d="M7510 8930 c-19 -11 -30 -19 -25 -19 6 0 26 8 45 19 19 11 31 19 25
19 -5 0 -26 -8 -45 -19z"/>
<path d="M13170 8915 c36 -19 70 -34 75 -34 6 0 -19 15 -55 34 -36 19 -69 34
-75 34 -5 0 19 -15 55 -34z"/>
<path d="M7340 8850 c-19 -11 -30 -19 -25 -19 6 0 26 8 45 19 19 11 31 19 25
19 -5 0 -26 -8 -45 -19z"/>
<path d="M13280 8866 c0 -2 7 -7 16 -10 8 -3 12 -2 9 4 -6 10 -25 14 -25 6z"/>
<path d="M13360 8825 c25 -13 50 -24 55 -24 6 0 -10 11 -35 24 -25 13 -49 24
-55 24 -5 0 10 -11 35 -24z"/>
<path d="M7280 8820 c-9 -6 -10 -10 -3 -10 6 0 15 5 18 10 8 12 4 12 -15 0z"/>
<path d="M7170 8770 c-19 -11 -30 -19 -25 -19 6 0 26 8 45 19 19 11 31 19 25
19 -5 0 -26 -8 -45 -19z"/>
<path d="M8223 8742 c-40 -26 -118 -76 -173 -112 -55 -36 -144 -93 -198 -128
-53 -35 -110 -70 -127 -77 -16 -8 -23 -14 -14 -15 8 0 69 34 135 76 65 42 193
124 284 182 172 109 191 122 175 121 -6 0 -43 -21 -82 -47z"/>
<path d="M13450 8786 c0 -2 7 -7 16 -10 8 -3 12 -2 9 4 -6 10 -25 14 -25 6z"/>
<path d="M13490 8766 c0 -2 7 -7 16 -10 8 -3 12 -2 9 4 -6 10 -25 14 -25 6z"/>
<path d="M7110 8740 c-9 -6 -10 -10 -3 -10 6 0 15 5 18 10 8 12 4 12 -15 0z"/>
<path d="M13560 8730 c19 -11 40 -19 45 -19 6 0 -6 8 -25 19 -19 11 -39 19
-45 19 -5 0 6 -8 25 -19z"/>
<path d="M6956 8670 c-43 -22 -73 -42 -65 -44 41 -14 301 -77 304 -74 3 2 -61
21 -142 43 l-146 38 74 38 c41 21 70 38 64 38 -5 0 -46 -18 -89 -39z"/>
<path d="M7218 8543 c7 -3 16 -2 19 1 4 3 -2 6 -13 5 -11 0 -14 -3 -6 -6z"/>
<path d="M7265 8530 c11 -5 27 -9 35 -9 9 0 8 4 -5 9 -11 5 -27 9 -35 9 -9 0
-8 -4 5 -9z"/>
<path d="M7328 8513 c7 -3 16 -2 19 1 4 3 -2 6 -13 5 -11 0 -14 -3 -6 -6z"/>
<path d="M6836 8497 c-57 -14 -113 -75 -121 -129 -12 -80 20 -154 78 -185 45
-23 136 -22 177 3 54 31 74 67 78 137 4 80 -18 123 -79 154 -58 28 -86 32
-133 20z"/>
<path d="M7383 8498 l27 -10 -29 -34 c-34 -38 -45 -84 -39 -153 9 -90 70 -141
170 -141 65 0 115 24 145 68 27 42 39 113 25 158 -7 25 -7 34 1 35 7 0 -60 20
-148 45 -152 41 -213 54 -152 32z"/>
<path d="M4861 8483 c-46 -23 -75 -88 -66 -146 19 -111 167 -155 245 -72 32
34 41 132 16 170 -40 61 -126 82 -195 48z"/>
<path d="M13305 8490 c-13 -5 -14 -9 -5 -9 8 0 24 4 35 9 13 5 14 9 5 9 -8 0
-24 -4 -35 -9z"/>
<path d="M4203 8470 c-42 -25 -55 -52 -55 -111 0 -59 21 -96 67 -115 67 -27
142 -7 169 45 21 39 21 120 0 149 -36 52 -123 68 -181 32z"/>
<path d="M6133 8470 c-56 -33 -83 -115 -64 -187 35 -129 225 -151 290 -34 45
81 25 169 -49 218 -44 30 -131 32 -177 3z"/>
<path d="M3578 8464 c-38 -20 -48 -43 -48 -107 0 -45 4 -59 25 -80 49 -48 143
-43 185 10 23 29 27 97 8 138 -23 51 -111 71 -170 39z"/>
<path d="M5514 8464 c-44 -21 -64 -62 -64 -129 0 -98 46 -147 139 -148 119 -1
188 114 133 223 -31 63 -135 90 -208 54z"/>
<path d="M15260 8470 c-67 -16 -98 -72 -91 -165 6 -67 66 -115 142 -115 105 0
175 126 119 217 -34 56 -98 80 -170 63z"/>
<path d="M15900 8452 c-67 -33 -90 -129 -47 -193 28 -42 60 -59 112 -59 52 0
84 17 112 59 59 88 -6 211 -112 211 -16 0 -46 -8 -65 -18z"/>
<path d="M14727 8453 c-4 -3 -3 -11 2 -17 4 -6 11 -33 15 -61 3 -27 9 -62 12
-76 5 -22 0 -30 -32 -50 -21 -13 -61 -31 -89 -40 l-50 -17 36 -7 c138 -26 226
117 149 243 -19 32 -30 38 -43 25z"/>
<path d="M16509 8421 c-26 -26 -29 -37 -29 -89 0 -51 4 -63 26 -85 49 -49 156
-44 190 8 39 60 22 159 -32 184 -14 6 -48 11 -75 11 -42 0 -55 -5 -80 -29z"/>
<path d="M17205 8441 c-43 -18 -60 -50 -60 -113 0 -53 3 -62 28 -84 37 -31 81
-31 112 1 14 13 25 32 25 42 0 10 7 31 15 47 33 63 5 116 -62 115 -21 0 -47
-4 -58 -8z"/>
<path d="M8467 8310 c-75 -61 -137 -113 -137 -116 0 -2 57 41 128 97 134 107
159 129 152 129 -3 0 -67 -50 -143 -110z"/>
<path d="M12091 8398 c2 -2 18 -14 34 -28 l30 -25 -24 28 c-14 15 -29 27 -34
27 -6 0 -8 -1 -6 -2z"/>
<path d="M7711 8364 c0 -11 3 -14 6 -6 3 7 2 16 -1 19 -3 4 -6 -2 -5 -13z"/>
<path d="M12175 8330 c10 -11 20 -20 23 -20 3 0 -3 9 -13 20 -10 11 -20 20
-23 20 -3 0 3 -9 13 -20z"/>
<path d="M12210 8307 c0 -3 44 -39 98 -82 53 -42 80 -61 60 -42 -48 43 -158
130 -158 124z"/>
<path d="M7691 8204 c0 -11 3 -14 6 -6 3 7 2 16 -1 19 -3 4 -6 -2 -5 -13z"/>
<path d="M8294 8168 l-19 -23 23 19 c21 18 27 26 19 26 -2 0 -12 -10 -23 -22z"/>
<path d="M7982 7921 c-156 -125 -291 -236 -300 -246 -9 -10 119 91 286 224
260 209 314 254 300 250 -2 0 -130 -103 -286 -228z"/>
<path d="M12410 8146 c0 -3 90 -78 200 -166 110 -88 200 -158 200 -156 0 3
-90 78 -200 166 -110 88 -200 158 -200 156z"/>
<path d="M8915 7988 c-78 -80 -62 -73 22 9 47 47 60 63 50 63 -1 0 -34 -32
-72 -72z"/>
<path d="M11760 7985 c35 -36 67 -65 69 -65 3 0 -24 29 -59 65 -35 36 -67 65
-69 65 -3 0 24 -29 59 -65z"/>
<path d="M7651 7914 c0 -11 3 -14 6 -6 3 7 2 16 -1 19 -3 4 -6 -2 -5 -13z"/>
<path d="M13733 7882 c-13 -2 -23 -7 -23 -12 0 -7 68 -3 78 5 6 5 -34 10 -55
7z"/>
<path d="M6835 7861 c-48 -12 -74 -33 -95 -77 -43 -89 -13 -190 67 -226 53
-23 125 -20 167 8 33 21 63 69 71 117 9 48 -30 134 -73 159 -35 21 -97 29
-137 19z"/>
<path d="M7434 7860 c-47 -19 -94 -102 -94 -168 0 -89 102 -172 194 -156 54 9
92 29 112 59 16 24 18 25 123 20 126 -5 107 1 -32 10 -89 6 -97 8 -85 23 9 12
6 11 -10 -2 -22 -19 -22 -19 -22 0 0 10 7 62 14 114 8 52 13 97 10 99 -2 2 -4
-3 -4 -12 0 -15 -4 -15 -37 3 -40 21 -129 26 -169 10z"/>
<path d="M13610 7850 c-27 -21 -24 -23 30 -20 44 2 48 7 24 25 -24 18 -24 18
-54 -5z"/>
<path d="M13965 7849 c-64 -20 -97 -68 -99 -142 -1 -126 110 -192 230 -138
103 47 100 215 -6 269 -47 23 -76 26 -125 11z"/>
<path d="M5535 7836 c-52 -23 -78 -60 -82 -118 -7 -95 49 -158 140 -158 88 0
140 54 140 146 0 66 -21 99 -76 125 -49 22 -81 23 -122 5z"/>
<path d="M6134 7831 c-39 -24 -59 -72 -58 -137 0 -88 54 -138 149 -138 93 0
145 54 145 152 0 55 -29 108 -70 129 -38 19 -130 16 -166 -6z"/>
<path d="M14574 7831 c-98 -44 -96 -216 3 -257 75 -32 166 -7 196 53 26 52 27
98 4 145 -38 74 -119 97 -203 59z"/>
<path d="M4871 7823 c-88 -44 -96 -186 -12 -236 34 -20 105 -22 141 -4 36 18
70 74 70 116 0 106 -104 171 -199 124z"/>
<path d="M15228 7822 c-78 -48 -77 -196 2 -237 38 -19 113 -19 151 1 31 15 68
80 69 118 0 34 -38 101 -69 119 -38 22 -117 22 -153 -1z"/>
<path d="M4212 7815 c-58 -26 -80 -120 -42 -182 35 -59 145 -69 195 -18 47 46
41 155 -10 189 -36 24 -104 29 -143 11z"/>
<path d="M15898 7815 c-54 -30 -74 -114 -43 -175 36 -69 153 -81 207 -21 23
26 28 40 28 86 0 46 -5 60 -28 86 -24 27 -37 33 -83 36 -36 2 -63 -2 -81 -12z"/>
<path d="M3578 7804 c-37 -20 -48 -43 -48 -104 0 -60 25 -92 84 -109 38 -10
52 -8 94 12 69 33 69 167 1 203 -36 18 -96 17 -131 -2z"/>
<path d="M12835 7800 c10 -11 20 -20 23 -20 3 0 -3 9 -13 20 -10 11 -20 20
-23 20 -3 0 3 -9 13 -20z"/>
<path d="M16531 7807 c-70 -41 -67 -173 4 -205 14 -7 46 -12 71 -12 37 0 51 6
75 29 25 25 29 37 29 85 0 78 -27 108 -101 113 -34 2 -63 -2 -78 -10z"/>
<path d="M8597 7672 l-107 -107 -47 2 c-55 3 -47 -4 12 -10 39 -3 42 -1 149
105 60 60 107 110 104 113 -2 2 -52 -44 -111 -103z"/>
<path d="M7908 7603 c18 -2 45 -2 60 0 15 2 0 4 -33 4 -33 0 -45 -2 -27 -4z"/>
<path d="M8040 7580 c58 -53 147 -65 215 -30 22 11 55 21 75 21 19 1 -3 5 -50
9 -47 4 -125 11 -175 15 l-90 7 25 -22z"/>
<path d="M12668 7583 c12 -2 32 -2 45 0 12 2 2 4 -23 4 -25 0 -35 -2 -22 -4z"/>
<path d="M8140 7211 c-94 -29 -130 -75 -130 -167 0 -72 26 -119 80 -146 72
-36 186 -11 222 49 61 104 16 225 -95 258 -28 8 -51 15 -51 14 -1 0 -12 -4
-26 -8z"/>
<path d="M7463 7199 c-51 -15 -101 -71 -108 -122 -12 -79 18 -143 82 -176 37
-19 131 -14 168 9 63 39 85 147 47 220 -31 58 -120 90 -189 69z"/>
<path d="M12645 7203 c-32 -8 -74 -42 -90 -73 -37 -72 -8 -192 54 -224 104
-54 213 -11 246 97 37 125 -77 233 -210 200z"/>
<path d="M6830 7190 c-107 -26 -135 -204 -41 -267 47 -32 146 -33 186 -1 76
59 72 201 -7 251 -30 20 -95 27 -138 17z"/>
<path d="M13305 7193 c-62 -16 -95 -67 -95 -148 0 -103 47 -149 152 -149 66
-1 103 20 130 75 66 127 -44 258 -187 222z"/>
<path d="M6150 7172 c-62 -34 -88 -121 -56 -195 26 -64 112 -93 189 -63 100
38 114 184 25 249 -38 29 -114 33 -158 9z"/>
<path d="M13943 7175 c-48 -21 -68 -59 -68 -130 1 -73 20 -107 76 -129 69 -28
141 -15 183 33 28 31 34 127 11 174 -29 61 -125 86 -202 52z"/>
<path d="M14609 7180 c-72 -21 -99 -60 -99 -141 0 -44 4 -55 33 -84 18 -18 51
-38 73 -45 36 -11 47 -10 87 8 54 24 78 57 84 115 10 97 -84 176 -178 147z"/>
<path d="M5519 7165 c-41 -22 -62 -62 -62 -120 0 -86 49 -135 135 -135 55 0
87 17 115 59 41 60 26 144 -33 190 -32 25 -114 28 -155 6z"/>
<path d="M15243 7165 c-78 -34 -91 -161 -23 -219 44 -36 89 -42 143 -18 52 23
77 62 77 119 0 99 -102 160 -197 118z"/>
<path d="M4874 7160 c-68 -27 -88 -142 -36 -201 54 -60 171 -48 207 21 32 62
11 146 -45 175 -31 16 -92 19 -126 5z"/>
<path d="M15923 7163 c-58 -11 -93 -92 -70 -160 17 -50 56 -76 112 -76 57 0
90 17 110 58 19 42 19 78 -2 122 -24 51 -76 70 -150 56z"/>
<path d="M4189 7131 c-25 -26 -29 -37 -29 -86 0 -49 4 -60 29 -86 26 -25 37
-29 86 -29 49 0 60 4 86 29 25 26 29 37 29 86 0 49 -4 60 -29 86 -26 25 -37
29 -86 29 -49 0 -60 -4 -86 -29z"/>
<path d="M16520 7133 c-59 -53 -50 -162 15 -189 62 -26 113 7 145 93 27 71 26
80 -12 103 -49 30 -110 27 -148 -7z"/>
<path d="M12121 7104 c0 -11 3 -14 6 -6 3 7 2 16 -1 19 -3 4 -6 -2 -5 -13z"/>
<path d="M9493 6942 c-62 -21 -115 -40 -118 -44 -4 -4 12 -12 36 -18 45 -12
97 -7 140 16 40 20 88 87 62 83 -5 -1 -58 -17 -120 -37z"/>
<path d="M12081 6904 c0 -11 3 -14 6 -6 3 7 2 16 -1 19 -3 4 -6 -2 -5 -13z"/>
<path d="M9010 6770 c-8 -5 -10 -10 -5 -10 6 0 17 5 25 10 8 5 11 10 5 10 -5
0 -17 -5 -25 -10z"/>
<path d="M8910 6730 c-8 -5 -10 -10 -5 -10 6 0 17 5 25 10 8 5 11 10 5 10 -5
0 -17 -5 -25 -10z"/>
<path d="M8860 6710 c-8 -5 -10 -10 -5 -10 6 0 17 5 25 10 8 5 11 10 5 10 -5
0 -17 -5 -25 -10z"/>
<path d="M8775 6570 c-120 -37 -142 -216 -36 -287 47 -32 135 -32 181 0 93 63
92 200 -1 269 -29 22 -103 31 -144 18z"/>
<path d="M9380 6558 c-54 -28 -80 -74 -80 -141 0 -102 57 -160 159 -161 69 -1
110 22 142 77 62 111 -16 247 -141 247 -20 0 -56 -10 -80 -22z"/>
<path d="M7475 6561 c-76 -19 -105 -60 -105 -147 0 -97 48 -144 147 -144 90 0
143 57 143 152 0 95 -90 162 -185 139z"/>
<path d="M8094 6551 c-49 -22 -74 -68 -74 -138 0 -92 56 -148 149 -148 99 1
153 53 155 149 1 124 -111 191 -230 137z"/>
<path d="M12652 6560 c-84 -20 -126 -123 -88 -215 20 -48 68 -75 134 -75 94 0
140 41 148 133 6 59 -15 109 -56 138 -30 21 -94 30 -138 19z"/>
<path d="M6813 6545 c-89 -38 -99 -198 -15 -247 69 -41 168 -24 207 36 23 35
23 125 -1 165 -33 56 -120 77 -191 46z"/>
<path d="M13283 6546 c-86 -39 -92 -197 -10 -251 39 -25 109 -30 152 -9 57 27
77 66 73 142 -4 55 -8 67 -36 94 -26 27 -40 32 -89 35 -36 2 -70 -2 -90 -11z"/>
<path d="M13975 6553 c-60 -16 -95 -67 -95 -140 1 -86 48 -133 135 -133 68 0
108 26 130 84 44 114 -50 219 -170 189z"/>
<path d="M5543 6539 c-94 -28 -109 -189 -22 -234 37 -20 119 -19 147 1 47 33
67 119 39 173 -27 53 -100 79 -164 60z"/>
<path d="M6143 6530 c-37 -22 -50 -43 -53 -85 -5 -66 1 -86 33 -121 60 -66
171 -56 217 19 38 61 16 163 -41 192 -40 21 -117 19 -156 -5z"/>
<path d="M14582 6533 c-92 -45 -87 -199 8 -237 50 -20 71 -20 115 -2 51 22 77
69 72 133 -4 59 -24 88 -74 109 -42 18 -80 17 -121 -3z"/>
<path d="M4896 6530 c-15 -5 -37 -17 -47 -26 -46 -41 -42 -140 7 -183 24 -20
35 -23 87 -19 80 6 107 35 107 112 0 65 -24 101 -78 116 -42 11 -37 11 -76 0z"/>
<path d="M15244 6525 c-39 -20 -54 -52 -54 -116 0 -42 5 -55 29 -80 26 -26 37
-29 89 -29 51 0 63 4 85 26 49 49 44 156 -9 190 -35 24 -103 28 -140 9z"/>
<path d="M15912 6523 c-79 -38 -84 -176 -7 -211 56 -26 141 -6 165 37 5 11 10
41 10 66 0 56 -12 80 -48 98 -46 24 -85 27 -120 10z"/>
<path d="M4208 6514 c-45 -24 -51 -46 -27 -106 35 -91 78 -120 145 -98 79 27
88 167 13 206 -36 18 -96 17 -131 -2z"/>
<path d="M8775 5895 c-48 -17 -71 -43 -85 -95 -24 -90 27 -172 114 -185 117
-18 198 75 167 192 -13 47 -36 70 -88 89 -48 17 -58 16 -108 -1z"/>
<path d="M7444 5881 c-95 -43 -96 -198 -2 -247 22 -11 48 -15 86 -12 46 4 60
10 83 36 34 38 50 92 39 131 -28 97 -112 135 -206 92z"/>
<path d="M8105 5890 c-43 -17 -68 -58 -73 -117 -8 -97 45 -157 138 -157 90 1
141 50 142 138 1 67 -23 113 -67 132 -37 15 -108 18 -140 4z"/>
<path d="M12633 5885 c-51 -22 -75 -69 -70 -139 3 -51 8 -63 35 -87 17 -15 49
-33 72 -39 34 -9 47 -8 85 9 56 25 85 70 85 131 0 108 -104 170 -207 125z"/>
<path d="M13335 5893 c-72 -14 -102 -45 -111 -116 -12 -84 35 -145 119 -154
109 -13 183 90 138 191 -26 61 -83 91 -146 79z"/>
<path d="M6808 5874 c-57 -30 -77 -128 -39 -190 28 -45 98 -71 151 -55 103 31
131 166 49 236 -24 20 -41 25 -82 25 -29 -1 -64 -7 -79 -16z"/>
<path d="M13952 5873 c-84 -41 -84 -186 0 -229 43 -22 121 -14 153 16 67 63
49 182 -32 216 -43 18 -80 17 -121 -3z"/>
<path d="M5530 5862 c-45 -22 -67 -80 -51 -139 15 -56 41 -76 106 -81 52 -4
56 -3 90 31 30 30 35 41 35 84 0 58 -19 90 -66 109 -44 18 -72 18 -114 -4z"/>
<path d="M6151 5866 c-34 -19 -50 -54 -51 -111 0 -60 19 -91 66 -111 43 -18
78 -18 119 2 79 37 86 167 13 218 -27 20 -114 21 -147 2z"/>
<path d="M14585 5866 c-38 -16 -55 -53 -55 -116 0 -73 29 -102 107 -108 55 -4
63 -2 93 25 27 24 33 38 37 79 9 105 -81 164 -182 120z"/>
<path d="M15264 5869 c-46 -13 -67 -42 -72 -102 -4 -46 -1 -57 23 -85 31 -38
80 -50 136 -33 83 25 100 158 27 204 -32 21 -77 27 -114 16z"/>
<path d="M4849 5841 c-24 -24 -29 -38 -29 -76 0 -74 26 -109 91 -120 75 -13
139 40 139 115 0 70 -42 109 -118 110 -46 0 -58 -4 -83 -29z"/>
<path d="M8135 5233 c-82 -22 -122 -121 -81 -201 21 -42 63 -62 127 -62 44 0
55 4 84 33 43 43 53 93 31 150 -9 25 -28 50 -44 59 -31 19 -88 29 -117 21z"/>
<path d="M8783 5233 c-63 -12 -107 -106 -83 -177 46 -139 254 -114 267 31 9
106 -70 168 -184 146z"/>
<path d="M12005 5222 c-50 -23 -70 -60 -69 -126 0 -87 50 -132 142 -130 56 1
92 28 116 88 19 45 19 47 0 92 -34 83 -110 113 -189 76z"/>
<path d="M12655 5225 c-57 -20 -85 -59 -85 -118 0 -90 42 -137 123 -137 88 0
137 46 137 130 0 98 -83 157 -175 125z"/>
<path d="M7439 5207 c-22 -15 -39 -38 -49 -65 -39 -112 71 -205 185 -158 41
17 65 60 65 116 0 55 -22 94 -64 114 -48 22 -97 20 -137 -7z"/>
<path d="M13311 5217 c-65 -23 -96 -101 -68 -169 27 -65 100 -90 175 -59 42
18 62 57 62 121 0 44 -5 56 -29 81 -16 16 -38 29 -48 29 -10 0 -27 2 -38 5
-11 2 -35 -1 -54 -8z"/>
<path d="M5534 5204 c-55 -27 -72 -104 -31 -141 12 -11 36 -28 52 -37 17 -9
37 -21 46 -28 13 -9 24 -8 48 2 89 36 77 183 -16 209 -50 14 -62 14 -99 -5z"/>
<path d="M6153 5200 c-69 -42 -65 -166 7 -203 85 -44 180 7 180 98 0 59 -16
91 -55 110 -45 20 -93 19 -132 -5z"/>
<path d="M6811 5206 c-34 -19 -50 -54 -51 -109 0 -43 5 -54 34 -83 29 -29 41
-34 83 -34 67 0 109 27 123 80 14 52 -1 112 -37 139 -30 25 -114 28 -152 7z"/>
<path d="M13964 5210 c-67 -27 -87 -134 -36 -190 47 -54 149 -51 186 5 40 61
24 150 -33 179 -32 17 -83 20 -117 6z"/>
<path d="M14607 5210 c-40 -12 -54 -27 -67 -66 -15 -46 -5 -100 25 -130 19
-19 34 -24 78 -24 65 0 102 24 116 75 26 95 -57 175 -152 145z"/>
<path d="M8783 4589 c-51 -15 -73 -52 -73 -121 0 -52 3 -63 29 -89 26 -26 36
-29 91 -29 54 0 65 3 89 28 35 34 46 87 29 137 -22 65 -92 97 -165 74z"/>
<path d="M9404 4586 c-47 -21 -64 -52 -64 -118 0 -69 25 -105 83 -117 110 -25
194 64 156 166 -26 67 -108 100 -175 69z"/>
<path d="M11353 4586 c-57 -26 -85 -95 -63 -160 18 -55 52 -76 122 -76 54 0
63 3 88 30 53 57 46 156 -14 195 -35 23 -95 28 -133 11z"/>
<path d="M6824 4574 c-45 -22 -60 -58 -56 -135 4 -63 95 -105 165 -75 82 34
91 159 15 206 -39 24 -82 25 -124 4z"/>
<path d="M7443 4571 c-71 -45 -65 -168 10 -205 54 -26 117 -15 152 25 37 44
36 117 -3 160 -37 42 -110 51 -159 20z"/>
<path d="M8088 4561 c-30 -27 -33 -34 -33 -90 0 -52 4 -64 26 -87 18 -18 41
-28 73 -31 86 -10 136 32 136 116 0 82 -40 121 -124 121 -36 0 -52 -6 -78 -29z"/>
<path d="M11979 4561 c-25 -26 -29 -37 -29 -88 1 -85 37 -123 120 -123 49 0
94 24 109 57 26 56 5 150 -38 173 -11 5 -45 10 -76 10 -49 0 -60 -4 -86 -29z"/>
<path d="M12645 4581 c-43 -18 -60 -50 -60 -111 0 -68 18 -94 77 -112 49 -15
111 3 134 38 27 40 28 104 5 142 -30 47 -99 66 -156 43z"/>
<path d="M13292 4570 c-81 -50 -65 -185 26 -210 79 -21 142 17 156 94 19 100
-92 171 -182 116z"/>
<path d="M13962 4573 c-36 -18 -62 -58 -62 -97 0 -64 31 -73 89 -27 21 16 50
33 67 37 59 14 69 40 29 79 -29 30 -74 32 -123 8z"/>
<path d="M10054 3911 c-70 -43 -68 -162 3 -199 31 -17 110 -15 138 4 51 33 57
140 10 184 -34 32 -109 38 -151 11z"/>
<path d="M11360 3923 c-76 -28 -92 -163 -25 -207 28 -18 103 -21 138 -5 72 33
70 170 -3 206 -25 13 -83 16 -110 6z"/>
<path d="M12630 3890 c-40 -43 -38 -54 7 -45 49 9 118 44 107 55 -5 5 -26 12
-46 15 -34 6 -41 4 -68 -25z"/>
</g>
</svg>
