<svg id="Layer_1" data-name="Layer 1" xmlns="http://www.w3.org/2000/svg" xmlns:xlink="http://www.w3.org/1999/xlink" viewBox="0 0 130 32"><defs><style>.cls-1,.cls-4{fill:#fff;}.cls-1{stroke:#4c4f21;stroke-miterlimit:10;stroke-width:0.75px;}.cls-2{fill:#4c4f21;}.cls-3{fill:#263419;}.cls-5{fill:#697e36;}.cls-6,.cls-9{font-size:12px;}.cls-6{fill:#171720;font-family:Roboto-Regular, Roboto;}.cls-7{letter-spacing:-0.01em;}.cls-8{letter-spacing:-0.01em;}.cls-9{fill:#231f20;font-family:Roboto-Medium, Roboto;font-weight:500;}.cls-10{letter-spacing:0.01em;}</style></defs><circle class="cls-1" cx="13.94" cy="14.92" r="11.47"/><path class="cls-2" d="M18.3,19.8l0,0h.09Z"/><path class="cls-2" d="M22.14,13.55h0Z"/><polygon class="cls-2" points="19.15 9.17 19.15 9.17 19.15 9.18 19.16 9.18 19.17 9.19 19.17 9.19 19.17 9.18 19.18 9.18 19.18 9.17 19.18 9.16 19.18 9.16 19.17 9.16 19.16 9.16 19.16 9.16 19.15 9.16 19.15 9.17"/><polygon class="cls-2" points="19.09 9.18 19.09 9.18 19.09 9.19 19.09 9.19 19.1 9.19 19.1 9.19 19.11 9.18 19.11 9.18 19.11 9.18 19.11 9.18 19.12 9.18 19.13 9.18 19.14 9.18 19.14 9.18 19.14 9.17 19.14 9.17 19.14 9.16 19.14 9.16 19.14 9.14 19.14 9.14 19.15 9.13 19.16 9.12 19.15 9.11 19.15 9.11 19.14 9.11 19.14 9.11 19.13 9.11 19.12 9.11 19.11 9.11 19.11 9.12 19.1 9.12 19.09 9.14 19.09 9.14 19.09 9.15 19.09 9.16 19.09 9.17 19.09 9.18"/><polygon class="cls-2" points="16.24 8.01 16.21 8.02 16.18 8.05 16.17 8.06 16.16 8.07 16.22 8.1 16.23 8.09 16.33 8.09 16.34 8.09 16.35 8.08 16.36 8.08 16.36 8.07 16.38 8.06 16.38 8.05 16.38 8.05 16.39 8.05 16.39 8.05 16.39 8.04 16.39 8.04 16.4 8.04 16.4 8.03 16.4 8.03 16.39 8.03 16.39 8.03 16.39 8.02 16.39 8.02 16.39 8.02 16.39 8.01 16.38 8 16.38 8 16.36 7.99 16.35 7.99 16.34 7.99 16.34 7.99 16.33 7.99 16.33 7.99 16.33 7.99 16.33 7.98 16.31 7.99 16.26 8 16.24 8.01"/><polygon class="cls-2" points="17.3 20.26 17.29 20.26 17.28 20.26 17.28 20.26 17.27 20.27 17.25 20.28 17.23 20.29 17.2 20.32 17.18 20.33 17.13 20.37 17.11 20.4 17.1 20.4 17.1 20.41 17.09 20.43 17.09 20.44 17.1 20.44 17.1 20.43 17.11 20.41 17.12 20.4 17.13 20.39 17.15 20.38 17.26 20.28 17.27 20.28 17.29 20.27 17.31 20.26 17.31 20.25 17.3 20.26 17.3 20.26"/><path class="cls-2" d="M16,7.85h0l.06,0h0l0,0h-.11v0h0v0l0,0Z"/><polygon class="cls-2" points="19.04 9.2 19.04 9.2 19.04 9.21 19.04 9.21 19.04 9.22 19.04 9.22 19.04 9.23 19.05 9.23 19.05 9.23 19.07 9.23 19.07 9.22 19.07 9.21 19.08 9.21 19.08 9.2 19.08 9.19 19.07 9.19 19.06 9.2 19.06 9.2 19.06 9.2 19.06 9.2 19.05 9.2 19.05 9.2 19.05 9.19 19.05 9.19 19.05 9.18 19.05 9.18 19.04 9.18 19.04 9.18 19.04 9.19 19.04 9.19 19.04 9.2"/><polygon class="cls-2" points="19.86 9.32 19.87 9.32 19.87 9.33 19.87 9.33 19.88 9.33 19.88 9.34 19.88 9.34 19.88 9.34 19.87 9.34 19.88 9.35 19.88 9.35 19.89 9.35 19.9 9.35 19.9 9.35 19.91 9.34 19.91 9.34 19.91 9.34 19.91 9.33 19.91 9.33 19.91 9.32 19.9 9.32 19.9 9.32 19.9 9.32 19.9 9.32 19.89 9.32 19.89 9.31 19.88 9.31 19.84 9.31 19.83 9.31 19.85 9.32 19.86 9.32"/><polygon class="cls-2" points="18.91 19.45 18.91 19.44 18.91 19.44 18.91 19.44 18.91 19.43 18.91 19.43 18.9 19.43 18.9 19.43 18.9 19.43 18.9 19.44 18.89 19.44 18.89 19.43 18.89 19.43 18.88 19.43 18.87 19.43 18.86 19.42 18.87 19.42 18.87 19.42 18.87 19.42 18.87 19.42 18.87 19.42 18.87 19.41 18.86 19.41 18.86 19.41 18.85 19.41 18.85 19.41 18.85 19.41 18.85 19.41 18.85 19.41 18.85 19.41 18.84 19.42 18.83 19.43 18.83 19.43 18.82 19.43 18.81 19.45 18.79 19.45 18.79 19.45 18.79 19.46 18.79 19.46 18.79 19.46 18.79 19.46 18.8 19.46 18.8 19.47 18.8 19.47 18.8 19.48 18.8 19.48 18.8 19.48 18.8 19.48 18.81 19.48 18.81 19.48 18.81 19.48 18.81 19.47 18.82 19.46 18.82 19.46 18.83 19.46 18.84 19.46 18.84 19.47 18.85 19.47 18.85 19.47 18.87 19.47 18.88 19.46 18.88 19.46 18.89 19.46 18.89 19.46 18.9 19.46 18.9 19.46 18.9 19.46 18.91 19.46 18.91 19.46 18.91 19.46 18.91 19.46 18.91 19.46 18.91 19.46 18.92 19.46 18.92 19.46 18.92 19.45 18.91 19.45"/><polygon class="cls-2" points="17.06 8.37 17.06 8.38 17.08 8.36 17.09 8.36 17.1 8.35 17.09 8.34 17.09 8.33 17.07 8.33 17.07 8.33 17.07 8.33 17.07 8.33 17.06 8.33 17.06 8.33 17.06 8.33 17.05 8.33 17.05 8.34 17.06 8.34 17.06 8.34 17.05 8.35 17.05 8.35 17.05 8.36 17.06 8.37"/><polygon class="cls-2" points="16.89 8.51 16.9 8.51 16.91 8.52 16.93 8.52 16.94 8.52 16.94 8.51 16.95 8.51 16.95 8.5 16.97 8.47 16.97 8.45 16.96 8.44 16.96 8.44 16.97 8.44 16.97 8.43 16.95 8.42 16.93 8.43 16.92 8.43 16.92 8.44 16.91 8.45 16.91 8.47 16.89 8.48 16.89 8.49 16.89 8.5 16.89 8.51"/><polygon class="cls-2" points="16.42 8.87 16.41 8.86 16.41 8.86 16.41 8.85 16.4 8.85 16.39 8.85 16.39 8.87 16.37 8.87 16.37 8.88 16.36 8.88 16.36 8.89 16.36 8.89 16.35 8.91 16.35 8.91 16.35 8.92 16.36 8.93 16.38 8.93 16.39 8.93 16.39 8.93 16.4 8.91 16.41 8.9 16.42 8.89 16.42 8.89 16.43 8.88 16.43 8.87 16.43 8.87 16.42 8.87"/><polygon class="cls-2" points="17.86 19.88 17.86 19.87 17.85 19.86 17.85 19.86 17.85 19.86 17.85 19.86 17.85 19.85 17.84 19.85 17.82 19.85 17.82 19.85 17.82 19.86 17.82 19.86 17.82 19.86 17.82 19.86 17.81 19.86 17.81 19.86 17.8 19.86 17.81 19.88 17.81 19.88 17.82 19.88 17.82 19.88 17.83 19.88 17.83 19.88 17.84 19.88 17.86 19.89 17.86 19.88"/><polygon class="cls-2" points="16.85 8.54 16.84 8.54 16.84 8.56 16.84 8.56 16.82 8.57 16.82 8.58 16.82 8.58 16.83 8.59 16.84 8.59 16.84 8.6 16.85 8.6 16.86 8.6 16.86 8.6 16.86 8.6 16.86 8.61 16.86 8.61 16.87 8.6 16.88 8.6 16.88 8.6 16.89 8.6 16.89 8.59 16.89 8.58 16.89 8.58 16.9 8.56 16.89 8.56 16.89 8.54 16.88 8.54 16.86 8.54 16.85 8.54"/><polygon class="cls-2" points="19.8 9.34 19.82 9.34 19.83 9.35 19.84 9.35 19.86 9.36 19.87 9.36 19.87 9.35 19.86 9.35 19.85 9.34 19.84 9.33 19.83 9.33 19.82 9.32 19.81 9.32 19.81 9.31 19.8 9.31 19.8 9.32 19.8 9.33 19.8 9.34"/><polygon class="cls-2" points="17.16 8.32 17.18 8.33 17.19 8.35 17.19 8.36 17.19 8.36 17.2 8.36 17.21 8.36 17.21 8.36 17.21 8.36 17.22 8.35 17.21 8.34 17.21 8.34 17.22 8.32 17.22 8.32 17.21 8.31 17.21 8.3 17.19 8.3 17.19 8.3 17.18 8.29 17.18 8.29 17.17 8.28 17.17 8.29 17.17 8.29 17.16 8.3 17.16 8.3 17.16 8.31 17.16 8.32"/><polygon class="cls-2" points="21.55 14.28 21.54 14.27 21.54 14.26 21.52 14.25 21.51 14.26 21.51 14.27 21.52 14.27 21.52 14.28 21.52 14.29 21.52 14.29 21.52 14.29 21.52 14.29 21.52 14.28 21.52 14.29 21.52 14.29 21.52 14.29 21.52 14.29 21.52 14.3 21.49 14.32 21.48 14.34 21.47 14.34 21.46 14.35 21.46 14.35 21.46 14.38 21.46 14.38 21.47 14.38 21.47 14.38 21.47 14.38 21.48 14.37 21.48 14.37 21.49 14.36 21.5 14.35 21.52 14.34 21.53 14.32 21.54 14.32 21.55 14.31 21.56 14.31 21.56 14.3 21.55 14.28"/><path class="cls-2" d="M15.77,8.15h0v0h0v.05h0v0h0v0h0l0,0h0v0h0l0,.05v0h0V8.5h.09l0,0H15.7v0h0v0h.07a.2.2,0,0,1,.18.11h0a.2.2,0,0,1,0,.11h0l0,0h0v0h.14v0h0v0h0v0h0v0h.06v0h0v0h.05v0h0v0h.07v0h0v0h0a.15.15,0,0,1,.09-.06h0l.07,0h0l0,0h0l0,0h.07v0h0v0l0,0h0v0h0v0h0v0h0v0h-.12l-.08,0a.22.22,0,0,1-.13-.05h-.29l-.07,0-.1,0h-.15A.21.21,0,0,1,15.77,8.15Z"/><path class="cls-2" d="M16,8h.22V8l0,0,0,0h0l0,0v0h-.1l0,0h-.1l0,0,0,0H16s0,0,0,0S16,8,16,8Z"/><path class="cls-2" d="M15.92,7.8V7.73h0l0,0h0Z"/><polygon class="cls-2" points="16.77 21.15 16.78 21.14 16.78 21.14 16.79 21.12 16.8 21.1 16.8 21.09 16.81 21.08 16.81 21.08 16.81 21.07 16.81 21.07 16.8 21.05 16.79 21.04 16.78 21.04 16.77 21.05 16.78 21.06 16.77 21.07 16.75 21.07 16.74 21.08 16.74 21.09 16.74 21.09 16.73 21.09 16.73 21.1 16.72 21.1 16.72 21.1 16.71 21.12 16.71 21.12 16.71 21.12 16.73 21.14 16.73 21.14 16.74 21.16 16.75 21.17 16.76 21.17 16.76 21.18 16.76 21.18 16.77 21.18 16.77 21.16 16.77 21.16 16.77 21.15"/><polygon class="cls-2" points="15.53 8.09 15.53 8.09 15.52 8.1 15.51 8.11 15.51 8.11 15.49 8.11 15.49 8.11 15.49 8.12 15.48 8.13 15.45 8.2 15.44 8.2 15.44 8.21 15.43 8.21 15.43 8.22 15.42 8.22 15.42 8.23 15.41 8.23 15.41 8.24 15.41 8.25 15.42 8.24 15.44 8.23 15.47 8.22 15.51 8.19 15.52 8.17 15.53 8.15 15.53 8.13 15.54 8.13 15.54 8.12 15.54 8.12 15.54 8.11 15.54 8.1 15.54 8.1 15.54 8.09 15.55 8.09 15.55 8.09 15.55 8.09 15.53 8.09"/><polygon class="cls-2" points="18.66 19.47 18.65 19.47 18.64 19.47 18.64 19.48 18.64 19.49 18.66 19.47"/><polygon class="cls-2" points="23.36 11.73 23.36 11.73 23.35 11.73 23.35 11.73 23.35 11.74 23.35 11.74 23.34 11.75 23.34 11.76 23.34 11.76 23.34 11.77 23.34 11.78 23.34 11.78 23.35 11.79 23.36 11.79 23.36 11.78 23.36 11.78 23.36 11.77 23.36 11.76 23.37 11.75 23.37 11.75 23.36 11.74 23.36 11.74 23.36 11.73 23.36 11.73"/><path class="cls-2" d="M18.69,19.55v0h0a.08.08,0,0,1,0,0Z"/><polygon class="cls-2" points="16.08 7.57 16.09 7.57 16.1 7.56 16.11 7.55 16.11 7.55 16.11 7.54 16.11 7.53 16.12 7.52 16.12 7.51 16.11 7.51 16.1 7.52 16.09 7.53 16.08 7.53 16.07 7.54 16.07 7.54 16.06 7.55 16.05 7.55 16.04 7.56 16.04 7.57 16.05 7.58 16.05 7.58 16.07 7.58 16.07 7.57 16.08 7.57 16.08 7.57"/><polygon class="cls-2" points="16.06 7.59 16.04 7.58 16.03 7.58 16.02 7.58 16.01 7.6 15.98 7.61 15.95 7.64 15.95 7.66 15.95 7.67 15.97 7.67 15.99 7.66 16.01 7.66 16.03 7.66 16.03 7.66 16.04 7.66 16.04 7.65 16.05 7.64 16.05 7.64 16.06 7.63 16.07 7.62 16.07 7.61 16.08 7.6 16.07 7.59 16.06 7.59"/><path class="cls-2" d="M15.6,8.11h0v0h.09a.19.19,0,0,1-.09-.05h0Z"/><polygon class="cls-2" points="16.36 8.83 16.36 8.82 16.34 8.82 16.33 8.82 16.33 8.82 16.32 8.82 16.32 8.82 16.31 8.83 16.31 8.83 16.31 8.84 16.31 8.85 16.31 8.86 16.32 8.86 16.33 8.86 16.33 8.86 16.34 8.85 16.35 8.85 16.36 8.84 16.36 8.84 16.36 8.83 16.36 8.83"/><polygon class="cls-2" points="21.38 14.57 21.37 14.57 21.37 14.59 21.37 14.59 21.37 14.6 21.37 14.61 21.38 14.63 21.39 14.64 21.39 14.64 21.4 14.64 21.4 14.64 21.4 14.65 21.41 14.65 21.41 14.63 21.41 14.63 21.41 14.62 21.41 14.62 21.41 14.61 21.4 14.61 21.4 14.6 21.39 14.6 21.39 14.59 21.4 14.58 21.4 14.57 21.4 14.57 21.41 14.56 21.4 14.55 21.41 14.55 21.41 14.54 21.41 14.51 21.4 14.51 21.39 14.51 21.38 14.51 21.37 14.51 21.36 14.51 21.36 14.51 21.35 14.51 21.34 14.52 21.34 14.53 21.35 14.53 21.34 14.54 21.35 14.55 21.37 14.56 21.38 14.56 21.38 14.56 21.38 14.57"/><polygon class="cls-2" points="15.53 8.32 15.52 8.32 15.51 8.31 15.5 8.29 15.49 8.28 15.48 8.28 15.46 8.27 15.45 8.27 15.45 8.28 15.45 8.28 15.45 8.28 15.45 8.29 15.45 8.29 15.46 8.31 15.46 8.31 15.45 8.3 15.45 8.3 15.44 8.3 15.44 8.31 15.44 8.31 15.44 8.3 15.44 8.3 15.44 8.31 15.44 8.31 15.44 8.32 15.43 8.32 15.43 8.33 15.42 8.34 15.42 8.34 15.42 8.33 15.43 8.33 15.43 8.32 15.43 8.32 15.43 8.31 15.43 8.31 15.43 8.31 15.43 8.3 15.43 8.29 15.43 8.29 15.44 8.28 15.43 8.28 15.43 8.28 15.4 8.29 15.39 8.29 15.39 8.3 15.36 8.31 15.35 8.33 15.34 8.34 15.32 8.36 15.3 8.4 15.28 8.43 15.28 8.45 15.27 8.51 15.28 8.53 15.28 8.55 15.26 8.57 15.24 8.57 15.23 8.58 15.23 8.58 15.23 8.58 15.23 8.58 15.22 8.59 15.22 8.6 15.22 8.6 15.19 8.62 15.18 8.63 15.18 8.63 15.18 8.65 15.17 8.66 15.17 8.67 15.15 8.69 15.15 8.71 15.15 8.72 15.16 8.73 15.17 8.73 15.18 8.74 15.2 8.73 15.22 8.72 15.23 8.72 15.25 8.71 15.27 8.69 15.27 8.69 15.28 8.69 15.28 8.68 15.28 8.68 15.28 8.68 15.28 8.67 15.29 8.67 15.3 8.67 15.3 8.66 15.31 8.66 15.31 8.65 15.32 8.65 15.34 8.64 15.4 8.59 15.41 8.58 15.45 8.51 15.46 8.51 15.47 8.52 15.47 8.52 15.47 8.51 15.48 8.48 15.49 8.43 15.5 8.41 15.53 8.35 15.53 8.34 15.53 8.33 15.53 8.32"/><polygon class="cls-2" points="18.66 19.5 18.66 19.49 18.66 19.49 18.65 19.49 18.65 19.49 18.66 19.5 18.66 19.5"/><polygon class="cls-2" points="16.85 21.77 16.85 21.77 16.85 21.75 16.86 21.75 16.86 21.73 16.86 21.72 16.86 21.71 16.85 21.7 16.84 21.7 16.84 21.71 16.83 21.71 16.8 21.72 16.8 21.72 16.8 21.73 16.8 21.73 16.79 21.74 16.79 21.75 16.79 21.75 16.79 21.76 16.8 21.76 16.8 21.77 16.79 21.77 16.79 21.77 16.79 21.77 16.8 21.78 16.8 21.78 16.8 21.78 16.8 21.79 16.8 21.79 16.8 21.8 16.79 21.8 16.78 21.8 16.79 21.81 16.79 21.82 16.79 21.83 16.78 21.84 16.78 21.85 16.78 21.86 16.78 21.87 16.77 21.89 16.77 21.93 16.77 21.93 16.77 21.93 16.78 21.93 16.78 21.93 16.79 21.93 16.79 21.91 16.8 21.91 16.81 21.91 16.81 21.91 16.81 21.9 16.8 21.88 16.81 21.87 16.83 21.83 16.83 21.83 16.84 21.82 16.84 21.81 16.85 21.8 16.85 21.8 16.85 21.78 16.84 21.78 16.85 21.77 16.85 21.77"/><polygon class="cls-2" points="18.72 9.37 18.72 9.37 18.73 9.35 18.73 9.32 18.71 9.33 18.7 9.34 18.69 9.37 18.68 9.38 18.68 9.39 18.68 9.4 18.69 9.42 18.69 9.43 18.69 9.43 18.69 9.44 18.69 9.46 18.68 9.46 18.68 9.46 18.67 9.47 18.67 9.48 18.67 9.48 18.67 9.48 18.68 9.49 18.68 9.49 18.68 9.49 18.68 9.49 18.68 9.49 18.68 9.49 18.68 9.49 18.68 9.48 18.7 9.47 18.7 9.45 18.72 9.45 18.73 9.44 18.72 9.42 18.72 9.42 18.73 9.41 18.73 9.4 18.73 9.37 18.72 9.38 18.72 9.38 18.72 9.38 18.72 9.38 18.72 9.37"/><polygon class="cls-2" points="15.69 8.3 15.68 8.3 15.68 8.29 15.68 8.29 15.68 8.29 15.66 8.32 15.66 8.32 15.66 8.31 15.67 8.29 15.65 8.3 15.63 8.31 15.61 8.32 15.6 8.34 15.59 8.35 15.58 8.35 15.58 8.35 15.57 8.35 15.57 8.35 15.57 8.36 15.57 8.36 15.56 8.36 15.56 8.38 15.55 8.39 15.55 8.4 15.55 8.41 15.56 8.42 15.56 8.42 15.57 8.41 15.58 8.41 15.59 8.4 15.6 8.4 15.62 8.39 15.64 8.38 15.65 8.37 15.67 8.37 15.68 8.37 15.69 8.36 15.69 8.35 15.69 8.34 15.69 8.32 15.69 8.3"/><polygon class="cls-2" points="18.48 8.65 18.48 8.65 18.48 8.65 18.48 8.65"/><path class="cls-2" d="M16.89,20.65h0v0h0v0Z"/><polygon class="cls-2" points="12.89 18.98 12.89 18.98 12.89 18.98 12.89 18.98"/><path class="cls-2" d="M18.52,8.66h0Z"/><path class="cls-2" d="M15.05,24.21h0Z"/><path class="cls-2" d="M23.38,11.47h0v0h0v0h0v0h0v0h0v0h0V11.1h0v0h0v-.06h0v0h0v0h0v0h0v0l0,0v0a.16.16,0,0,1-.18.16.14.14,0,0,1-.15-.16.15.15,0,0,1,.17-.17h-.07l-.07,0H22.4l0,0h-.15l0,0,0,0h0l-.05,0H22l0,0h0v0l0,0h0l0,0h0l0,0,0,0,0,0,0,0h0l0,0h0v0h0l0,0v0h-.1v0H21.4v0h0v0h0s0,0,0,.08-.08.17-.19.19S21,9.85,21,9.74a.18.18,0,0,1,.17-.19l0,0h0l0,0,0,0H21l0,0h0l0,0h-.61v0h-.2l0,0,0,0H20v0h-.31l0,0,0,0h-.13l0,0-.05,0h-.17l0,0h0v0H19v0l0,0h-.07v0h0v0h0v0h0l-.05,0h-.07V9.3h0l0,.06h0v0h0l0,0h0l0,0h0v0h-.05a.22.22,0,0,1,.08.18.22.22,0,1,1-.22-.23.25.25,0,0,1,.13.05h0v0h0l0,0h0v0h0l0-.05h0v0h.06v0h0v0h0v0h0v0h0l0,0h0v0h0v0h0l0,0h0l0,0h0a.18.18,0,0,1-.2.16.18.18,0,0,1-.2-.21.18.18,0,0,1,.07-.16v0h0v0h0v0h0l0,0h0v0h0v0h-.07l0,0h0l0,0h0v0h0v0h0v0h0v.06h0v0h0v0h0v0h0v0h0v0h0v0l0-.05h0v0h-.13v0h0v0h0v0h0l0,0h0v0h0v0h0v0h0v0h0v0h-.05v0h-.06l0,0H17.3v0h0l0,0h0v0h0v0h0v0h0v0h0l0,0h0v0H17.1l0,0v0h0l0,0h0l0,0,0,0h0v0H16.9v0h0v.05h-.05v0h0l0,0v0h0l.05.06h0a.2.2,0,0,1,0,.11c0,.14-.08.21-.22.23a.25.25,0,0,1-.22-.14V9l0,.07h0v0l0,.08h0v0H16.3l0,0h0l0,0h0v0h0v0h0v0h0V9h-.05v0l0,0h0l0,0h-.12v0h0V9h0V9h0V9h0l0,0h0l0,0H16a.23.23,0,0,1-.22.16.24.24,0,0,1-.22-.25.21.21,0,0,1,.16-.2v0h0l0,0h0v0h0v0h-.1l-.06,0h0l0,0h-.2l-.11.08h-.06s0,0,0,.06-.11.24-.26.23a.23.23,0,0,1,0-.46.16.16,0,0,1,.12,0h.14V8.59h.1V8.4h0l0,0h0l0,0,0,0h.08v0h0v0l0,0h.09a.3.3,0,0,1,0-.1.2.2,0,0,1,.21-.21l.09,0v0h0l0,0h0v0h0l0,0h0l0,0h0v0h0v0h0v0h0l0,0v0h0v0h0V7.29h0V7.21h0l0,0H15.9a.16.16,0,0,1-.16.06.2.2,0,0,1,0-.39h0v0h0v0h0v0h0v0h0v0l0-.07V6.16h0v.11h0V6l0,0,0-.05,0,0h-.05v0h0V6l0,.07v0l0,0h0v0l0-.06V6h0V6l0,0h0l0,0h0v0h0v0h0l0,0h0v0l0,0h0L15,6.46h0v0h0v0h0l0,.05h0l0,.08v0h0v0h0v0h0a.18.18,0,0,1,.2.19.2.2,0,0,1-.18.21c-.14,0-.21-.07-.22-.2s0,0,0-.07h-.16l0,0v0h0l0,0h-.3a.11.11,0,0,0,0,0,.19.19,0,0,1-.21.19A.17.17,0,0,1,13.77,7a.21.21,0,0,1,.05-.15h-.08l0,0h-.1l0,0h-.29l0,0h0v0h0v0a.15.15,0,0,1,.05.15h0v.06h0a.18.18,0,0,1-.19.08.19.19,0,0,1-.17-.11h-.17v0h0l0,0h-.09v0h0l0,0h-.22v0H12v0h0v0h-.09l0,0h-.13l-.08,0h0v0h-.1v0h-.06v0h-.05a.18.18,0,0,1-.16.08A.18.18,0,0,1,11.06,7a.19.19,0,0,1,.2-.2l.07,0h0v0h0v0h0V6.61h0v0h0v0h0v0h0l0,0h0v0h0v0h0v0h0a.12.12,0,0,1-.09,0,.17.17,0,0,1-.18-.19.18.18,0,0,1,.35,0,.17.17,0,0,1-.06.14h0l0,0h.06v0h0l0,0h0v0h-.18v0h0V5.67h0v0h0v0h0v0h0l0,0H11l0,.08v0l0,0,0,0h0l-.05,0h0v.05h0v0h-.17v0h-.1V6h-.13c.08,0,.11.08.12.17a.16.16,0,0,1-.18.16.16.16,0,0,1-.16-.17.24.24,0,0,1,0-.09l-.09,0H10v.08H9.83l-.05-.06,0,0,0,0,0,0,0,0h0v0h0a.14.14,0,0,1-.16.15.15.15,0,0,1-.16-.16.22.22,0,0,1,0-.08H9.19l-.11,0h0V6H9L9,6H9v0l0,0h0v0h0l0,0,.05,0h.05l0,0,0,0h0v0h0l0,0h0v.18l0,0,0,0,0,.07v0h0v0h0l0,0h.33v0h0v0h0V7h0V7a.18.18,0,0,1-.3.13v.06h0v0h0l0,0,0,0h0v0h0v0h0v0h-.1v0h0L9,7.43H9l0,0H8.82v.09H8.73l0,0H8.61v0l0,0v0h0v0H8.51l0,0h0l0,0H8.37l0,0H8.24l0,0,0,0h0l0,0,0,0,0,0,0,0,0,0,0,0H7.88v-.2l0,0,0,0,0-.06a.15.15,0,0,1-.14.08.21.21,0,0,1-.12,0h0l0,0h-.1V7.1H7.35l0,.07v0H6.78l0,0h0l0,0h-.1v.32h0l0,0h.18l0,0h0l0,0h0v0h0v0H6.82v0h0l0,0H6.63v0H6.46v0h0v.26h0v0h0l0,0,0,0v0h.08v0h0l0,0h0v0h0l0,0h0v0h0v0h0v0h0l0,0h0l0,0h0v.06h0c.1,0,.15.06.16.17S6.86,9,6.75,9h0l0,.08v.08l0,.08v.15l0,.08v.08l0,.07v0a.17.17,0,0,1,.18-.13.17.17,0,0,1,.17.19.17.17,0,0,1-.19.17.17.17,0,0,1-.17-.18v0l0,.08V10l0,.08h0v0H6.41v0h0l0,0h0v0h0v0h0l0,0H6v0h0v0H5.76v0h-.2l0,0h0v0h0l0,0,0,0H5.34v0H5.1v0h0a.3.3,0,0,1,0,.1.15.15,0,0,1-.1.15l0,0,0,0,0,.06V11h0l0,0H5v0H5v0H5v0h-.1l0,0h0l0,0,0,0,0,0H4.68v.08h0l0,.05v0H4.58v0h0l.07.07h.06v0h0v0h.06v0h0v0h0v0h0l0,0h0v0h0l0,0h0v0h0l0,0H5v0a.15.15,0,0,1,.14.16.17.17,0,0,1,0,.13h.3v0h0v0l0,0v0H6v0h0v0h0l0,0h0l0,0h0l0,0h0v0h0v0h0v.57l0,0h0v0l0,0h.12l.12-.06h0a.18.18,0,0,1,.21-.15.2.2,0,0,1,.2.18h.11v0h.17l0,0h.06v0h0l0,0v0h.14a.19.19,0,0,1,.08,0h0v0H7.9L8,12.89,8,12.84h0l0,0h.56l0,0h0v0h0v0h0v0h0v.12h0v0h0v0h0v0h0a.22.22,0,0,1,.1.21.21.21,0,0,1-.06.16h0v0h.06v0h0v0h0v0h0v0h.28v0h.09v0h0A.22.22,0,0,1,9.46,14a.26.26,0,0,1,.25.2h.11v0h.06l0,0H10l0,0h0a.24.24,0,0,1,0-.12.29.29,0,0,1,.27-.28.28.28,0,0,1,.28.27.27.27,0,0,1-.27.28h0l0,0h0v0h.21l0,0h.15v0h.11l0,0,0,0h.09v0h0v0h0a.35.35,0,0,1,.2-.07.29.29,0,0,1,.28.29.28.28,0,0,1-.3.29.26.26,0,0,1-.19-.08h0l0,0,0,0,.06.06,0,0h0v.24h.07a.28.28,0,0,1,.26.18h.36a.31.31,0,0,1,.6.1.31.31,0,0,1-.31.3.28.28,0,0,1-.13,0h0v.08h.29v0h0v0h0v0h0a.25.25,0,0,1,.08.17h0a.29.29,0,0,1-.07.2v.05l0,.07v0h0v.06h0v0l0,0,0,.07,0,.07v0h0a.28.28,0,0,1,0,.54h0v0h.06v0h0v.09h0v0h0a.27.27,0,0,1,.14.23.28.28,0,0,1,0,.15h0v0h.35v0h.09a.27.27,0,0,1-.09-.21.27.27,0,0,1,.27-.26.28.28,0,0,1,.28.27.28.28,0,0,1-.13.24h.08l0,0,0,0h0v.1h0v0h0v.06h0v0h0v0h0v0h0v0h0v0h0l0,0v0h0v0h0v0l0,0v.14h.26l0,0h0a.33.33,0,0,1-.08-.2.27.27,0,0,1,.28-.25.26.26,0,0,1,0,.52h0v0h0v0h0v0h0v0h0v0h0l0,0h0v.06h0l0,.06v0h0a.25.25,0,0,1,.23.27.3.3,0,0,1-.06.14h0v0h0l0,0h0v0h0v.06h0l0,0h0v0l0,0v.06l0,0h0v.07h0v0h0v0h0v.09l0,0h-.12l0,0h0v0H14v0h-.24v0h0v.05h0l0,0h-.11l0,0H13.5l0,0h0v0h-.06l0,0h0v0h-.11v0h0v0h0a.11.11,0,0,0,0,.05.2.2,0,0,1-.21.21h0v0h-.1v0h0v0h-.07l0,0h0l0,0h0l0,0h0l0,0h-.09v.09h0l0,0,0,.06h0v0h.17l0,0h0v0h0v0l0,0h.13v0h0a.17.17,0,0,1,.19-.16.18.18,0,0,1,.19.2.19.19,0,0,1-.14.18h0l0,0h0v0h0l0,0v0h0v0h0v.08h.1l0,0h0v0h0v0h.08l0,0,0,0h0v0h0v0h0l0,0h0v0h0v0h.17v0h0A.14.14,0,0,1,14,24c.1,0,.16.07.17.18v0h.14v0l0,0,0,0v.07h0v0h0l0,0,0,0h.11l0,0h0l0,0h0v0h0l-.06,0h0v0h0v.34h0v0h0l.06,0,0,0,0-.05.08-.07,0,0a.14.14,0,0,1,.09-.11h0v0l.07-.17v-.06l0-.11.06-.12v0l.05,0h0v0h0l0,0h0v0h0l0,0H15l-.11.05c-.11,0-.18-.06-.19-.17a.17.17,0,0,1,.18-.19.15.15,0,0,1,.17.12h0v0h0v0h0v0h0v0h.07v0h.09v-.06h0l.06,0v-.09h0v0h0v0h0v-.07h0v.06h0v-.18h0v0h0l0,0h0v0h0v0h0v0h.09a.17.17,0,0,1,.19-.19.19.19,0,1,1,0,.38v.08l0,0h0l0,0h0v.07h0v0h-.07v0h0v.11l0,0v0h-.1v0h0v0h0v0h0v0l-.06.06H15.2v0h-.05l0,0h0v0l0,0v0h0v0h0v0h0l0,0,.07-.09h0l.14-.09.12-.1.08-.07.06-.05.07-.09,0,0,.05-.05.06-.09h0l.13-.22,0-.07,0-.07.08-.22,0,0,0-.08,0-.05,0-.05,0-.07.08-.11.1-.11.1-.08,0-.1a.18.18,0,0,1,.21-.2h.05v-.06h0V22h0v0h0v0h0l0,0h.05v0h-.09a.21.21,0,0,1-.23-.22.2.2,0,0,1,.22-.22h.06v0h-.07v0h0v0h.07V21h0V20.9h0v0h0l0-.08h0v0h0a.22.22,0,0,1-.18.08.23.23,0,0,1-.23-.24.22.22,0,0,1,.23-.23c.15,0,.22.09.24.23v0h0v0h0v0h0l0,0h0l0,0h0v0l0-.05h0l0,0h0v0h0l.09-.07h.09l.13-.08,0,0h0l0,0h0v0h0v0h0l0,0,.06,0,.07,0,.06,0h.15l0,0h0v0h0v0h.36a.22.22,0,0,1-.05-.14.23.23,0,0,1,.23-.24.25.25,0,0,1,.15.05h0v0h0v0h0l0,0h0v0h.09v0h.08v0H19v0h0l.13,0h.18l0,0h.12v0h0l0,0h0v0h.52v0h0l0,0h0v-.07H20v0h.05l0,0,.06,0h0a.19.19,0,0,1-.12-.19.19.19,0,0,1,.21-.21.16.16,0,0,1,.12,0h0v0l0,0v0h0v-.05l0-.05h0v0h.1v0h0l0,0h0v0l0,0V18h0v0h0v0h0v0h0l0-.07h0l0,0,.05,0h0v0l0-.1v-.45A.21.21,0,0,1,21,17a.21.21,0,0,1,.2-.23h.07l.05-.06h0v0h0v-.08h0v-.13h0v-.13h0a.35.35,0,0,1-.11,0,.21.21,0,1,1,0-.42.21.21,0,0,1,.19.09h0l0,0h0v-.05h0v0h0v0h0v0h0v0h0v-.41a.21.21,0,0,1-.19.09.2.2,0,0,1-.2-.22q0-.2.21-.21a.2.2,0,0,1,.18.09h0v0h0v0h0v0h-.07v0h0v0h0v0h0v0h0v0h0v0h0v0h0v0h0v-.07h0v0h0l0,0h0v0h0l0,0h0v0h.06v0h0v0h0v0h.11v0l0,0,0,0,0,0h0l0,0,0,0,0-.05,0-.06,0-.06,0,0v0l0-.07v0h0v0l0-.08,0,0h0v0h0a.18.18,0,0,1-.19-.19.18.18,0,0,1,.19-.2.18.18,0,0,1,.2.18h0l0,0h0l0,0,.06,0,.08,0h.1l.05-.07h0l.05-.05,0,0h0l0,0h0l0,0h0v0l0,0h0v0h0v0h0l0,0h0v0h0v0H23v0h0c-.11,0-.18-.06-.18-.17a.16.16,0,0,1,.17-.19.17.17,0,0,1,.18.17h0v0l0,0,0,0v0h0l0,0h0l0,0,0-.09h0v0h0v0h0v-.05h0v0h0v0h0v0h0v0h0V11.5h0Zm-8.5-3.74a.19.19,0,0,1,.21.21c0,.14-.08.2-.21.21a.2.2,0,0,1-.21-.21A.19.19,0,0,1,14.88,7.73ZM6.74,8.1a.14.14,0,0,1-.15-.16c0-.1.06-.15.16-.16a.14.14,0,0,1,.16.16C6.92,8.05,6.85,8.11,6.74,8.1ZM5,11.69a.16.16,0,0,1-.16-.17A.15.15,0,0,1,5,11.36a.14.14,0,0,1,.15.16A.15.15,0,0,1,5,11.69Zm.89-1.22c.11,0,.16.07.17.18a.17.17,0,0,1-.18.17.18.18,0,1,1,0-.35Zm0,.86c.11,0,.19.08.19.19a.18.18,0,0,1-.19.19.17.17,0,0,1-.18-.18C5.64,11.42,5.72,11.35,5.83,11.33Zm0,1.3c-.11,0-.19-.08-.19-.19a.18.18,0,0,1,.19-.19.17.17,0,0,1,.19.2C6,12.56,5.94,12.62,5.83,12.63Zm.91-2.17a.17.17,0,0,1,.2.19.18.18,0,0,1-.19.19c-.11,0-.19-.08-.19-.19A.18.18,0,0,1,6.74,10.46Zm0,.86c.12,0,.2.08.2.21a.19.19,0,0,1-.21.19.2.2,0,0,1-.19-.19C6.55,11.4,6.63,11.34,6.75,11.32Zm0,1.32a.19.19,0,0,1-.21-.21.19.19,0,0,1,.2-.19.19.19,0,0,1,.2.2C6.94,12.56,6.88,12.64,6.76,12.64Zm.92-4.87a.16.16,0,0,1,.16.17c0,.11-.07.16-.17.17a.17.17,0,0,1-.17-.18C7.5,7.82,7.57,7.77,7.68,7.77Zm0,.9c.12,0,.19.08.18.2a.17.17,0,0,1-.2.17.18.18,0,0,1-.17-.18A.18.18,0,0,1,7.67,8.67Zm0,.87c.11,0,.17.08.19.19a.21.21,0,0,1-.21.2.19.19,0,0,1-.19-.2A.18.18,0,0,1,7.68,9.54Zm0,.9c.12,0,.2.08.2.2a.2.2,0,1,1-.4,0A.19.19,0,0,1,7.67,10.44Zm0,.88a.19.19,0,0,1,.21.19.2.2,0,0,1-.2.22c-.14,0-.22-.07-.22-.21A.18.18,0,0,1,7.67,11.32Zm0,1.33a.2.2,0,0,1-.2-.22.21.21,0,0,1,.23-.21.22.22,0,1,1,0,.43Zm.89-4.9c.11,0,.19.08.19.19a.19.19,0,1,1-.37,0C8.35,7.84,8.42,7.77,8.54,7.75Zm0,.91c.11,0,.17.08.19.19a.19.19,0,0,1-.2.2.18.18,0,0,1-.19-.19A.19.19,0,0,1,8.55,8.66Zm0,.87a.19.19,0,0,1,.21.19c0,.13-.07.21-.19.21a.18.18,0,0,1-.22-.2A.18.18,0,0,1,8.54,9.53Zm0,.9a.2.2,0,0,1,.22.21.21.21,0,0,1-.21.22.2.2,0,0,1-.22-.2A.21.21,0,0,1,8.54,10.43Zm0,.87a.21.21,0,0,1,.22.23.22.22,0,0,1-.23.22c-.14,0-.23-.09-.22-.23A.2.2,0,0,1,8.55,11.3Zm0,1.38a.24.24,0,0,1-.24-.24.22.22,0,0,1,.24-.24.23.23,0,0,1,.23.23A.25.25,0,0,1,8.55,12.68Zm.92-4.93a.17.17,0,0,1,.18.19.17.17,0,0,1-.19.19c-.12,0-.18-.07-.2-.19A.2.2,0,0,1,9.47,7.75Zm0,.91c.12,0,.19.07.21.19a.2.2,0,0,1-.2.21.19.19,0,0,1-.21-.21A.18.18,0,0,1,9.46,8.66Zm0,.86a.2.2,0,0,1,.21.21.21.21,0,1,1-.42,0C9.25,9.59,9.33,9.53,9.46,9.52Zm0,.89a.24.24,0,1,1-.23.23C9.23,10.5,9.33,10.43,9.46,10.41Zm0,.88c.14,0,.22.08.24.23s-.08.24-.23.24a.23.23,0,0,1-.25-.23A.22.22,0,0,1,9.46,11.29Zm0,.9a.24.24,0,0,1,.26.24.24.24,0,0,1-.25.25.22.22,0,0,1-.24-.24A.23.23,0,0,1,9.45,12.19Zm0,1.42a.25.25,0,0,1-.25-.25.24.24,0,0,1,.26-.26.23.23,0,0,1,.24.26C9.71,13.51,9.62,13.59,9.46,13.61Zm.91-6.77a.19.19,0,0,1,.2.18.18.18,0,0,1-.19.19A.17.17,0,0,1,10.19,7,.18.18,0,0,1,10.37,6.84Zm0,.9a.2.2,0,0,1,.19.21.19.19,0,0,1-.21.19.2.2,0,0,1,0-.4Zm0,.91a.19.19,0,0,1,.2.22.2.2,0,0,1-.23.2.2.2,0,0,1-.19-.23A.19.19,0,0,1,10.35,8.65Zm-.24,1.07a.23.23,0,0,1,.23-.22.24.24,0,0,1,.23.23.23.23,0,0,1-.23.23A.23.23,0,0,1,10.11,9.72Zm.24.69a.23.23,0,0,1,.23.25.22.22,0,0,1-.25.22.21.21,0,0,1-.23-.24A.22.22,0,0,1,10.35,10.41Zm0,.91a.22.22,0,0,1,.24.25.23.23,0,0,1-.24.24.23.23,0,0,1-.25-.25A.22.22,0,0,1,10.34,11.32Zm0,.85a.27.27,0,0,1,.27.26.27.27,0,0,1-.26.27.27.27,0,0,1,0-.53Zm0,1.46a.3.3,0,0,1-.27-.27.3.3,0,0,1,.29-.28.27.27,0,0,1,.26.27A.29.29,0,0,1,10.33,13.63Zm.92-5.89a.19.19,0,0,1,.21.18c0,.13-.05.21-.18.22a.2.2,0,1,1,0-.4Zm0,.9a.2.2,0,0,1,.21.23.21.21,0,0,1-.22.21A.22.22,0,0,1,11,8.85.21.21,0,0,1,11.26,8.64Zm0,.86a.24.24,0,0,1,.25.22c0,.16-.1.25-.25.25A.22.22,0,0,1,11,9.72.21.21,0,0,1,11.25,9.5Zm0,.9a.23.23,0,0,1,.24.23.25.25,0,1,1-.49,0A.24.24,0,0,1,11.26,10.4ZM11,11.55a.27.27,0,0,1,.28-.25.27.27,0,0,1,.25.28.27.27,0,0,1-.53,0Zm.27.61a.28.28,0,0,1,.27.28.28.28,0,0,1-.28.27.27.27,0,0,1-.27-.28A.28.28,0,0,1,11.26,12.16Zm0,.91a.28.28,0,0,1,.29.28.29.29,0,1,1-.29-.28Zm0,1.44a.27.27,0,0,1-.28-.29.29.29,0,1,1,.57,0A.27.27,0,0,1,11.25,14.51Zm.94-6.77a.19.19,0,0,1,.19.23.2.2,0,0,1-.22.18c-.14,0-.2-.09-.2-.23A.19.19,0,0,1,12.19,7.74Zm0,.89a.23.23,0,0,1,0,.45.21.21,0,0,1-.23-.22A.23.23,0,0,1,12.18,8.63Zm0,.86a.23.23,0,0,1,.24.24.23.23,0,0,1-.25.24.22.22,0,0,1-.23-.22A.24.24,0,0,1,12.17,9.49Zm0,.9a.26.26,0,1,1,0,.51.24.24,0,0,1-.26-.26C11.92,10.49,12,10.41,12.17,10.39Zm-.27,1.15a.26.26,0,0,1,.28-.25.28.28,0,0,1,.27.29.29.29,0,0,1-.3.26A.28.28,0,0,1,11.9,11.54Zm.29.61a.28.28,0,0,1,.26.31.28.28,0,0,1-.28.26.27.27,0,0,1-.28-.29A.28.28,0,0,1,12.19,12.15Zm0,.91a.29.29,0,0,1,.29.29.3.3,0,0,1-.29.3.29.29,0,0,1-.3-.29A.28.28,0,0,1,12.18,13.06Zm-.32,1.15a.33.33,0,0,1,.33-.29.32.32,0,0,1,.29.32.31.31,0,1,1-.62,0Zm.29,1.24a.31.31,0,0,1,0-.62.31.31,0,0,1,0,.62Zm.91-7.72a.21.21,0,1,1-.22.2A.19.19,0,0,1,13.06,7.73Zm0,.9c.14,0,.21.09.22.23a.23.23,0,0,1-.24.23.21.21,0,0,1-.22-.23A.21.21,0,0,1,13.06,8.63Zm0,.86a.22.22,0,0,1,.24.21A.23.23,0,0,1,13,10a.22.22,0,0,1-.24-.23A.24.24,0,0,1,13.05,9.49Zm0,.89a.26.26,0,0,1,.26.27.27.27,0,0,1-.27.26.27.27,0,0,1-.26-.27A.28.28,0,0,1,13.05,10.38Zm0,.9a.29.29,0,0,1,.28.28.28.28,0,0,1-.27.28.28.28,0,0,1-.29-.28A.29.29,0,0,1,13.05,11.28Zm0,.87a.28.28,0,0,1,.29.28.29.29,0,0,1-.28.3.29.29,0,1,1,0-.58Zm-.31,1.19a.33.33,0,0,1,.33-.3.33.33,0,0,1,.29.33.31.31,0,0,1-.62,0Zm.32.57a.32.32,0,0,1,.31.32.33.33,0,0,1-.32.32.32.32,0,0,1-.32-.34A.31.31,0,0,1,13.06,13.91Zm0,4.22a.28.28,0,0,1-.3-.27.29.29,0,0,1,.28-.3.28.28,0,0,1,.29.28A.26.26,0,0,1,13.06,18.13Zm0-.89a.32.32,0,0,1-.3-.31.31.31,0,0,1,.31-.3.3.3,0,0,1,.3.31A.32.32,0,0,1,13,17.24Zm0-.86a.33.33,0,0,1-.32-.32.32.32,0,0,1,.31-.32.33.33,0,0,1,.33.32A.34.34,0,0,1,13.05,16.38Zm0-.92a.3.3,0,0,1-.32-.32.32.32,0,0,1,.64,0A.31.31,0,0,1,13.05,15.46ZM14,7.73a.21.21,0,1,1,0,.42.2.2,0,0,1-.19-.22A.2.2,0,0,1,14,7.73Zm0,.89a.24.24,0,0,1,.23.24c0,.14-.09.23-.24.23a.22.22,0,0,1-.23-.23A.22.22,0,0,1,14,8.62Zm0,.87a.22.22,0,0,1,.23.24A.24.24,0,0,1,14,10c-.15,0-.25-.1-.24-.26A.22.22,0,0,1,14,9.49Zm-.28,1.13a.27.27,0,0,1,.28-.24.27.27,0,0,1,.25.28.28.28,0,0,1-.28.26A.28.28,0,0,1,13.7,10.62Zm.28.66a.28.28,0,1,1,0,.56.28.28,0,0,1-.28-.28A.28.28,0,0,1,14,11.28Zm0,.86a.29.29,0,0,1,.29.29.3.3,0,0,1-.28.3.29.29,0,0,1-.31-.29A.29.29,0,0,1,14,12.14Zm0,.9a.32.32,0,1,1-.32.31A.32.32,0,0,1,14,13Zm0,.86a.33.33,0,0,1,.33.32.32.32,0,0,1-.32.33.31.31,0,0,1-.33-.31A.33.33,0,0,1,14,13.9ZM14,19a.28.28,0,1,1,.27-.29A.28.28,0,0,1,14,19Zm0-.9a.29.29,0,1,1,.29-.28A.28.28,0,0,1,14,18.14Zm0-.9a.32.32,0,0,1-.3-.31.32.32,0,0,1,.33-.31.33.33,0,0,1,.3.32A.33.33,0,0,1,14,17.24Zm0-.86a.32.32,0,0,1-.31-.33.32.32,0,0,1,.34-.31.33.33,0,0,1,.31.32A.32.32,0,0,1,14,16.38Zm0-.91a.33.33,0,1,1,0-.66.32.32,0,0,1,.31.34A.31.31,0,0,1,14,15.47Zm0,8a.18.18,0,0,1-.2-.19.2.2,0,0,1,.19-.2c.12,0,.2.08.2.2A.17.17,0,0,1,14,23.45Zm0-.89a.2.2,0,0,1-.2-.23.21.21,0,0,1,.41,0C14.17,22.49,14.09,22.55,14,22.56Zm.93-13.07a.23.23,0,0,1,.24.24.24.24,0,0,1-.23.25c-.17,0-.26-.09-.26-.25A.22.22,0,0,1,14.89,9.49Zm0,.89a.27.27,0,0,1,.26.27.27.27,0,0,1-.27.26.28.28,0,0,1-.27-.27A.28.28,0,0,1,14.89,10.38Zm0,.9a.29.29,0,0,1,.28.28.28.28,0,1,1-.28-.28Zm0,.87a.27.27,0,0,1,.27.3.29.29,0,1,1-.27-.3Zm0,.89a.32.32,0,0,1,.31.3.31.31,0,1,1-.31-.3Zm0,.87a.32.32,0,0,1,0,.64.32.32,0,0,1-.34-.32A.32.32,0,0,1,14.89,13.91Zm0,9.54a.19.19,0,0,1,0-.38.19.19,0,1,1,0,.38Zm0-.9a.19.19,0,0,1-.19-.22.18.18,0,0,1,.22-.19.19.19,0,0,1,.19.21A.2.2,0,0,1,14.87,22.55Zm0-.89a.23.23,0,0,1-.22-.23.24.24,0,0,1,.23-.23.23.23,0,0,1,.23.22A.24.24,0,0,1,14.87,21.66Zm0-.87a.23.23,0,0,1-.25-.24.22.22,0,0,1,.24-.23c.15,0,.23.09.25.23A.24.24,0,0,1,14.89,20.79Zm.25-1.13a.25.25,0,0,1-.27.24.25.25,0,0,1-.24-.28.24.24,0,0,1,.26-.24A.26.26,0,0,1,15.14,19.66ZM14.87,19a.29.29,0,0,1-.27-.28.29.29,0,0,1,.29-.27.28.28,0,0,1,.27.28A.29.29,0,0,1,14.87,19Zm0-.9a.29.29,0,1,1,.28-.3A.28.28,0,0,1,14.89,18.14Zm0-.9a.32.32,0,0,1-.32-.32.32.32,0,0,1,.32-.29.31.31,0,0,1,.3.3A.32.32,0,0,1,14.89,17.24Zm0-.86a.32.32,0,0,1-.33-.32.32.32,0,0,1,.32-.32.32.32,0,0,1,0,.64Zm0-.91a.32.32,0,0,1-.32-.33.31.31,0,0,1,.33-.32.32.32,0,0,1,.32.33A.33.33,0,0,1,14.88,15.47Zm.88-6a.24.24,0,0,1,.24.24.23.23,0,0,1-.25.24.22.22,0,0,1-.23-.23A.23.23,0,0,1,15.76,9.49Zm-.26,1.14a.25.25,0,0,1,.26-.24.26.26,0,1,1-.26.24Zm0,.92a.28.28,0,1,1,.26.29A.28.28,0,0,1,15.48,11.55Zm.27.6a.28.28,0,0,1,.29.28.27.27,0,0,1-.28.29.28.28,0,0,1-.29-.28A.29.29,0,0,1,15.75,12.15Zm0,.9a.3.3,0,0,1,.31.3.32.32,0,0,1-.3.31.32.32,0,0,1-.31-.3A.32.32,0,0,1,15.75,13.05Zm0,.87a.32.32,0,0,1,.31.3.31.31,0,1,1-.62,0A.31.31,0,0,1,15.76,13.92Zm0,8.63a.2.2,0,0,1-.21-.2.19.19,0,0,1,.21-.21.18.18,0,0,1,.2.22C16,22.48,15.88,22.54,15.76,22.55Zm0-.89a.23.23,0,0,1-.22-.24.21.21,0,0,1,.24-.21.21.21,0,0,1,.21.22C16,21.57,15.89,21.64,15.75,21.66Zm0-.87a.22.22,0,0,1-.23-.24c0-.15.1-.22.24-.24a.24.24,0,0,1,.24.25A.23.23,0,0,1,15.75,20.79Zm0-.9a.23.23,0,0,1-.23-.24.22.22,0,0,1,.23-.26.25.25,0,0,1,.27.25A.25.25,0,0,1,15.74,19.89Zm0-.85a.28.28,0,1,1,.28-.28A.29.29,0,0,1,15.75,19ZM16,17.87a.28.28,0,0,1-.56,0,.27.27,0,0,1,.29-.27A.28.28,0,0,1,16,17.87Zm-.3-.64a.3.3,0,0,1-.28-.3.3.3,0,0,1,.32-.29.28.28,0,0,1,.27.3A.29.29,0,0,1,15.74,17.23Zm0-.86a.32.32,0,0,1-.31-.3.31.31,0,0,1,.62,0A.33.33,0,0,1,15.76,16.37Zm0-.91a.33.33,0,0,1-.32-.31.32.32,0,0,1,.31-.32.31.31,0,0,1,.32.31A.33.33,0,0,1,15.76,15.46Zm.92-6a.23.23,0,0,1,.24.23c0,.15-.1.24-.25.24a.22.22,0,0,1-.23-.24A.21.21,0,0,1,16.68,9.5Zm0,.9c.16,0,.23.1.25.25s-.1.25-.26.24a.22.22,0,0,1-.24-.25A.22.22,0,0,1,16.68,10.4Zm0,.89a.29.29,0,0,1,.28.27.28.28,0,0,1-.55,0A.29.29,0,0,1,16.67,11.29Zm0,.87a.28.28,0,0,1,.27.28.28.28,0,1,1-.55,0A.28.28,0,0,1,16.68,12.16Zm0,.91a.29.29,0,1,1-.28.28A.28.28,0,0,1,16.67,13.07Zm0,.87a.28.28,0,0,1,.29.28.29.29,0,0,1-.29.3.29.29,0,1,1,0-.58Zm0,5.94a.24.24,0,1,1,0-.48c.16,0,.24.09.25.24S16.83,19.89,16.67,19.88Zm0-.85a.27.27,0,1,1,.27-.26A.27.27,0,0,1,16.67,19Zm0-.9a.28.28,0,1,1,.27-.29A.29.29,0,0,1,16.68,18.13Zm0-.91a.29.29,0,1,1,.3-.28A.28.28,0,0,1,16.66,17.22Zm0-.87a.29.29,0,0,1-.31-.29.3.3,0,0,1,.59,0A.29.29,0,0,1,16.69,16.35Zm0-.91a.3.3,0,1,1,0-.59.28.28,0,0,1,.29.28A.29.29,0,0,1,16.69,15.44Zm.89-6.8c.14,0,.22.08.22.21a.21.21,0,1,1-.22-.21Zm0,.86a.22.22,0,0,1,.22.25.24.24,0,0,1-.23.22c-.14,0-.23-.1-.23-.23A.22.22,0,0,1,17.6,9.5Zm0,.91a.24.24,0,0,1,.23.27.22.22,0,0,1-.23.21.24.24,0,1,1,0-.48Zm0,.9a.23.23,0,0,1,.22.27.25.25,0,0,1-.27.24.25.25,0,0,1-.23-.27A.24.24,0,0,1,17.58,11.31Zm0,.86a.27.27,0,0,1,0,.54.28.28,0,0,1-.27-.27A.28.28,0,0,1,17.57,12.17Zm0,.91a.28.28,0,0,1,.27.28.28.28,0,0,1-.56,0A.29.29,0,0,1,17.56,13.08Zm0,.87a.28.28,0,0,1,0,.56.29.29,0,0,1-.27-.29A.29.29,0,0,1,17.56,14Zm0,5.93a.23.23,0,0,1-.25-.23.24.24,0,0,1,.22-.25c.16,0,.25.08.26.23A.23.23,0,0,1,17.56,19.88Zm0-.87a.23.23,0,0,1-.24-.26.23.23,0,0,1,.26-.23c.16,0,.23.1.24.26A.23.23,0,0,1,17.54,19Zm0-.89a.29.29,0,0,1-.28-.27.27.27,0,0,1,.54,0A.28.28,0,0,1,17.56,18.12ZM17.83,17a.28.28,0,0,1-.3.26.26.26,0,0,1-.25-.28.27.27,0,0,1,.28-.27A.28.28,0,0,1,17.83,17Zm0-.87a.28.28,0,0,1-.29.26.28.28,0,1,1,0-.56A.28.28,0,0,1,17.83,16.08Zm-.28-.66a.28.28,0,0,1-.28-.29.29.29,0,0,1,.29-.27.29.29,0,0,1,.27.29A.27.27,0,0,1,17.55,15.42Zm.93-5a.21.21,0,0,1,.22.25.23.23,0,0,1-.24.21c-.14,0-.24-.1-.22-.25A.21.21,0,0,1,18.48,10.42Zm0,.9a.24.24,0,0,1,.24.24.23.23,0,0,1-.25.24.22.22,0,0,1-.23-.23A.23.23,0,0,1,18.47,11.32Zm0,.87a.24.24,0,0,1,.25.24.24.24,0,0,1-.25.26.25.25,0,0,1,0-.5Zm0,.9a.27.27,0,0,1,.27.26.26.26,0,0,1-.26.26.24.24,0,0,1-.26-.24A.27.27,0,0,1,18.46,13.09Zm0,.87a.28.28,0,0,1,.27.27.3.3,0,0,1-.28.27.29.29,0,0,1-.26-.28A.27.27,0,0,1,18.47,14Zm0,5a.23.23,0,0,1-.24-.25.22.22,0,0,1,.25-.22c.14,0,.22.09.23.24S18.62,19,18.47,19Zm.24-1.13a.23.23,0,0,1-.27.22.22.22,0,0,1-.22-.25.24.24,0,0,1,.26-.24A.24.24,0,0,1,18.71,17.87Zm0-.93a.24.24,0,0,1-.25.25.25.25,0,0,1-.26-.27.24.24,0,0,1,.25-.24A.25.25,0,0,1,18.72,16.94Zm-.26-.62a.27.27,0,0,1-.26-.27.28.28,0,0,1,.27-.26.27.27,0,0,1,.26.27A.27.27,0,0,1,18.46,16.32Zm0-.91a.27.27,0,0,1-.28-.27.27.27,0,1,1,.54,0A.27.27,0,0,1,18.48,15.41Zm.91-5.88a.18.18,0,0,1,.2.19.19.19,0,0,1-.19.22c-.14,0-.22-.08-.22-.21A.18.18,0,0,1,19.39,9.53Zm0,.9a.21.21,0,0,1,.22.21.21.21,0,0,1-.21.22.19.19,0,0,1-.23-.2A.2.2,0,0,1,19.39,10.43Zm0,.9a.23.23,0,0,1,.24.23.22.22,0,0,1-.23.23.22.22,0,0,1-.24-.23C19.15,11.42,19.24,11.35,19.38,11.33Zm0,.87c.14,0,.23.09.23.24a.21.21,0,0,1-.24.23.21.21,0,0,1-.23-.24C19.15,12.28,19.24,12.21,19.39,12.2Zm0,.91a.23.23,0,0,1,.24.21c0,.17-.1.28-.25.27a.22.22,0,0,1-.24-.23A.24.24,0,0,1,19.39,13.11Zm0,.87c.16,0,.25.09.25.25a.22.22,0,0,1-.25.24.22.22,0,0,1-.24-.24A.24.24,0,0,1,19.38,14Zm0,.92a.22.22,0,0,1,.24.23.25.25,0,1,1-.49,0A.22.22,0,0,1,19.39,14.9Zm0,4.09a.23.23,0,0,1-.24-.23.22.22,0,0,1,.22-.22c.14,0,.21.08.24.22A.24.24,0,0,1,19.4,19Zm0-.91a.21.21,0,0,1-.23-.24.22.22,0,0,1,.23-.23.25.25,0,0,1,.25.24C19.61,18,19.53,18.09,19.38,18.08Zm-.24-1.15a.24.24,0,0,1,.26-.24.22.22,0,0,1,.22.25c0,.15-.09.22-.24.24A.25.25,0,0,1,19.14,16.93Zm.23-.63a.23.23,0,0,1-.23-.24.23.23,0,0,1,.26-.24.22.22,0,0,1,.23.21A.24.24,0,0,1,19.37,16.3Zm.89-6.76c.12,0,.19.07.2.19a.19.19,0,0,1-.2.2.18.18,0,0,1-.19-.21A.17.17,0,0,1,20.26,9.54Zm0,.9a.2.2,0,0,1,.21.21.19.19,0,0,1-.2.2.19.19,0,0,1-.21-.21A.19.19,0,0,1,20.26,10.44Zm0,.91c.13,0,.21.07.21.2a.19.19,0,0,1-.21.22.19.19,0,0,1-.21-.21A.2.2,0,0,1,20.26,11.35Zm0,.86a.22.22,0,0,1,.21.23.24.24,0,0,1-.23.23c-.14,0-.23-.11-.22-.25A.21.21,0,0,1,20.28,12.21ZM20,13.34a.23.23,0,0,1,.24-.22.24.24,0,0,1,.23.24c0,.13-.1.22-.24.22A.22.22,0,0,1,20,13.34Zm.23.66a.21.21,0,0,1,.23.23.23.23,0,0,1-.23.24.24.24,0,0,1-.23-.25A.21.21,0,0,1,20.26,14Zm0,.91a.22.22,0,0,1,.22.25c0,.14-.1.2-.23.22s-.24-.1-.23-.25A.22.22,0,0,1,20.27,14.91Zm0,3.16a.21.21,0,0,1-.23-.22.22.22,0,1,1,.23.22Zm0-.91a.22.22,0,0,1-.23-.22.24.24,0,0,1,.24-.24.25.25,0,0,1,.23.24C20.47,17.07,20.4,17.16,20.26,17.16Zm0-.87a.22.22,0,0,1-.22-.23.21.21,0,0,1,.24-.23c.14,0,.21.1.23.23S20.4,16.3,20.25,16.29Zm.93-5.84a.2.2,0,0,1,.2.18c0,.13-.08.21-.21.21a.18.18,0,0,1-.19-.19A.19.19,0,0,1,21.18,10.45Zm0,.91a.2.2,0,0,1,.19.19c0,.14-.08.21-.2.21a.18.18,0,0,1-.2-.19A.19.19,0,0,1,21.19,11.36Zm0,.87c.13,0,.19.08.21.2a.2.2,0,0,1-.22.21.19.19,0,0,1-.2-.2A.19.19,0,0,1,21.18,12.23Zm0,2.21a.19.19,0,0,1-.2-.22.19.19,0,0,1,.21-.2.19.19,0,0,1,.21.21C21.39,14.37,21.31,14.43,21.17,14.44Zm0-.88a.19.19,0,0,1-.19-.23.21.21,0,0,1,.42,0A.2.2,0,0,1,21.16,13.56Zm.95-3.09a.18.18,0,0,1,.17.18.19.19,0,0,1-.2.18.17.17,0,0,1-.17-.19A.18.18,0,0,1,22.11,10.47Zm0,.9a.21.21,0,0,1,.19.2.2.2,0,0,1-.2.18.17.17,0,0,1-.18-.19A.18.18,0,0,1,22.1,11.37Zm0,1.26a.19.19,0,0,1-.2-.2c0-.11.08-.17.19-.19s.2.08.2.2A.18.18,0,0,1,22.1,12.63Zm.87-.9a.15.15,0,0,1-.17-.17.16.16,0,0,1,.17-.17c.11,0,.17.06.17.17A.15.15,0,0,1,23,11.73Z"/><polygon class="cls-2" points="18.68 8.86 18.68 8.86 18.67 8.86 18.68 8.86"/><polygon class="cls-2" points="16.02 7.87 15.99 7.88 15.98 7.9 15.98 7.91 16 7.9 16.03 7.88 16.04 7.88 16.04 7.87 16.04 7.86 16.03 7.86 16.02 7.87"/><polygon class="cls-2" points="16.91 20.59 16.91 20.59 16.91 20.58 16.91 20.58 16.91 20.59 16.91 20.59"/><path class="cls-2" d="M12,16.3h0v0h0v-.11l0-.05v0h0V16h-.2s0,.06,0,.09a.33.33,0,0,0,.18.28h0Z"/><path class="cls-2" d="M12.42,17l0-.07v0h0v0h0l0,0,0-.06-.05-.08h0a.28.28,0,0,0-.22-.09.29.29,0,0,0-.28.3.28.28,0,0,0,.31.28.29.29,0,0,0,.2-.09v0Z"/><path class="cls-2" d="M11.35,15.94h-.14v-.16a.27.27,0,0,0-.22.27.28.28,0,0,0,.28.29.27.27,0,0,0,.29-.28.36.36,0,0,0,0-.11h-.17Z"/><path class="cls-2" d="M11.15,15.35h0v-.23h0l0,0h0v0l0,0v0h0l0,0h0v0h0a.31.31,0,0,0-.09.21.27.27,0,0,0,.08.22h.1Z"/><path class="cls-2" d="M12.24,18.1h0v0H12.2v0h0v0h.08l-.05,0,0,0,0,0v-.05h0v-.06h-.05a.28.28,0,0,0-.29.28.28.28,0,0,0,.27.28h.09Z"/><path class="cls-2" d="M11.27,16.65a.3.3,0,0,0-.3.28.28.28,0,0,0,.27.28.28.28,0,0,0,.3-.27A.29.29,0,0,0,11.27,16.65Z"/><path class="cls-2" d="M10.35,16.66a.27.27,0,1,0,.26.28A.29.29,0,0,0,10.35,16.66Z"/><path class="cls-2" d="M10.34,15.78a.29.29,0,0,0-.28.28.28.28,0,0,0,.55,0A.28.28,0,0,0,10.34,15.78Z"/><path class="cls-2" d="M10.33,14.87a.28.28,0,1,0,0,.55.28.28,0,1,0,0-.55Z"/><path class="cls-2" d="M11.25,17.58a.27.27,0,0,0-.27.26.28.28,0,0,0,.27.28.27.27,0,1,0,0-.54Z"/><path class="cls-2" d="M12.38,18.91h-.13v0h0v0h0l0,0h0v0h0v0l0,0a.28.28,0,0,0-.13,0,.29.29,0,0,0-.27.27.29.29,0,0,0,.28.28.32.32,0,0,0,.22-.13h0Z"/><path class="cls-2" d="M12.86,19h0l0,0h0Z"/><path class="cls-2" d="M13.1,19h0v0h0v0h0l0,0h-.08v0h0l0,0h0A.22.22,0,0,0,13,19a.28.28,0,0,0,.15,0H13.1Z"/><path class="cls-2" d="M10.33,14.5h0l0,0h0v0h0v0h-.12v0h0a.27.27,0,0,0,.25.15h0Z"/><path class="cls-2" d="M11.27,18.51a.26.26,0,1,0,.24.26A.24.24,0,0,0,11.27,18.51Z"/><path class="cls-2" d="M9.69,14.17H9.58l0,0H9.43v0H9.36l0,0H9.29v0h0a.24.24,0,0,0-.07.18.25.25,0,0,0,.28.24.25.25,0,0,0,.24-.25.13.13,0,0,0,0-.06Z"/><path class="cls-2" d="M9.45,14.88a.26.26,0,0,0-.25.26.26.26,0,1,0,.25-.26Z"/><path class="cls-2" d="M10.34,17.59a.26.26,0,1,0,0,.52.26.26,0,1,0,0-.52Z"/><path class="cls-2" d="M14,19.85h0l-.08-.05h0v0h0l-.05,0a.34.34,0,0,0,.16.07H14l0,0Z"/><path class="cls-2" d="M9.49,15.8a.25.25,0,0,0-.28.24.23.23,0,0,0,.22.27.26.26,0,1,0,.06-.51Z"/><path class="cls-2" d="M9.46,16.69a.25.25,0,1,0,0,.49c.16,0,.24-.09.25-.26S9.62,16.68,9.46,16.69Z"/><path class="cls-2" d="M12.17,19.39a.23.23,0,0,0-.25.25.25.25,0,0,0,.5,0A.23.23,0,0,0,12.17,19.39Z"/><path class="cls-2" d="M13,19.38a.25.25,0,0,0-.25.24.25.25,0,0,0,.25.27.23.23,0,0,0,.26-.24A.25.25,0,0,0,13,19.38Z"/><path class="cls-2" d="M9.46,17.61a.22.22,0,0,0-.24.24.24.24,0,1,0,.48,0A.22.22,0,0,0,9.46,17.61Z"/><path class="cls-2" d="M8.58,15.38a.23.23,0,0,0,.21-.24.23.23,0,0,0-.25-.24.24.24,0,0,0-.24.24A.24.24,0,0,0,8.58,15.38Z"/><path class="cls-2" d="M8.78,14.24A.21.21,0,0,0,8.56,14a.24.24,0,0,0-.05.48A.24.24,0,0,0,8.78,14.24Z"/><path class="cls-2" d="M10.33,18.52a.23.23,0,0,0-.24.24.23.23,0,0,0,.24.25c.16,0,.24-.09.26-.26A.25.25,0,0,0,10.33,18.52Z"/><path class="cls-2" d="M11.26,19.4a.23.23,0,0,0-.25.24.23.23,0,0,0,.24.24.23.23,0,0,0,.25-.24A.23.23,0,0,0,11.26,19.4Z"/><path class="cls-2" d="M8.52,16.3a.23.23,0,0,0,.26-.23.22.22,0,0,0-.22-.25.24.24,0,0,0,0,.48Z"/><path class="cls-2" d="M13.05,20.31a.24.24,0,0,0-.24.26.23.23,0,0,0,.25.23.24.24,0,0,0,.23-.25A.23.23,0,0,0,13.05,20.31Z"/><path class="cls-2" d="M14.14,20.72h-.08v0h-.2v0h0v-.06h0v0h0v0l0-.09h0a.24.24,0,0,0-.26.22.25.25,0,0,0,.25.27.23.23,0,0,0,.18-.08h0Z"/><path class="cls-2" d="M8.72,13.52h0v0h0v0h0v0h0a.28.28,0,0,0-.13,0,.21.21,0,0,0-.24.23c0,.15.08.22.24.25a.38.38,0,0,0,.17-.08Z"/><path class="cls-2" d="M8.53,17.61c-.13,0-.22.1-.22.24a.22.22,0,0,0,.24.23.22.22,0,0,0,.23-.23C8.78,17.7,8.68,17.63,8.53,17.61Z"/><path class="cls-2" d="M8.56,16.7a.21.21,0,0,0-.25.22.22.22,0,0,0,.22.25c.15,0,.23-.08.26-.23S8.71,16.71,8.56,16.7Z"/><path class="cls-2" d="M7.68,14.91a.24.24,0,0,0-.24.24.21.21,0,0,0,.23.22.22.22,0,0,0,.23-.21A.26.26,0,0,0,7.68,14.91Z"/><path class="cls-2" d="M7.68,14a.23.23,0,0,0-.24.23.22.22,0,0,0,.23.23.23.23,0,0,0,0-.46Z"/><path class="cls-2" d="M9.46,18.52c-.14,0-.24.1-.23.25a.21.21,0,0,0,.22.23.23.23,0,0,0,.25-.23A.25.25,0,0,0,9.46,18.52Z"/><path class="cls-2" d="M16,8.86h0v0h0v0h0v0h0v0h0v0h-.14v0l-.07-.07h0v0h0v0h0v0h0v0h0l0,0h0v0h0v0h0v0h.06V9h0V9H16a.08.08,0,0,0,0-.06Z"/><path class="cls-2" d="M9.46,19.41a.23.23,0,0,0-.23.23.23.23,0,1,0,.46,0C9.67,19.5,9.59,19.41,9.46,19.41Z"/><path class="cls-2" d="M10.37,19.41a.22.22,0,0,0-.27.2.25.25,0,0,0,.21.27c.15,0,.25-.08.26-.22A.21.21,0,0,0,10.37,19.41Z"/><path class="cls-2" d="M7.67,16.29c.14,0,.23-.1.22-.24a.21.21,0,0,0-.23-.22.22.22,0,0,0-.22.23C7.44,16.2,7.54,16.27,7.67,16.29Z"/><polygon class="cls-2" points="18.64 19.5 18.64 19.49 18.65 19.49 18.64 19.49 18.64 19.49 18.64 19.5"/><path class="cls-2" d="M18.67,19.55h-.21v0h-.13v0h0l0,0h0v0h0v0h0l.1,0c.14,0,.23-.09.23-.23a.29.29,0,0,0,0-.09h0Z"/><path class="cls-2" d="M18.62,19.48h0l0,0h0Z"/><polygon class="cls-2" points="18.65 19.51 18.65 19.52 18.65 19.52 18.66 19.51 18.66 19.5 18.65 19.51 18.65 19.51"/><path class="cls-2" d="M11.26,20.32a.24.24,0,0,0-.24.23.23.23,0,0,0,.24.24.23.23,0,0,0,.23-.23A.23.23,0,0,0,11.26,20.32Z"/><path class="cls-2" d="M12.17,20.32a.22.22,0,0,0-.23.23.21.21,0,0,0,.23.24c.15,0,.22-.09.24-.24S12.32,20.32,12.17,20.32Z"/><path class="cls-2" d="M15,8.67h0v0h0l0,0h.06A.25.25,0,0,0,15,8.67Z"/><path class="cls-2" d="M16.9,20.61h0v0h0v0h0v0h0v0h-.1l0,0h0l0,0h0v0h0v0h.13a.15.15,0,0,0,0-.06h0v0h0v0h0Z"/><polygon class="cls-2" points="16.91 20.58 16.91 20.57 16.91 20.57 16.91 20.58"/><path class="cls-2" d="M17.56,20.33a.21.21,0,0,0-.23.22.2.2,0,0,0,.22.23c.13,0,.21-.09.23-.23A.22.22,0,0,0,17.56,20.33Z"/><path class="cls-2" d="M13.05,21.2a.22.22,0,0,0-.23.23.22.22,0,0,0,.22.23.23.23,0,0,0,.24-.23A.24.24,0,0,0,13.05,21.2Z"/><path class="cls-2" d="M14.08,21.62h0a.26.26,0,0,0,.11-.18c0-.14-.09-.23-.22-.24a.23.23,0,0,0-.25.21.24.24,0,0,0,.23.25.18.18,0,0,0,.11,0h0Z"/><path class="cls-2" d="M7.66,16.71a.22.22,0,0,0-.22.22.22.22,0,0,0,.23.23c.14,0,.21-.09.23-.23S7.8,16.71,7.66,16.71Z"/><path class="cls-2" d="M7.6,13.14v0H7.53a.29.29,0,0,0-.09.19.23.23,0,0,0,.24.22.22.22,0,0,0,.21-.23.21.21,0,0,0-.23-.22H7.6Z"/><path class="cls-2" d="M16.66,8.67l0,0h0l0,0H16.5s0,0,0,.06h0a.13.13,0,0,0,0,.06s0,.06,0,.08h0v0h0l0,0v0h0v0h0l0-.05h0v0h0l0,0h0v0h0l0,0h0v0a.28.28,0,0,0-.13,0h0Z"/><polygon class="cls-2" points="18.59 9.56 18.59 9.57 18.59 9.58 18.59 9.59 18.59 9.59 18.6 9.6 18.58 9.61 18.6 9.61 18.6 9.6 18.6 9.58 18.6 9.57 18.61 9.56 18.61 9.56 18.6 9.55 18.6 9.56 18.59 9.56"/><path class="cls-2" d="M8.55,18.54a.22.22,0,0,0-.23.21.21.21,0,0,0,.21.24.23.23,0,0,0,.24-.22C8.76,18.63,8.69,18.54,8.55,18.54Z"/><path class="cls-2" d="M12.17,21.21a.22.22,0,0,0,0,.44c.14,0,.22-.08.24-.22A.22.22,0,0,0,12.17,21.21Z"/><path class="cls-2" d="M10.34,20.33c-.14,0-.23.1-.23.23a.23.23,0,1,0,.23-.23Z"/><path class="cls-2" d="M16.72,21.27v.07h0v0h0v0h0v0h0v0h-.06a.21.21,0,0,0,.14-.21.21.21,0,0,0-.15-.21v.05Z"/><path class="cls-2" d="M6.73,17.14A.18.18,0,0,0,7,17a.19.19,0,0,0-.17-.22.21.21,0,1,0,0,.41Z"/><path class="cls-2" d="M21.23,16.74h-.08l0,0-.06.09V17l0,.1h0a.19.19,0,0,0,.17.07.21.21,0,0,0,.05-.41Z"/><path class="cls-2" d="M6.74,14.43A.18.18,0,0,0,7,14.25.18.18,0,0,0,6.77,14a.2.2,0,0,0-.23.19C6.54,14.34,6.6,14.43,6.74,14.43Z"/><path class="cls-2" d="M18.47,21.23a.18.18,0,0,0-.2.21c0,.12.08.18.22.2a.2.2,0,0,0,.18-.21A.18.18,0,0,0,18.47,21.23Z"/><path class="cls-2" d="M12.17,22.14c-.13,0-.2.07-.2.2a.19.19,0,0,0,.21.21.18.18,0,0,0,.19-.2C12.38,22.21,12.3,22.15,12.17,22.14Z"/><path class="cls-2" d="M13.06,22.51v-.05h0l0,0,0-.05,0,0h0v0h.05a.2.2,0,0,0-.21-.15.18.18,0,0,0-.2.2.19.19,0,0,0,.18.21l0,0Z"/><path class="cls-2" d="M6.74,14.94a.19.19,0,0,0-.2.2.19.19,0,0,0,.21.21c.14,0,.2-.08.21-.21S6.88,14.93,6.74,14.94Z"/><path class="cls-2" d="M7.68,17.64a.21.21,0,1,0,.2.22A.19.19,0,0,0,7.68,17.64Z"/><path class="cls-2" d="M21.17,17.65a.18.18,0,0,0-.19.21.18.18,0,0,0,.22.19c.13,0,.18-.1.18-.22S21.3,17.64,21.17,17.65Z"/><path class="cls-2" d="M6.93,13.32H6.55v0a.19.19,0,0,0,.19.21c.14,0,.21-.08.22-.22h0Z"/><path class="cls-2" d="M6.78,15.85a.19.19,0,0,0-.23.19.19.19,0,0,0,.18.23c.14,0,.22-.06.23-.2A.2.2,0,0,0,6.78,15.85Z"/><path class="cls-2" d="M21.36,16h0v0h0v.09l0,.07v0h0a.21.21,0,0,0,.09-.19.2.2,0,0,0,0-.11h0Z"/><path class="cls-2" d="M18.34,8.7h0v0h.06v0h0v0h0v0h0v0h0v0h.06v0h0v0h.07l0,0h.08v0h0a.18.18,0,0,0-.14-.2h-.07a.21.21,0,0,0-.12,0Z"/><path class="cls-2" d="M18.49,8.66h0Z"/><path class="cls-2" d="M18.66,8.87h0v0h0Z"/><path class="cls-2" d="M7.67,18.56a.19.19,0,0,0-.21.2c0,.14.08.2.21.21s.21-.08.2-.22A.18.18,0,0,0,7.67,18.56Z"/><path class="cls-2" d="M20.37,18.6v0l0,0v.11l0,.06v0l-.07,0-.05,0h-.05l-.06,0h.09a.19.19,0,0,0,.2-.21.21.21,0,0,0-.09-.18h0Z"/><path class="cls-2" d="M20.26,19.44a.18.18,0,0,0-.2.2.18.18,0,0,0,.21.2c.13,0,.19-.09.2-.23A.19.19,0,0,0,20.26,19.44Z"/><path class="cls-2" d="M8.54,19.43a.18.18,0,0,0-.2.2.19.19,0,0,0,.2.22c.13,0,.2-.07.22-.21A.2.2,0,0,0,8.54,19.43Z"/><path class="cls-2" d="M19.38,19.42a.21.21,0,0,0-.21.22.19.19,0,0,0,.21.21.2.2,0,0,0,.22-.22A.21.21,0,0,0,19.38,19.42Z"/><path class="cls-2" d="M16.56,8.1h.06v0h0l.06,0h0A.17.17,0,0,0,16.88,8a.18.18,0,0,0-.2-.22.19.19,0,0,0-.21.21.18.18,0,0,0,.07.15h0Z"/><path class="cls-2" d="M15.82,7.81l0,0,0,0-.05.05h-.06l0,0V8l0,0h0l0,.05V8h.16l0,0h0l0,0h0l0,0h.08l0,0h.14A.08.08,0,0,0,16,8h0V8h0v0H16a.13.13,0,0,0,0-.06h0a0,0,0,0,0,0,0v0h0v0h-.07V7.83h0l0,0h0Zm0,.13h0V8h0V8h0Z"/><path class="cls-2" d="M21.35,15.08v0h0v0h0v0h0a.26.26,0,0,0,0-.14.2.2,0,0,0,0-.11v.06Z"/><path class="cls-2" d="M9.46,20.35a.18.18,0,0,0-.21.19.19.19,0,0,0,.2.22c.13,0,.21-.06.22-.21A.19.19,0,0,0,9.46,20.35Z"/><path class="cls-2" d="M18.47,20.34a.19.19,0,0,0-.21.2.2.2,0,0,0,.21.23.2.2,0,0,0,.21-.21A.21.21,0,0,0,18.47,20.34Z"/><path class="cls-2" d="M19.38,20.35a.19.19,0,0,0-.2.2c0,.14.08.2.21.21s.2-.08.2-.2A.19.19,0,0,0,19.38,20.35Z"/><path class="cls-2" d="M10.35,21.22c-.14,0-.22.07-.22.21a.18.18,0,0,0,.21.2.18.18,0,0,0,.2-.19C10.55,21.31,10.48,21.24,10.35,21.22Z"/><path class="cls-2" d="M11.25,21.22a.19.19,0,0,0-.21.2c0,.15.08.23.22.22s.2-.08.21-.21A.2.2,0,0,0,11.25,21.22Z"/><path class="cls-2" d="M17.54,21.22a.2.2,0,0,0-.2.2.2.2,0,0,0,.21.22c.14,0,.2-.08.21-.21A.2.2,0,0,0,17.54,21.22Z"/><path class="cls-2" d="M14.7,7h0l0,0h0v0l0,0h0a.19.19,0,0,0-.14.13h0Z"/><path class="cls-2" d="M13.83,6.87H14V7h.07l0,0h0V7h0a.19.19,0,0,0-.2-.15.18.18,0,0,0-.13,0Z"/><polygon class="cls-2" points="22.14 13.54 22.14 13.54 22.14 13.53 22.13 13.53 22.14 13.51 22.15 13.51 22.15 13.49 22.15 13.49 22.16 13.48 22.18 13.47 22.18 13.46 22.18 13.46 22.19 13.46 22.18 13.45 22.18 13.44 22.18 13.43 22.18 13.44 22.18 13.45 22.18 13.45 22.18 13.45 22.17 13.44 22.16 13.43 22.16 13.43 22.16 13.44 22.17 13.46 22.17 13.47 22.17 13.46 22.16 13.46 22.16 13.46 22.16 13.47 22.16 13.47 22.16 13.47 22.16 13.48 22.16 13.48 22.15 13.48 22.15 13.48 22.14 13.48 22.14 13.49 22.13 13.5 22.13 13.53 22.12 13.53 22.12 13.53 22.11 13.53 22.11 13.51 22.11 13.51 22.11 13.52 22.1 13.52 22.1 13.51 22.1 13.53 22.11 13.53 22.11 13.54 22.13 13.54 22.13 13.55 22.14 13.54 22.14 13.54 22.14 13.54"/><path class="cls-2" d="M22.26,13.4h0v0h0v0l0,0h0a.23.23,0,0,0,.13-.18v0l0,.05Z"/><path class="cls-2" d="M12.88,7.11h.34a.3.3,0,0,0,0-.1h0V7h0V7h0v0h0a.17.17,0,0,0-.14-.06.19.19,0,0,0-.2.2.22.22,0,0,0,0,.08h0Z"/><path class="cls-2" d="M6.76,17.65a.2.2,0,1,0,0,.4.2.2,0,0,0,.21-.2A.21.21,0,0,0,6.76,17.65Z"/><path class="cls-2" d="M7.67,19.44c-.11,0-.2.06-.2.19a.19.19,0,0,0,.19.21.19.19,0,0,0,.21-.19C7.87,19.52,7.8,19.46,7.67,19.44Z"/><path class="cls-2" d="M22.11,14.43a.19.19,0,0,0,.18-.21.18.18,0,0,0-.2-.19.18.18,0,0,0-.19.2C21.9,14.36,22,14.42,22.11,14.43Z"/><path class="cls-2" d="M9.45,21.23a.19.19,0,0,0-.19.21.2.2,0,0,0,.21.19c.12,0,.2-.08.19-.21A.19.19,0,0,0,9.45,21.23Z"/><path class="cls-2" d="M21.18,18.57a.2.2,0,1,0,0,.39c.13,0,.19-.07.21-.2S21.31,18.57,21.18,18.57Z"/><path class="cls-2" d="M17.6,8.14a.2.2,0,0,0,0-.4.19.19,0,0,0-.21.21C17.4,8.07,17.47,8.13,17.6,8.14Z"/><path class="cls-2" d="M15.72,6.85h0v0h0v0h0l0,0v0h0v0h.06A.26.26,0,0,0,16,7c0-.1-.07-.19-.2-.19h0Zm.17.16h0v0h0Zm-.07,0h0Z"/><path class="cls-2" d="M19.37,9.05c.13,0,.19-.07.22-.19s-.08-.2-.2-.2a.18.18,0,0,0-.2.2A.17.17,0,0,0,19.37,9.05Z"/><path class="cls-2" d="M11.25,22.15a.18.18,0,0,0-.2.2c0,.12.08.18.2.2a.19.19,0,0,0,.2-.2A.17.17,0,0,0,11.25,22.15Z"/><path class="cls-2" d="M8.56,20.35c-.13,0-.21.07-.21.19a.18.18,0,0,0,.2.21.17.17,0,0,0,.19-.19A.19.19,0,0,0,8.56,20.35Z"/><path class="cls-2" d="M22.09,15a.17.17,0,0,0-.19.2.18.18,0,0,0,.2.19c.13,0,.19-.08.2-.22S22.21,14.94,22.09,15Z"/><path class="cls-2" d="M22.09,15.86a.18.18,0,0,0-.19.2.19.19,0,0,0,.2.2.22.22,0,0,0,.2-.21A.2.2,0,0,0,22.09,15.86Z"/><path class="cls-2" d="M16.73,22.16l0,0h0v0h0v0h0v0h0v0h0v0h-.08l0,0,0,0a.22.22,0,0,0,.18.1c.12,0,.2-.08.2-.2s-.05-.18-.14-.2h0Z"/><path class="cls-2" d="M17.56,22.15a.18.18,0,0,0-.2.19c0,.13.07.19.21.21s.18-.08.18-.21A.18.18,0,0,0,17.56,22.15Z"/><path class="cls-2" d="M20.27,9c.11,0,.17-.08.18-.19a.19.19,0,0,0-.19-.18.19.19,0,1,0,0,.37Z"/><path class="cls-2" d="M7.67,20.36a.18.18,0,0,0-.19.18.18.18,0,0,0,.19.21c.12,0,.18-.08.19-.2A.19.19,0,0,0,7.67,20.36Z"/><path class="cls-2" d="M20.26,20.36a.18.18,0,0,0-.19.18c0,.13.07.19.2.22a.21.21,0,0,0,.19-.2A.18.18,0,0,0,20.26,20.36Z"/><path class="cls-2" d="M6,13.35c0-.11-.08-.19-.19-.19a.18.18,0,0,0-.2.2.19.19,0,0,0,.19.19C6,13.55,6,13.47,6,13.35Z"/><path class="cls-2" d="M5.83,14.42c.12,0,.19-.07.2-.19a.19.19,0,0,0-.19-.2.19.19,0,0,0-.2.2A.17.17,0,0,0,5.83,14.42Z"/><path class="cls-2" d="M5.83,17.13a.2.2,0,0,0,.2-.19.19.19,0,0,0-.2-.2.18.18,0,0,0-.19.19A.2.2,0,0,0,5.83,17.13Z"/><path class="cls-2" d="M5.84,15a.2.2,0,1,0,0,.39.19.19,0,0,0,.2-.2C6,15,6,15,5.84,15Z"/><path class="cls-2" d="M5.85,15.86a.19.19,0,0,0-.21.2.18.18,0,0,0,.2.19A.18.18,0,0,0,6,16.06.2.2,0,0,0,5.85,15.86Z"/><path class="cls-2" d="M8.54,21.24a.18.18,0,0,0-.19.2.2.2,0,0,0,.21.19c.1,0,.18-.09.18-.2A.19.19,0,0,0,8.54,21.24Z"/><path class="cls-2" d="M6.74,19.45a.19.19,0,0,0-.18.19.19.19,0,0,0,.2.19.18.18,0,0,0,.18-.2C6.94,19.52,6.86,19.46,6.74,19.45Z"/><path class="cls-2" d="M22.1,16.74a.18.18,0,0,0-.2.17.19.19,0,0,0,.18.22c.12,0,.19-.07.21-.19S22.22,16.74,22.1,16.74Z"/><path class="cls-2" d="M5.84,17.66a.18.18,0,0,0-.19.18.18.18,0,0,0,.18.2.2.2,0,0,0,.2-.19C6,17.74,6,17.66,5.84,17.66Z"/><path class="cls-2" d="M22.11,17.66a.18.18,0,0,0-.21.18.18.18,0,0,0,.2.2c.11,0,.17-.08.19-.19S22.22,17.66,22.11,17.66Z"/><path class="cls-2" d="M6.75,18.53a.2.2,0,0,0,0,.39.2.2,0,1,0,0-.39Z"/><path class="cls-2" d="M19.4,21.24a.18.18,0,0,0-.21.19.18.18,0,0,0,.18.19c.13,0,.19-.07.22-.19S19.51,21.24,19.4,21.24Z"/><path class="cls-2" d="M9.47,22.16a.18.18,0,0,0-.2.18.2.2,0,0,0,.19.2c.11,0,.19-.08.19-.19A.18.18,0,0,0,9.47,22.16Z"/><path class="cls-2" d="M10.34,22.15a.2.2,0,1,0,0,.39c.13,0,.19-.08.21-.2A.2.2,0,0,0,10.34,22.15Z"/><path class="cls-2" d="M21.19,19.45a.17.17,0,0,0-.2.18.18.18,0,0,0,.19.2.19.19,0,1,0,0-.38Z"/><path class="cls-2" d="M11.33,6.86h.08V7h0a.28.28,0,0,0,0-.12.19.19,0,0,0-.12-.17h0Z"/><path class="cls-2" d="M12.16,7.22a.2.2,0,1,0,0-.39c-.12,0-.2.08-.19.2A.17.17,0,0,0,12.16,7.22Z"/><path class="cls-2" d="M16.67,7.22a.19.19,0,0,0,.2-.19.19.19,0,0,0-.2-.2.19.19,0,0,0-.19.19A.2.2,0,0,0,16.67,7.22Z"/><path class="cls-2" d="M17.59,7.21c.11,0,.17-.07.19-.18s-.07-.19-.18-.19a.18.18,0,0,0-.2.18A.17.17,0,0,0,17.59,7.21Z"/><path class="cls-2" d="M18.46,8.14c.13,0,.19-.08.21-.2s-.08-.19-.19-.19a.18.18,0,0,0-.21.19A.19.19,0,0,0,18.46,8.14Z"/><path class="cls-2" d="M18.48,22.16a.18.18,0,0,0-.2.19.19.19,0,0,0,.19.19c.11,0,.17-.08.19-.19S18.59,22.16,18.48,22.16Z"/><path class="cls-2" d="M11.26,23.07a.2.2,0,0,0-.2.19c0,.11.08.19.19.19a.18.18,0,0,0,.19-.18A.18.18,0,0,0,11.26,23.07Z"/><path class="cls-2" d="M12.17,23.07a.18.18,0,0,0-.19.2.21.21,0,0,0,.2.19c.11,0,.19-.09.18-.2A.17.17,0,0,0,12.17,23.07Z"/><path class="cls-2" d="M13.08,23.43l0,0h0v0H13v0h-.08v0a.21.21,0,0,0,.2.21h0Z"/><path class="cls-2" d="M15.75,23.37v0h0l0,0h0v0h0v0h0v0h-.06v0H15.7v0h-.06v0h0v0h0l0,0h0a.17.17,0,0,0,.18.19h0v-.07Z"/><path class="cls-2" d="M16.68,23.07a.19.19,0,1,0,0,.38c.11,0,.17-.08.19-.19S16.79,23.07,16.68,23.07Z"/><path class="cls-2" d="M5.84,18.54a.19.19,0,0,0-.19.17.17.17,0,0,0,.18.19A.15.15,0,0,0,6,18.74C6,18.62,6,18.56,5.84,18.54Z"/><path class="cls-2" d="M20.26,21.24a.19.19,0,0,0-.18.19.17.17,0,0,0,.17.18.17.17,0,0,0,.2-.17C20.45,21.32,20.38,21.26,20.26,21.24Z"/><path class="cls-2" d="M23,15.87a.17.17,0,0,0-.19.19.19.19,0,0,0,.18.19.2.2,0,0,0,.19-.2A.19.19,0,0,0,23,15.87Z"/><path class="cls-2" d="M23,15a.17.17,0,0,0-.2.17c0,.11.06.18.18.2a.19.19,0,0,0,.19-.18A.18.18,0,0,0,23,15Z"/><path class="cls-2" d="M21.19,20.37a.18.18,0,0,0-.2.18.19.19,0,0,0,.19.19.18.18,0,0,0,.18-.19A.17.17,0,0,0,21.19,20.37Z"/><path class="cls-2" d="M4.94,15a.17.17,0,0,0-.16.19.16.16,0,0,0,.19.17c.11,0,.16-.08.17-.18A.18.18,0,0,0,4.94,15Z"/><path class="cls-2" d="M22.1,18.58a.19.19,0,1,0,0,.37.2.2,0,0,0,.2-.18C22.27,18.66,22.21,18.58,22.1,18.58Z"/><path class="cls-2" d="M23.15,13.37a.17.17,0,0,0-.17-.2.17.17,0,0,0-.19.17c0,.11.06.18.18.2A.18.18,0,0,0,23.15,13.37Z"/><path class="cls-2" d="M21.18,9.55h0v0h0l0,0h.08a.18.18,0,0,0-.18-.11h0Z"/><path class="cls-2" d="M6.57,9.71v0S6.57,9.7,6.57,9.71Z"/><path class="cls-2" d="M23,16.75a.18.18,0,0,0-.19.19.18.18,0,0,0,.36,0A.19.19,0,0,0,23,16.75Z"/><path class="cls-2" d="M18.45,7.21a.18.18,0,0,0,.2-.18c0-.11-.06-.18-.17-.18a.16.16,0,0,0-.19.17A.17.17,0,0,0,18.45,7.21Z"/><path class="cls-2" d="M7.68,21.25a.16.16,0,0,0-.19.17.17.17,0,0,0,.16.19c.12,0,.18-.06.2-.17S7.79,21.26,7.68,21.25Z"/><path class="cls-2" d="M19.39,8.13a.17.17,0,0,0,.18-.19.18.18,0,0,0-.19-.19c-.11,0-.19.08-.18.2A.18.18,0,0,0,19.39,8.13Z"/><path class="cls-2" d="M19.39,22.17c-.11,0-.18.06-.19.18a.17.17,0,0,0,.18.17.17.17,0,0,0,.19-.17A.17.17,0,0,0,19.39,22.17Z"/><path class="cls-2" d="M10.34,23.08c-.11,0-.18.07-.18.17a.16.16,0,0,0,.18.19.18.18,0,1,0,0-.36Z"/><path class="cls-2" d="M15.78,6.33a.18.18,0,0,0,.16-.18A.17.17,0,0,0,15.76,6a.16.16,0,0,0-.18.19A.17.17,0,0,0,15.78,6.33Z"/><path class="cls-2" d="M14.87,6.34a.19.19,0,0,0,.2-.18.2.2,0,0,0-.19-.2.19.19,0,0,0-.18.19A.17.17,0,0,0,14.87,6.34Z"/><path class="cls-2" d="M14,6.34a.18.18,0,0,0,.19-.19A.17.17,0,0,0,14,6a.18.18,0,0,0-.2.17C13.77,6.25,13.84,6.32,14,6.34Z"/><path class="cls-2" d="M13.05,6.34c.11,0,.19-.08.18-.2A.17.17,0,0,0,13.05,6a.17.17,0,0,0-.19.18A.19.19,0,0,0,13.05,6.34Z"/><path class="cls-2" d="M12.16,6.33a.17.17,0,0,0,.19-.16c0-.12-.06-.18-.17-.2S12,6,12,6.13A.17.17,0,0,0,12.16,6.33Z"/><path class="cls-2" d="M23,14.42a.2.2,0,0,0,.19-.2A.18.18,0,0,0,23,14a.17.17,0,0,0-.19.19A.19.19,0,0,0,23,14.42Z"/><path class="cls-2" d="M17.55,23.07c-.12,0-.19.09-.18.2s.08.19.2.17a.18.18,0,0,0,.17-.18A.19.19,0,0,0,17.55,23.07Z"/><path class="cls-2" d="M14.12,24.18h0l0,0,0,0,0,0v0l0,0h0v0h0l0,0h0a.18.18,0,0,0,.06.35.18.18,0,0,0,.19-.14h0Z"/><path class="cls-2" d="M15,24.1h0v0h0a.22.22,0,0,0,0-.08.06.06,0,0,0,0,0h0Z"/><path class="cls-2" d="M15,24.21h0v0h0l.05-.06Z"/><path class="cls-2" d="M23,18.6a.17.17,0,1,0,.16.16A.15.15,0,0,0,23,18.6Z"/><path class="cls-2" d="M23.14,12.45l-.05.06h0l0,0a.16.16,0,0,0,.14-.17h0Z"/><path class="cls-2" d="M8.55,7.2A.15.15,0,0,0,8.71,7a.15.15,0,0,0-.16-.16A.15.15,0,0,0,8.38,7C8.38,7.14,8.44,7.19,8.55,7.2Z"/><path class="cls-2" d="M5,15.88a.17.17,0,0,0-.18.17.16.16,0,0,0,.19.18c.11,0,.16-.07.17-.17S5.06,15.88,5,15.88Z"/><path class="cls-2" d="M9.34,7.12v0l0,0h.11L9.55,7l0,0h.05a.16.16,0,0,0-.13-.15H9.43A.15.15,0,0,0,9.29,7a.14.14,0,0,0,.05.14h0Z"/><path class="cls-2" d="M6.75,20.38a.16.16,0,0,0-.17.16.16.16,0,0,0,.16.19.17.17,0,0,0,.19-.17A.17.17,0,0,0,6.75,20.38Z"/><path class="cls-2" d="M5,17.68a.16.16,0,0,0-.16.17A.16.16,0,0,0,5,18c.11,0,.16-.07.17-.18A.16.16,0,0,0,5,17.68Z"/><path class="cls-2" d="M23,17.67a.16.16,0,0,0-.18.16A.16.16,0,0,0,23,18c.11,0,.17-.06.18-.17A.18.18,0,0,0,23,17.67Z"/><path class="cls-2" d="M21.17,8.68a.16.16,0,0,0-.16.18.16.16,0,0,0,.18.17.16.16,0,0,0,.16-.18C21.35,8.74,21.28,8.69,21.17,8.68Z"/><path class="cls-2" d="M6.72,8.88l0-.08V8.75h0V8.69h0a.16.16,0,0,0-.17.16A.16.16,0,0,0,6.7,9V8.88Z"/><path class="cls-2" d="M5,16.76a.16.16,0,0,0-.18.17.17.17,0,0,0,.18.18c.11,0,.16-.06.17-.18A.16.16,0,0,0,5,16.76Z"/><path class="cls-2" d="M22.08,9.9a.15.15,0,0,0,.18-.16.15.15,0,0,0-.16-.18.17.17,0,0,0-.17.18A.14.14,0,0,0,22.08,9.9Z"/><path class="cls-2" d="M17.6,6.32a.17.17,0,0,0,0-.34.16.16,0,0,0-.17.18A.15.15,0,0,0,17.6,6.32Z"/><path class="cls-2" d="M16.68,6.33a.17.17,0,0,0,.17-.18A.16.16,0,0,0,16.68,6c-.12,0-.19.07-.18.18S16.58,6.32,16.68,6.33Z"/><path class="cls-2" d="M11.35,6.3h0Z"/><path class="cls-2" d="M10.25,6.06h0l0,0h.1l0,0h0a.16.16,0,0,0-.15.08h0Z"/><path class="cls-2" d="M8.54,22.17a.18.18,0,1,0,0,.35.17.17,0,0,0,.16-.18A.17.17,0,0,0,8.54,22.17Z"/><path class="cls-2" d="M20.25,22.18a.15.15,0,0,0-.16.16.17.17,0,1,0,.16-.16Z"/><path class="cls-2" d="M19.37,7.19c.11,0,.17-.05.19-.16s-.06-.17-.17-.17a.15.15,0,0,0-.17.17A.14.14,0,0,0,19.37,7.19Z"/><path class="cls-2" d="M22.09,20.39a.17.17,0,0,0,0,.33.16.16,0,0,0,.18-.16A.16.16,0,0,0,22.09,20.39Z"/><path class="cls-2" d="M5.84,19.47a.16.16,0,0,0-.18.17c0,.11.06.16.17.17A.16.16,0,0,0,6,19.64.15.15,0,0,0,5.84,19.47Z"/><path class="cls-2" d="M22.11,19.46a.18.18,0,0,0,0,.36c.11,0,.18-.06.18-.17A.16.16,0,0,0,22.11,19.46Z"/><path class="cls-2" d="M5,13.18a.17.17,0,0,0-.17.17.17.17,0,0,0,.17.18.16.16,0,0,0,.18-.19A.16.16,0,0,0,5,13.18Z"/><path class="cls-2" d="M21.17,21.26a.16.16,0,0,0-.16.17.15.15,0,0,0,.17.17c.11,0,.16-.07.17-.17A.16.16,0,0,0,21.17,21.26Z"/><path class="cls-2" d="M20.26,8.12c.1,0,.17-.06.17-.17a.15.15,0,0,0-.16-.18c-.11,0-.18.05-.18.16A.18.18,0,0,0,20.26,8.12Z"/><path class="cls-2" d="M5,14.05a.17.17,0,0,0-.18.19.18.18,0,0,0,.18.17c.11,0,.17-.08.17-.18A.16.16,0,0,0,5,14.05Z"/><path class="cls-2" d="M9.46,23.09a.15.15,0,0,0-.17.17c0,.11.06.16.18.17a.15.15,0,0,0,.16-.17A.15.15,0,0,0,9.46,23.09Z"/><path class="cls-2" d="M18.47,23.09a.17.17,0,0,0-.18.17.17.17,0,0,0,.18.18.17.17,0,0,0,.17-.18A.15.15,0,0,0,18.47,23.09Z"/><path class="cls-2" d="M5,12.54l0,0v0H5l0,0h0v-.06h0v0H5l0,0H5l0,0H5c-.11,0-.17.08-.16.18a.16.16,0,0,0,.17.17.17.17,0,0,0,.13,0H4.94Z"/><path class="cls-2" d="M11.24,24a.14.14,0,0,0-.15.16c0,.11.05.17.17.17s.16-.06.17-.17S11.35,24,11.24,24Z"/><path class="cls-2" d="M12.16,24a.15.15,0,0,0-.16.18.16.16,0,0,0,.18.17c.11,0,.16-.07.17-.18A.17.17,0,0,0,12.16,24Z"/><path class="cls-2" d="M13,24a.16.16,0,0,0-.17.17.17.17,0,0,0,.19.18.18.18,0,0,0,.17-.18A.18.18,0,0,0,13,24Z"/><path class="cls-2" d="M15.76,24a.17.17,0,0,0-.18.16.17.17,0,0,0,.18.19.17.17,0,0,0,.18-.18A.17.17,0,0,0,15.76,24Z"/><path class="cls-2" d="M16.68,24a.16.16,0,0,0-.18.17.17.17,0,0,0,.17.18c.11,0,.18-.06.18-.17A.17.17,0,0,0,16.68,24Z"/><path class="cls-2" d="M23.9,15.89a.16.16,0,0,0-.18.17.15.15,0,0,0,.16.16.15.15,0,0,0,.18-.16A.17.17,0,0,0,23.9,15.89Z"/><path class="cls-2" d="M5.83,9A.16.16,0,0,0,6,8.87c0-.1,0-.17-.16-.17a.15.15,0,0,0-.17.15A.15.15,0,0,0,5.83,9Z"/><path class="cls-2" d="M21,7.93a.14.14,0,0,0,.14.17.15.15,0,0,0,.18-.16c0-.1-.06-.15-.16-.16A.14.14,0,0,0,21,7.93Z"/><path class="cls-2" d="M5.84,20.39a.15.15,0,0,0-.17.17.15.15,0,0,0,.16.16c.11,0,.16-.06.17-.17S5.94,20.39,5.84,20.39Z"/><path class="cls-2" d="M17.59,5.4a.16.16,0,0,0,.16-.17.14.14,0,0,0-.16-.15.15.15,0,0,0-.16.16C17.43,5.34,17.49,5.39,17.59,5.4Z"/><path class="cls-2" d="M20.26,7.19A.16.16,0,0,0,20.43,7a.17.17,0,0,0-.16-.17A.15.15,0,0,0,20.1,7,.15.15,0,0,0,20.26,7.19Z"/><path class="cls-2" d="M7.64,7h.12V7l0,0v0h0a.19.19,0,0,0,0-.08.15.15,0,0,0-.15-.17c-.1,0-.17,0-.17.15a.16.16,0,0,0,0,.14l.06-.07Z"/><path class="cls-2" d="M4.05,14.07a.14.14,0,0,0-.17.14.15.15,0,0,0,.16.18.16.16,0,0,0,.17-.16C4.2,14.13,4.15,14.07,4.05,14.07Z"/><path class="cls-2" d="M6.75,21.26a.16.16,0,0,0-.16.17.14.14,0,0,0,.17.16.15.15,0,0,0,.16-.16C6.92,21.32,6.85,21.27,6.75,21.26Z"/><path class="cls-2" d="M22.08,9a.15.15,0,0,0,.18-.16.16.16,0,0,0-.17-.17.16.16,0,0,0-.16.16A.15.15,0,0,0,22.08,9Z"/><path class="cls-2" d="M22.07,21.26a.16.16,0,0,0-.14.17c0,.1.06.16.16.16a.15.15,0,0,0,.17-.17C22.25,21.32,22.19,21.27,22.07,21.26Z"/><path class="cls-2" d="M4,17.1a.15.15,0,0,0,.16-.16c0-.11,0-.17-.17-.17s-.15.07-.16.18A.17.17,0,0,0,4,17.1Z"/><path class="cls-2" d="M16.69,5.4a.16.16,0,0,0,.15-.18.16.16,0,0,0-.17-.15c-.1,0-.16.06-.16.16S16.58,5.4,16.69,5.4Z"/><path class="cls-2" d="M23.9,16.77a.15.15,0,0,0-.18.16.16.16,0,0,0,.18.17.16.16,0,0,0,.16-.16C24.05,16.84,24,16.77,23.9,16.77Z"/><path class="cls-2" d="M15.75,5.4a.17.17,0,0,0,.18-.17.16.16,0,0,0-.17-.16.15.15,0,0,0-.17.17A.15.15,0,0,0,15.75,5.4Z"/><path class="cls-2" d="M19.39,6.31c.1,0,.15-.06.16-.16A.16.16,0,0,0,19.38,6a.15.15,0,0,0-.16.16A.15.15,0,0,0,19.39,6.31Z"/><path class="cls-2" d="M18.48,6.32a.15.15,0,0,0,.15-.16A.14.14,0,0,0,18.47,6a.15.15,0,0,0-.17.15Q18.3,6.31,18.48,6.32Z"/><path class="cls-2" d="M23.89,13.52c.11,0,.16-.07.17-.18a.16.16,0,0,0-.17-.15.15.15,0,0,0-.17.17A.16.16,0,0,0,23.89,13.52Z"/><path class="cls-2" d="M23.89,17.68c-.1,0-.16.06-.16.16a.14.14,0,0,0,.15.17c.11,0,.17-.06.17-.17S24,17.69,23.89,17.68Z"/><path class="cls-2" d="M14.88,5.4a.15.15,0,0,0,.17-.15.16.16,0,0,0-.17-.18c-.1,0-.16.06-.16.16A.14.14,0,0,0,14.88,5.4Z"/><path class="cls-2" d="M14,5.4c.1,0,.15-.06.16-.17A.16.16,0,0,0,14,5.07c-.11,0-.18,0-.18.16A.15.15,0,0,0,14,5.4Z"/><path class="cls-2" d="M9.32,6.09v.06h.21l0,0h0v0C9.62,6,9.55,6,9.45,6a.15.15,0,0,0-.14.08h0Z"/><path class="cls-2" d="M13.06,5.4c.1,0,.15-.06.16-.17a.16.16,0,0,0-.16-.16c-.11,0-.18,0-.18.16A.16.16,0,0,0,13.06,5.4Z"/><path class="cls-2" d="M6.76,22.18a.16.16,0,0,0-.17.16.15.15,0,0,0,.15.17c.1,0,.16-.06.18-.17A.17.17,0,0,0,6.76,22.18Z"/><path class="cls-2" d="M7.69,22.18a.16.16,0,0,0-.19.16.15.15,0,0,0,.17.17c.1,0,.15-.06.17-.16S7.79,22.19,7.69,22.18Z"/><path class="cls-2" d="M12.18,5.4c.1,0,.15-.07.16-.17a.16.16,0,0,0-.17-.16.15.15,0,0,0-.16.16C12,5.34,12.07,5.4,12.18,5.4Z"/><path class="cls-2" d="M11.27,5.4a.16.16,0,0,0,.15-.18.16.16,0,0,0-.17-.15c-.1,0-.16.06-.16.16S11.16,5.4,11.27,5.4Z"/><path class="cls-2" d="M21.19,22.18c-.1,0-.17.05-.17.15a.15.15,0,0,0,.16.18c.1,0,.15-.06.16-.17A.15.15,0,0,0,21.19,22.18Z"/><path class="cls-2" d="M4.05,13.52c.1,0,.16-.07.15-.17A.15.15,0,0,0,4,13.19a.15.15,0,0,0-.16.18C3.88,13.47,4,13.51,4.05,13.52Z"/><path class="cls-2" d="M8.55,6.31c.1,0,.15-.07.16-.17S8.64,6,8.54,6a.16.16,0,0,0-.16.17A.15.15,0,0,0,8.55,6.31Z"/><path class="cls-2" d="M23.9,14.39a.14.14,0,0,0,.15-.16c0-.11-.06-.16-.17-.17a.16.16,0,0,0-.16.17A.15.15,0,0,0,23.9,14.39Z"/><path class="cls-2" d="M23.92,12.6a.15.15,0,0,0,.13-.17.14.14,0,0,0-.16-.15.14.14,0,0,0-.16.17C23.73,12.55,23.8,12.6,23.92,12.6Z"/><path class="cls-2" d="M5,18.56a.15.15,0,0,0-.16.16c0,.11.06.16.17.17s.16-.06.16-.16A.15.15,0,0,0,5,18.56Z"/><path class="cls-2" d="M4,15.31a.15.15,0,0,0,.17-.17c0-.1,0-.15-.15-.16s-.17,0-.17.15A.15.15,0,0,0,4,15.31Z"/><path class="cls-2" d="M23.89,15.31c.1,0,.16-.06.16-.16S24,15,23.88,15s-.15.06-.16.16S23.78,15.3,23.89,15.31Z"/><path class="cls-2" d="M4.05,12.6a.15.15,0,0,0,.15-.17c0-.1-.07-.15-.17-.16a.16.16,0,0,0-.15.17A.15.15,0,0,0,4.05,12.6Z"/><path class="cls-2" d="M23.89,11.73a.16.16,0,0,0,.16-.16.15.15,0,0,0-.15-.17c-.1,0-.17,0-.17.15S23.78,11.71,23.89,11.73Z"/><path class="cls-2" d="M8.55,23.1a.14.14,0,0,0-.17.14.16.16,0,0,0,.15.19.16.16,0,0,0,.18-.15A.15.15,0,0,0,8.55,23.1Z"/><path class="cls-2" d="M23,10.5h0v0h0v0h0a.16.16,0,0,0-.13-.13h0Z"/><path class="cls-2" d="M19.4,23.1a.15.15,0,0,0-.18.15.14.14,0,0,0,.15.17.15.15,0,0,0,.18-.16C19.55,23.17,19.51,23.1,19.4,23.1Z"/><path class="cls-2" d="M20.26,23.1a.15.15,0,0,0-.16.16c0,.11.06.16.17.16s.15-.06.16-.16S20.36,23.1,20.26,23.1Z"/><path class="cls-2" d="M5.05,10.75h0v-.06h0v0h0l0,0h0v0h0A.19.19,0,0,0,5,10.48a.17.17,0,0,0,0,.33H5l0,0Z"/><path class="cls-2" d="M9.47,24c-.1,0-.17.05-.17.15a.15.15,0,0,0,.15.18.15.15,0,0,0,.17-.16A.15.15,0,0,0,9.47,24Z"/><path class="cls-2" d="M10.32,24a.15.15,0,0,0-.15.16.16.16,0,0,0,.18.17.14.14,0,0,0,.15-.16C10.5,24,10.44,24,10.32,24Z"/><path class="cls-2" d="M23,9.89a.15.15,0,0,0,.16-.16c0-.1-.06-.15-.16-.16s-.16.06-.16.16A.15.15,0,0,0,23,9.89Z"/><path class="cls-2" d="M5.82,9.9A.16.16,0,0,0,6,9.74a.15.15,0,0,0-.15-.17.17.17,0,1,0,0,.33Z"/><path class="cls-2" d="M5,19.48a.15.15,0,0,0-.18.16c0,.1.06.15.17.17a.16.16,0,0,0,.16-.16C5.12,19.55,5.07,19.48,5,19.48Z"/><path class="cls-2" d="M23,19.48a.14.14,0,0,0-.16.17.15.15,0,0,0,.17.15c.1,0,.16-.06.15-.16A.14.14,0,0,0,23,19.48Z"/><path class="cls-2" d="M4,15.9a.14.14,0,0,0-.16.15c0,.11.06.17.17.17s.15-.06.16-.18A.16.16,0,0,0,4,15.9Z"/><path class="cls-2" d="M17.55,24a.15.15,0,0,0-.16.16.15.15,0,0,0,.17.17c.1,0,.15-.06.16-.16S17.66,24,17.55,24Z"/><path class="cls-2" d="M18.47,24a.15.15,0,0,0-.16.16.14.14,0,0,0,.16.17c.11,0,.16-.07.16-.18A.15.15,0,0,0,18.47,24Z"/><path class="cls-2" d="M12.17,24.89a.15.15,0,0,0-.16.17c0,.11.07.15.17.16s.16-.07.15-.17A.15.15,0,0,0,12.17,24.89Z"/><path class="cls-2" d="M13.06,24.89c-.12,0-.18.06-.17.17s.06.15.16.16a.16.16,0,0,0,.16-.17A.14.14,0,0,0,13.06,24.89Z"/><path class="cls-2" d="M14,24.89a.16.16,0,0,0,0,.32c.11,0,.17-.05.17-.17S14.06,24.89,14,24.89Z"/><path class="cls-2" d="M14.73,25h0v0a.14.14,0,0,0,.15.16A.14.14,0,0,0,15,25a.14.14,0,0,0-.16-.15h-.07l0,.06Z"/><path class="cls-2" d="M15.75,24.89a.14.14,0,0,0-.15.16.14.14,0,0,0,.17.16c.1,0,.15-.07.15-.17A.15.15,0,0,0,15.75,24.89Z"/><path class="cls-2" d="M16.68,24.89a.16.16,0,0,0-.17.16.15.15,0,0,0,.16.16.16.16,0,0,0,.17-.15C16.83,25,16.78,24.89,16.68,24.89Z"/><path class="cls-2" d="M10.39,5.4a.16.16,0,0,0,.15-.18.14.14,0,0,0-.15-.14c-.08,0-.19,0-.17.17A.15.15,0,0,0,10.39,5.4Z"/><path class="cls-2" d="M4,17.69c-.09,0-.17,0-.15.14s0,.19.16.18a.15.15,0,0,0,.15-.17A.14.14,0,0,0,4,17.69Z"/><path class="cls-2" d="M11.25,24.89a.16.16,0,0,0-.16.15c0,.15.14.11.23.16a.16.16,0,0,0-.07-.31Z"/><path class="cls-2" d="M7.68,23.1a.14.14,0,0,0-.17.13c0,.13.14.11.18.19s.14-.07.14-.15A.15.15,0,0,0,7.68,23.1Z"/><path class="cls-2" d="M5.83,21.27c-.08,0-.17.06-.14.12s0,.21.18.2A.15.15,0,0,0,6,21.42.16.16,0,0,0,5.83,21.27Z"/><path class="cls-2" d="M23,20.39c-.1,0-.16.05-.17.16s.05.17.13.16.15-.13.17-.21S23.05,20.4,23,20.39Z"/><path class="cls-2" d="M23.89,18.6a.15.15,0,0,0-.16.16.13.13,0,0,0,.13.16c.12,0,.09-.15.15-.2A.11.11,0,0,0,23.89,18.6Z"/><path class="cls-2" d="M5,9.89a.14.14,0,0,0,.16-.15c0-.09,0-.17-.11-.16s-.11.16-.15.25S4.91,9.9,5,9.89Z"/><path class="cls-2" d="M19.34,24a.16.16,0,0,0-.1.23c.08,0,.11-.07.17-.09s.13,0,.09-.09A.13.13,0,0,0,19.34,24Z"/><path class="cls-2" d="M4.15,11.64a.15.15,0,0,0,0-.25c0,.1-.13.17-.09.27S4.13,11.67,4.15,11.64Z"/><path class="cls-2" d="M21.21,7.16c-.08,0-.09-.18-.23-.12C21.05,7.11,21.08,7.21,21.21,7.16Z"/><path class="cls-2" d="M17.41,25a.35.35,0,0,0,.22-.08C17.49,24.89,17.49,24.89,17.41,25Z"/><path class="cls-2" d="M14.09,4.45a.53.53,0,0,0-.25,0C13.93,4.55,14,4.55,14.09,4.45Z"/><path class="cls-2" d="M24.68,15.27V15C24.6,15.1,24.57,15.18,24.68,15.27Z"/><path class="cls-2" d="M15,4.45h-.28A.18.18,0,0,0,15,4.45Z"/><path class="cls-2" d="M22,8.09c.05-.1,0-.13-.1-.19A.15.15,0,0,0,22,8.09Z"/><image width="474" height="590" transform="translate(7.8 6.78) scale(0.03)" xlink:href="dc7044f1e768c1ed7830f73c10823c61.png"/><polygon class="cls-3" points="7.27 28.54 7.27 25.14 9.74 25.14 9.74 25.72 7.93 25.72 7.93 26.45 9.45 26.45 9.45 27.06 7.93 27.06 7.93 27.93 9.82 27.93 9.82 28.54 7.27 28.54"/><path class="cls-3" d="M9.85,28.53V25.16h1.66c.66,0,1,.35,1,.92a.66.66,0,0,1-.41.62.78.78,0,0,1,.52.82c0,.62-.42,1-1.26,1Z"/><path class="cls-4" d="M10.52,25.74v.72h.88q.42,0,.42-.36c0-.26-.13-.36-.46-.36Z"/><path class="cls-4" d="M11.4,28a.47.47,0,0,0,.52-.48c0-.29-.19-.42-.51-.42h-.89V28Z"/><polygon class="cls-5" points="14.85 28.53 14.85 26.22 14.21 28.53 13.54 28.53 12.9 26.23 12.9 28.53 12.23 28.53 12.23 25.16 13.25 25.16 13.87 27.63 14.48 25.16 15.51 25.16 15.51 28.53 14.85 28.53"/><polygon class="cls-5" points="17.62 28.53 17.41 27.83 16.16 27.83 15.92 28.53 15.18 28.53 16.38 25.16 17.2 25.16 18.39 28.53 17.62 28.53"/><polygon class="cls-4" points="16.78 25.91 16.78 25.91 16.35 27.25 17.2 27.25 16.78 25.91"/><rect class="cls-5" x="18.27" y="25.16" width="0.7" height="3.37"/><polygon class="cls-5" points="19.13 28.53 19.13 25.16 19.83 25.16 19.83 27.92 21.51 27.92 21.51 28.53 19.13 28.53"/><text class="cls-6" transform="translate(30.01 13.19)">Cor<tspan class="cls-7" x="18.71" y="0">r</tspan><tspan x="22.66" y="0">eio Elet</tspan><tspan class="cls-8" x="61.76" y="0">r</tspan><tspan x="65.7" y="0">nico</tspan></text><text class="cls-9" transform="translate(30.61 25.74) scale(1.45 1)">FUNCIO<tspan class="cls-10" x="42.44" y="0">N</tspan><tspan x="51.06" y="0">AL</tspan></text></svg>